<svg width="48" height="49" viewBox="0 0 48 49" fill="none" xmlns="http://www.w3.org/2000/svg">
<rect y="0.5" width="48" height="48" rx="8" fill="url(#paint0_linear_11387_1866)" fill-opacity="0.2"/>
<path d="M25.0809 24.0858C25.8619 24.8668 25.8619 26.1332 25.0809 26.9142C24.2999 27.6953 23.0334 27.6953 22.2524 26.9142C21.4714 26.1332 21.4714 24.8668 22.2524 24.0858C23.0334 23.3047 24.2999 23.3047 25.0809 24.0858" stroke="#EDEDEF" stroke-width="1.5" stroke-linecap="round" stroke-linejoin="round"/>
<path fill-rule="evenodd" clip-rule="evenodd" d="M18.9684 25.5C18.9684 25.698 18.9872 25.896 19.0122 26.088L17.9066 26.916C17.6612 27.1 17.5944 27.429 17.751 27.687L18.7335 29.316C18.889 29.574 19.2189 29.683 19.5071 29.572L20.4969 29.191C20.6921 29.116 20.9103 29.146 21.0857 29.257C21.2392 29.354 21.3979 29.444 21.5618 29.524C21.7497 29.615 21.8865 29.779 21.9157 29.979L22.0671 30.988C22.112 31.281 22.3751 31.5 22.6863 31.5H24.647C24.9571 31.5 25.2212 31.281 25.2651 30.987L25.4165 29.979C25.4467 29.779 25.5846 29.614 25.7725 29.524C25.9364 29.445 26.0941 29.357 26.2465 29.26C26.4229 29.148 26.6422 29.116 26.8385 29.192L27.8261 29.572C28.1143 29.683 28.4442 29.574 28.5998 29.316L29.5823 27.687C29.7378 27.429 29.671 27.1 29.4267 26.916L28.321 26.088C28.3461 25.896 28.3649 25.698 28.3649 25.5C28.3649 25.302 28.3461 25.104 28.321 24.912L29.4267 24.084C29.672 23.9 29.7389 23.571 29.5823 23.313L28.5998 21.684C28.4442 21.426 28.1143 21.317 27.8261 21.428L26.8385 21.808C26.6422 21.883 26.424 21.852 26.2465 21.74C26.0941 21.643 25.9364 21.555 25.7725 21.476C25.5835 21.385 25.4457 21.221 25.4165 21.021L25.2661 20.013C25.2212 19.719 24.9581 19.5 24.647 19.5H22.6863C22.3762 19.5 22.112 19.719 22.0682 20.013L21.9168 21.022C21.8865 21.221 21.7497 21.385 21.5629 21.477C21.3989 21.557 21.2402 21.647 21.0868 21.744C20.9103 21.855 20.6921 21.885 20.4969 21.809L19.5081 21.429C19.2189 21.318 18.889 21.427 18.7335 21.685L17.751 23.313C17.5954 23.571 17.6623 23.9 17.9066 24.084L19.0122 24.912C18.9872 25.104 18.9684 25.302 18.9684 25.5V25.5Z" stroke="#EDEDEF" stroke-width="1.5" stroke-linecap="round" stroke-linejoin="round"/>
<path d="M13.3289 25.8337C13.3289 31.7272 18.1065 36.5048 24 36.5048C29.8935 36.5048 34.6711 31.7272 34.6711 25.8337C34.6711 19.9402 29.8935 15.1626 24 15.1626H14.6627" stroke="#EDEDEF" stroke-width="1.5" stroke-linecap="round" stroke-linejoin="round"/>
<path d="M17.9974 18.4976L14.6627 15.1628L17.9974 11.8281" stroke="#EDEDEF" stroke-width="1.5" stroke-linecap="round" stroke-linejoin="round"/>
<defs>
<linearGradient id="paint0_linear_11387_1866" x1="0" y1="0.5" x2="48" y2="48.5" gradientUnits="userSpaceOnUse">
<stop stop-color="#434245"/>
<stop offset="1" stop-color="#A6A4AB"/>
</linearGradient>
</defs>
</svg>
