<svg width="48" height="49" viewBox="0 0 48 49" fill="none" xmlns="http://www.w3.org/2000/svg">
<rect y="0.5" width="48" height="48" rx="8" fill="url(#paint0_linear_11387_884)" fill-opacity="0.2"/>
<path d="M21.6301 26.8701C22.2935 27.5335 22.2935 28.6091 21.6301 29.2725C20.9667 29.9359 19.8911 29.9359 19.2277 29.2725C18.5643 28.6091 18.5643 27.5335 19.2277 26.8701C19.8911 26.2067 20.9666 26.2067 21.6301 26.8701" stroke="#EDEDEF" stroke-width="1.5" stroke-linecap="round" stroke-linejoin="round"/>
<mask id="path-3-outside-1_11387_884" maskUnits="userSpaceOnUse" x="28.1846" y="14.8149" width="6" height="6" fill="black">
<rect fill="white" x="28.1846" y="14.8149" width="6" height="6"/>
<path fill-rule="evenodd" clip-rule="evenodd" d="M31.5182 17.0438C31.8233 17.3489 31.8233 17.8435 31.5182 18.1486C31.2132 18.4537 30.7185 18.4537 30.4134 18.1486C30.1083 17.8435 30.1083 17.3489 30.4134 17.0438C30.7185 16.7387 31.2131 16.7387 31.5182 17.0438Z"/>
</mask>
<path d="M32.5789 15.9831C31.9931 15.3973 31.0434 15.3973 30.4576 15.9831C29.8718 16.5689 29.8718 17.5186 30.4576 18.1044L31.5182 17.0438L32.5789 15.9831ZM31.5182 18.1486L32.5789 19.2093L32.5789 19.2093L31.5182 18.1486ZM30.4134 18.1486L29.3527 19.2093L29.3527 19.2093L30.4134 18.1486ZM30.4134 17.0438L29.3527 15.9831L29.3527 15.9831L30.4134 17.0438ZM30.4576 18.1044C31.0434 18.6902 31.9931 18.6902 32.5789 18.1044C33.1647 17.5186 33.1647 16.5689 32.5789 15.9831L31.5182 17.0438L30.4576 18.1044ZM31.5182 17.0438L30.4576 18.1044C30.1769 17.8237 30.1769 17.3686 30.4576 17.088L31.5182 18.1486L32.5789 19.2093C33.4698 18.3184 33.4698 16.874 32.5789 15.9831L31.5182 17.0438ZM31.5182 18.1486L30.4576 17.088C30.7383 16.8073 31.1934 16.8073 31.474 17.088L30.4134 18.1486L29.3527 19.2093C30.2436 20.1002 31.688 20.1002 32.5789 19.2093L31.5182 18.1486ZM30.4134 18.1486L31.4741 17.088C31.7547 17.3687 31.7547 17.8237 31.4741 18.1044L30.4134 17.0438L29.3527 15.9831C28.4619 16.874 28.4618 18.3184 29.3527 19.2093L30.4134 18.1486ZM30.4134 17.0438L31.4741 18.1044C31.1934 18.3851 30.7383 18.3851 30.4576 18.1044L31.5182 17.0438L32.5789 15.9831C31.688 15.0922 30.2436 15.0922 29.3527 15.9831L30.4134 17.0438Z" fill="#EDEDEF" mask="url(#path-3-outside-1_11387_884)"/>
<path fill-rule="evenodd" clip-rule="evenodd" d="M22.6388 21.0629L23.7851 21.4454C24.0476 21.5329 24.2251 21.7792 24.2251 22.0554V23.1542C24.2251 23.7779 24.7238 24.2879 25.3476 24.3017L26.3876 24.3242C26.6263 24.3292 26.8413 24.4654 26.9488 24.6792L27.4888 25.7592C27.6126 26.0067 27.5638 26.3054 27.3688 26.5017L26.5913 27.2779C26.1501 27.7192 26.1426 28.4329 26.5738 28.8829L27.2926 29.6342C27.4576 29.8067 27.5138 30.0554 27.4376 30.2817L27.0551 31.4279C26.9676 31.6904 26.7213 31.8679 26.4451 31.8679H25.3463C24.7226 31.8679 24.2126 32.3667 24.1988 32.9904L24.1763 34.0304C24.1713 34.2692 24.0351 34.4842 23.8213 34.5917L22.7413 35.1317C22.4938 35.2554 22.1951 35.2067 21.9988 35.0117L21.2226 34.2342C20.7813 33.7929 20.0676 33.7854 19.6176 34.2167L18.8663 34.9354C18.6938 35.1004 18.4451 35.1567 18.2188 35.0804L17.0726 34.6979C16.8101 34.6104 16.6326 34.3642 16.6326 34.0879V32.9892C16.6326 32.3654 16.1338 31.8554 15.5101 31.8417L14.4713 31.8192C14.2326 31.8142 14.0176 31.6779 13.9101 31.4642L13.3701 30.3842C13.2463 30.1367 13.2951 29.8379 13.4901 29.6417L14.2676 28.8654C14.7088 28.4242 14.7163 27.7104 14.2851 27.2604L13.5663 26.5092C13.4013 26.3367 13.3451 26.0879 13.4213 25.8617L13.8038 24.7154C13.8913 24.4529 14.1376 24.2754 14.4138 24.2754H15.5126C16.1363 24.2754 16.6463 23.7767 16.6601 23.1529L16.6826 22.1129C16.6876 21.8742 16.8238 21.6592 17.0376 21.5517L18.1176 21.0117C18.3651 20.8879 18.6638 20.9367 18.8601 21.1317L19.6363 21.9092C20.0776 22.3504 20.7913 22.3579 21.2413 21.9267L21.9926 21.2079C22.1626 21.0442 22.4126 20.9879 22.6388 21.0629Z" stroke="#EDEDEF" stroke-width="1.5" stroke-linecap="round" stroke-linejoin="round"/>
<path fill-rule="evenodd" clip-rule="evenodd" d="M31.7025 22.4029L32.6975 22.1354C32.8988 22.0817 33.05 21.9142 33.0838 21.7079L33.2725 20.5467C33.3275 20.2104 33.5913 19.9467 33.9275 19.8917L35.0875 19.7029C35.2938 19.6692 35.4613 19.5179 35.515 19.3167L35.7825 18.3217C35.8363 18.1192 35.7675 17.9054 35.605 17.7729L34.6938 17.0279C34.43 16.8117 34.3338 16.4517 34.4538 16.1329L34.8725 15.0304C34.9463 14.8354 34.9 14.6142 34.7513 14.4667L34.0225 13.7392C33.875 13.5917 33.6538 13.5442 33.4588 13.6179L31.8238 14.2379L30.7188 12.8854C30.5863 12.7229 30.3713 12.6542 30.17 12.7079L29.175 12.9754C28.9738 13.0292 28.8225 13.1967 28.7888 13.4029L28.6 14.5642C28.545 14.9004 28.2813 15.1642 27.945 15.2192L26.785 15.4079C26.5788 15.4417 26.4113 15.5929 26.3575 15.7942L26.09 16.7892C26.0363 16.9904 26.105 17.2054 26.2663 17.3379L27.1763 18.0817C27.44 18.2979 27.5363 18.6579 27.415 18.9767L26.9963 20.0792C26.9225 20.2742 26.9688 20.4954 27.1175 20.6429L27.8463 21.3717C27.9938 21.5192 28.215 21.5667 28.41 21.4929L29.5138 21.0742C29.8325 20.9529 30.1925 21.0504 30.4075 21.3142L31.1525 22.2254C31.2863 22.3879 31.5013 22.4567 31.7025 22.4029V22.4029Z" stroke="#EDEDEF" stroke-width="1.5" stroke-linecap="round" stroke-linejoin="round"/>
<defs>
<linearGradient id="paint0_linear_11387_884" x1="0" y1="0.5" x2="48" y2="48.5" gradientUnits="userSpaceOnUse">
<stop stop-color="#434245"/>
<stop offset="1" stop-color="#A6A4AB"/>
</linearGradient>
</defs>
</svg>
