<svg width="246" height="166" viewBox="0 0 246 166" fill="none" xmlns="http://www.w3.org/2000/svg">
<rect x="-0.5" y="0.5" width="245" height="165" rx="11.5" transform="matrix(-1 0 0 1 245 0)" fill="#202020" fill-opacity="0.25"/>
<path d="M170.423 110C170.378 109.929 170.333 109.857 170.273 109.803C164.924 104.832 159.425 100.129 153.641 95.8907C149.78 93.0653 145.829 90.4723 141.697 88.2191C138.061 86.2163 134.335 84.5174 130.474 83.2478C128.161 82.4967 125.802 81.8887 123.428 81.4953C120.654 81.0185 117.869 80.8397 115.075 80.9588C112.13 81.084 109.23 81.5489 106.346 82.3179C104.002 82.9438 101.703 83.7485 99.4349 84.6784C99.2546 84.732 99.1194 84.732 98.9541 84.6426C92.1333 81.0303 85.3124 77.4181 78.4916 73.8058C78.4465 73.7701 78.3864 73.7343 78.2812 73.6806C78.4014 73.6091 78.4766 73.5555 78.5667 73.5197C81.8018 71.9222 85.037 70.3247 88.2721 68.7272C93.0598 66.3548 97.8424 63.9883 102.62 61.6278C102.83 61.5205 102.996 61.5026 103.221 61.5742C116.397 65.9554 129.182 71.5705 141.487 78.6877C152.74 85.197 163.392 92.8507 173.382 101.828C174.69 102.99 175.967 104.206 177.259 105.386C177.334 105.458 177.394 105.529 177.484 105.637C177.379 105.708 177.289 105.78 177.199 105.833C175.085 107.157 172.967 108.474 170.843 109.785C170.753 109.857 170.678 109.929 170.588 110C170.538 110 170.483 110 170.423 110Z" fill="white"/>
<path d="M189.002 98.4655C186.252 100.182 183.563 101.863 180.844 103.562C180.754 103.479 180.663 103.395 180.573 103.312C173.497 96.8203 166.12 90.8117 158.443 85.3397C148.122 77.99 137.365 71.6954 126.142 66.5631C121.409 64.3993 116.617 62.4859 111.794 60.6797C110.622 60.2505 109.465 59.8035 108.308 59.3564C108.218 59.3206 108.143 59.2849 108.008 59.2312C108.128 59.1418 108.218 59.0882 108.308 59.0345C110.652 57.6933 113.101 56.7813 115.685 56.3343C117.548 56.0124 119.426 55.923 121.304 56.066C124.684 56.2806 127.975 57.1747 131.19 58.4086C134.33 59.6246 137.349 61.1625 140.309 62.8972C144.155 65.1503 147.851 67.7076 151.502 70.3899C163.942 79.5636 176.321 88.8447 188.656 98.1972C188.761 98.2688 188.866 98.3582 189.002 98.4655Z" fill="white"/>
<path d="M91.6751 86.6275C90.6435 86.6753 89.6119 86.723 88.5802 86.7706C85.936 86.8661 83.2918 86.9614 80.6476 87.0567C79.025 87.1282 77.3975 87.1939 75.7648 87.2534C73.2308 87.3607 70.6968 87.4621 68.1628 87.5574C67.4917 87.5932 66.8206 87.6171 66.1496 87.6289C66.0143 87.6468 65.8791 87.6111 65.7589 87.5753C62.9144 86.4786 60.0749 85.3818 57.2404 84.2849C57.1803 84.267 57.1202 84.2313 57 84.1776C57.1352 84.1061 57.2254 84.0524 57.3305 83.9988C60.8762 82.2463 64.4218 80.4938 67.9674 78.7413C69.6201 77.9366 71.2727 77.114 72.9253 76.2914C73.1206 76.202 73.2709 76.202 73.4512 76.3093C79.4807 79.6952 85.5053 83.0809 91.5249 86.4666C91.585 86.5023 91.6401 86.5381 91.6902 86.5739C91.6902 86.5978 91.6852 86.6157 91.6751 86.6275Z" fill="white"/>
<rect x="-0.5" y="0.5" width="245" height="165" rx="11.5" transform="matrix(-1 0 0 1 245 0)" stroke="#262728"/>
</svg>
