<svg width="133" height="45" viewBox="0 0 133 45" fill="none" xmlns="http://www.w3.org/2000/svg">
<path d="M0 30.3449C0.584696 30.226 1.13288 29.9797 1.60196 29.6252C2.02738 29.2284 2.29357 28.7012 2.35405 28.1357C2.51199 27.3657 2.63232 26.5238 2.72257 25.6314C2.81282 24.7391 2.85795 23.854 2.87299 22.9977C2.88803 22.1414 2.87299 21.5225 2.87299 21.1411V9.35397C2.87299 8.94379 2.87299 8.3825 2.87299 7.67728C2.87299 6.97207 2.8053 6.23807 2.72257 5.51847C2.6429 4.83551 2.51983 4.15782 2.35405 3.48918C2.25669 2.98879 1.99287 2.53191 1.60196 2.1867C1.17818 1.8745 0.691751 1.64915 0.172981 1.52466H20.1636V5.84229H19.9004C19.7065 5.17651 19.3455 4.56617 18.8486 4.06448C18.3518 3.56278 17.7343 3.18493 17.0499 2.96387C16.2136 2.68572 15.3489 2.49275 14.4702 2.38818C13.4474 2.22268 12.3794 2.15791 11.2814 2.07156C10.1833 1.98521 9.08527 1.97801 8.03234 1.96362H5.41506V17.0106H10.4766C11.1851 17.0193 11.8935 16.9856 12.5975 16.9098C13.1133 16.861 13.6064 16.6822 14.0265 16.3917C14.4331 16.0732 14.7337 15.648 14.8914 15.1684C15.1277 14.4683 15.2742 13.7434 15.3276 13.0096H15.5382V21.321H15.3276C15.3263 20.483 15.1338 19.6554 14.7636 18.8959C14.4293 18.3495 13.8923 17.9436 13.2594 17.759C12.4118 17.5105 11.5285 17.3915 10.6421 17.4064C9.55909 17.4064 8.24293 17.4064 6.6861 17.4064H5.40754V24.8183C5.40754 25.3148 5.40754 25.8545 5.49779 26.4302C5.54689 26.9876 5.67075 27.5366 5.86632 28.0637C6.02955 28.5441 6.30178 28.9839 6.66353 29.3518C6.84422 29.5274 7.05964 29.6668 7.29723 29.762C7.53482 29.8571 7.78983 29.906 8.04738 29.9059C8.45351 29.9059 8.86716 29.9491 9.30338 29.9491H10.6872C11.7853 29.9491 12.9435 29.9059 14.1243 29.8267C15.2601 29.7543 16.3845 29.5661 17.4786 29.2654C18.4445 29.0118 19.3543 28.5924 20.1636 28.0277C20.8979 27.5052 21.3935 26.732 21.5474 25.8689H21.8483V30.3808L0 30.3449Z" fill="white"/>
<path d="M25.1343 0.287842C26.0594 0.208686 26.9468 0.136725 27.8268 0.0791566C28.7067 0.0215882 29.534 0 30.4591 0V24.6969C30.4591 25.2582 30.4591 25.8338 30.5268 26.4095C30.5945 26.9852 30.6321 27.5465 30.7148 28.0646C30.7703 28.4788 30.8868 28.8834 31.0608 29.2664C31.238 29.5509 31.4764 29.7962 31.7602 29.986C32.0253 30.1549 32.3174 30.2813 32.6251 30.3602H25.6156C25.9358 30.2733 26.2458 30.1552 26.5407 30.0075C26.8472 29.8528 27.085 29.5972 27.2101 29.2879C27.391 28.9074 27.5078 28.5018 27.556 28.0862C27.6513 27.5309 27.7166 26.9713 27.7516 26.4095C27.7967 25.8194 27.8193 25.2366 27.8193 24.6753V5.93675C27.8193 5.37545 27.8193 4.78538 27.7516 4.18091C27.717 3.61197 27.6517 3.04513 27.556 2.48264C27.522 2.11477 27.4039 1.75855 27.2101 1.43921C27.1744 1.27722 27.0847 1.13073 26.9543 1.02184C26.8195 0.907872 26.6734 0.806656 26.5181 0.719606V0.676429C26.0896 0.426645 25.5984 0.292378 25.0967 0.287842H25.1343Z" fill="white"/>
<path d="M38.9352 20.4948C38.9363 21.6786 39.0395 22.8604 39.2435 24.028C39.4141 25.1282 39.7939 26.1892 40.3642 27.1583C40.9285 28.0796 41.7349 28.8437 42.7032 29.3747C43.9096 29.9867 45.2648 30.2798 46.6291 30.2238C48.167 30.2058 49.6704 29.7852 50.9762 29.0077C52.3938 28.2038 53.5761 27.0701 54.4132 25.7119H54.6765C54.3145 26.512 53.8049 27.2433 53.1723 27.8707C52.5595 28.4939 51.8521 29.0251 51.0739 29.4467C50.2951 29.8791 49.4573 30.2061 48.5845 30.4181C47.7308 30.6367 46.851 30.748 45.9672 30.7491C44.5067 30.7743 43.0567 30.5071 41.7104 29.9648C40.5088 29.4789 39.4251 28.7609 38.5269 27.8558C37.6288 26.9506 36.9357 25.8778 36.4909 24.7045C36.0267 23.4997 35.7924 22.2249 35.799 20.9409C35.7944 19.644 35.9922 18.3537 36.3856 17.1126C36.7564 15.9174 37.3585 14.7994 38.1605 13.8168C38.9707 12.84 39.9985 12.0484 41.1689 11.4997C42.5054 10.8956 43.9705 10.5975 45.4483 10.629C46.8436 10.6175 48.222 10.9207 49.472 11.5141C50.6 12.0379 51.6074 12.7718 52.4352 13.6729C53.2536 14.599 53.8791 15.6664 54.2779 16.8176C54.6909 17.9947 54.9165 19.2246 54.9472 20.466L38.9352 20.4948ZM45.6438 11.0535C44.5546 11.0158 43.4873 11.3528 42.6355 12.0034C41.8233 12.6703 41.1541 13.4817 40.665 14.3925C40.1511 15.3289 39.7595 16.3222 39.4993 17.3501C39.2677 18.2578 39.0944 19.1782 38.9803 20.1062H52.0441C51.9995 19.1941 51.8788 18.2869 51.6831 17.3933C51.4724 16.3519 51.1157 15.3426 50.6227 14.3925C50.1487 13.4805 49.486 12.6702 48.6748 12.0106C47.8254 11.3534 46.7583 11.0088 45.6664 11.0391" fill="white"/>
<path d="M63.2549 11.0965C63.0163 11.1335 62.788 11.2163 62.5838 11.34C62.3796 11.4637 62.2036 11.6256 62.0666 11.8161C61.8385 12.2224 61.7269 12.6793 61.7432 13.1402C61.7813 13.8741 61.9204 14.5999 62.1568 15.299C62.4576 16.3109 62.8115 17.3076 63.2173 18.2854C63.646 19.3432 64.1198 20.4442 64.6387 21.5956C65.1577 22.7469 65.6541 23.8048 66.1429 24.7834C66.6318 25.7621 67.0154 26.6184 67.3764 27.3452C67.7374 28.072 67.978 28.5829 68.0908 28.8564C68.2638 28.3599 68.5271 27.6906 68.8429 26.8487C69.1588 26.0068 69.595 25.0857 70.0087 24.0782C70.4223 23.0708 70.8886 22.0201 71.3474 20.9335C71.8062 19.8469 72.2424 18.7747 72.6485 17.8248C73.0546 16.875 73.4006 15.9611 73.6638 15.1551C73.8851 14.5487 74.0512 13.9251 74.1602 13.2913C74.1961 13.1155 74.1932 12.9344 74.1517 12.7597C74.1103 12.585 74.0312 12.4205 73.9196 12.2767C73.6983 12.0105 73.4078 11.8045 73.0772 11.6794C72.7053 11.5362 72.3233 11.4184 71.934 11.3268C71.5129 11.2333 71.1819 11.1397 70.8285 11.0605L77.8831 11.0965C76.6701 11.6177 75.7139 12.5661 75.2132 13.7447C74.4811 15.1359 73.6538 16.9421 72.7312 19.1633L68.0608 30.4683H65.5939L59.5772 16.6807C59.344 16.1554 59.1109 15.6085 58.8852 15.0256C58.6538 14.4546 58.3772 13.9013 58.0579 13.3705C57.7477 12.8536 57.3629 12.3813 56.9148 11.9672C56.4482 11.5412 55.8722 11.2407 55.2451 11.0965H63.2549Z" fill="white"/>
<path d="M78.6199 24.5101C78.6216 23.692 78.8527 22.8893 79.2893 22.1858C79.7667 21.4123 80.4164 20.749 81.1921 20.2429C82.1113 19.6451 83.1279 19.1977 84.2004 18.9188C85.4802 18.5748 86.8047 18.4076 88.1339 18.4223C89.4027 18.423 90.662 18.6324 91.8567 19.0411V17.4724C91.8546 16.7104 91.8119 15.949 91.7289 15.1912C91.6507 14.4632 91.4527 13.7516 91.1423 13.0828C90.8432 12.4465 90.3638 11.903 89.7584 11.514C89.0082 11.0847 88.1422 10.8769 87.269 10.9168C86.4242 10.8369 85.5801 11.0743 84.9149 11.5788C84.4517 11.9899 84.0695 12.4774 83.7868 13.018C83.516 13.5577 83.2453 14.0543 82.9896 14.5076C82.8565 14.7429 82.6549 14.9361 82.4092 15.0638C82.1636 15.1916 81.8844 15.2483 81.6057 15.2272C81.429 15.2512 81.2489 15.2356 81.0796 15.1815C80.9103 15.1275 80.7564 15.0364 80.6302 14.9157C80.504 14.7949 80.4089 14.6477 80.3524 14.4857C80.2959 14.3237 80.2795 14.1514 80.3046 13.9823C80.3034 13.67 80.3815 13.3621 80.5322 13.0851C80.6828 12.8081 80.9016 12.5702 81.1695 12.392C81.7907 11.9424 82.4842 11.5925 83.2227 11.3557C84.0177 11.0969 84.8359 10.909 85.667 10.7944C86.3271 10.6993 86.9928 10.644 87.6601 10.6289C88.5563 10.627 89.4472 10.7605 90.2999 11.0247C91.1495 11.296 91.9416 11.7103 92.6389 12.248C93.3128 12.8547 93.8104 13.6184 94.0829 14.4644C94.3593 15.3 94.4989 16.1714 94.4966 17.0478L94.4515 24.5029C94.4515 24.8339 94.4515 25.2225 94.4515 25.6831C94.4515 26.1436 94.4515 26.597 94.5191 27.0647C94.5396 27.5087 94.5898 27.951 94.6696 28.3888C94.7138 28.7189 94.8076 29.0413 94.9478 29.3459C95.0722 29.6488 95.3002 29.9025 95.5946 30.0655C95.8795 30.213 96.1864 30.3173 96.5047 30.3749H88.2317C84.9475 30.4037 82.5183 29.8448 80.9439 28.6982C80.2288 28.2391 79.641 27.6207 79.231 26.8962C78.8209 26.1717 78.6009 25.3628 78.5898 24.5389M88.4498 18.7821C87.2835 18.7447 86.1216 18.9357 85.0353 19.3434C84.2181 19.665 83.4859 20.1566 82.8918 20.7826C82.381 21.3243 82.0032 21.9685 81.7862 22.6679C81.5943 23.2798 81.493 23.9145 81.4854 24.5533C81.4918 25.1812 81.5854 25.8055 81.7637 26.4099C81.9594 27.0869 82.3144 27.7121 82.8016 28.2377C83.3753 28.8308 84.079 29.2952 84.8623 29.5977C85.9358 29.9934 87.082 30.177 88.2317 30.1374C88.6679 30.1374 89.1643 30.1374 89.7358 30.0583C90.227 30.031 90.6926 29.8401 91.052 29.5186C91.2254 29.2011 91.3424 28.8582 91.398 28.5039C91.4939 28.0454 91.5593 27.5815 91.5935 27.1151C91.6386 26.6354 91.6762 26.1316 91.7063 25.6039C91.7063 25.093 91.7439 24.6468 91.7439 24.2583L91.7891 19.293C91.3829 19.185 90.9091 19.0699 90.3601 18.962C89.7332 18.8457 89.0958 18.7902 88.4573 18.7965" fill="white"/>
<path d="M97.3477 11.3412V10.931C98.4672 10.9306 99.5732 10.6973 100.589 10.2474C101.311 9.8944 101.923 9.36576 102.364 8.71461C102.768 8.07584 103.024 7.36188 103.116 6.62056C103.237 5.85058 103.334 5.06621 103.425 4.26025H104.026V10.7367H109.825V11.3556H104.026V27.2804C103.955 27.9404 104.137 28.6026 104.538 29.1442C104.694 29.3156 104.887 29.4525 105.104 29.5457C105.321 29.6388 105.556 29.686 105.794 29.6839C106.184 29.6731 106.567 29.5875 106.922 29.4321C107.337 29.2725 107.725 29.0542 108.072 28.7844C108.413 28.5187 108.719 28.2142 108.983 27.8777C109.233 27.5728 109.41 27.2191 109.501 26.8415L109.847 27.1293C109.461 27.8966 108.953 28.6028 108.343 29.2234C107.904 29.6538 107.396 30.0156 106.839 30.2956C106.41 30.5178 105.94 30.6595 105.455 30.713C105.011 30.7489 104.598 30.7705 104.222 30.7705C103.761 30.8229 103.295 30.7427 102.882 30.5402C102.47 30.3377 102.129 30.022 101.905 29.6336C101.508 28.8391 101.309 27.9668 101.326 27.0861V11.3412H97.3477Z" fill="white"/>
<path d="M115.998 20.4943C115.997 21.6779 116.098 22.8597 116.299 24.0275C116.476 25.1273 116.858 26.1877 117.427 27.1578C117.989 28.0788 118.793 28.843 119.759 29.3742C120.957 29.9803 122.3 30.2732 123.655 30.2234C125.193 30.2075 126.697 29.7868 128.002 29.0072C129.422 28.2043 130.607 27.0705 131.446 25.7114H131.702C131.338 26.5103 130.828 27.2411 130.198 27.8702C129.582 28.4901 128.875 29.021 128.099 29.4462C127.318 29.8805 126.478 30.2098 125.602 30.4248C124.749 30.6435 123.869 30.7547 122.985 30.7559C121.522 30.7807 120.07 30.5136 118.721 29.9715C117.533 29.4772 116.462 28.7556 115.577 27.851C114.691 26.9463 114.007 25.8778 113.569 24.7112C113.105 23.5064 112.871 22.2317 112.877 20.9476C112.873 19.6507 113.07 18.3604 113.464 17.1193C113.832 15.923 114.434 14.8045 115.239 13.8235C116.048 12.846 117.076 12.0543 118.247 11.5064C119.586 10.9014 121.054 10.6033 122.534 10.6357C123.921 10.627 125.291 10.9276 126.535 11.5136C127.661 12.0412 128.667 12.7746 129.498 13.6724C130.314 14.5989 130.937 15.6663 131.333 16.8171C131.754 17.9925 131.98 19.2234 132.003 20.4655L115.998 20.4943ZM122.707 11.0531C121.617 11.0114 120.548 11.3489 119.699 12.0029C118.882 12.6655 118.212 13.4778 117.728 14.392C117.218 15.3186 116.832 16.3025 116.577 17.3208C116.339 18.227 116.165 19.1479 116.058 20.0769H129.122C129.075 19.1647 128.951 18.2576 128.754 17.364C128.536 16.3318 128.174 15.3323 127.678 14.392C127.209 13.4769 126.546 12.6657 125.73 12.0101C124.884 11.3483 123.815 11.0031 122.722 11.0387" fill="white"/>
<path d="M37.0445 37.9739C37.6161 37.9739 38.1576 37.9739 38.6991 37.9739C38.973 37.9436 39.25 37.9968 39.4904 38.1261C39.7308 38.2553 39.9224 38.4539 40.0378 38.6935C40.1823 38.9586 40.2527 39.2549 40.2421 39.5538C40.2316 39.8526 40.1405 40.1437 39.9777 40.3989C39.8458 40.5682 39.6999 40.727 39.5414 40.8739C39.8729 41.1103 40.1186 41.4401 40.2441 41.817C40.3695 42.1938 40.3684 42.5989 40.2409 42.9751C40.1799 43.2576 40.0184 43.511 39.7838 43.6921C39.5492 43.8732 39.2562 43.9708 38.9548 43.9682C38.3381 43.9682 37.7139 43.9682 37.1047 43.9682C36.9213 41.9746 36.9011 39.9704 37.0445 37.9739ZM37.5484 43.5076H38.3005C38.4808 43.5184 38.6617 43.5184 38.842 43.5076C39.4587 43.4357 39.7595 43.0543 39.7671 42.3491C39.7746 41.6439 39.4662 41.2121 38.8796 41.1545C38.4337 41.1327 37.9868 41.1327 37.5409 41.1545L37.5484 43.5076ZM37.5484 38.4272V40.6508C37.9743 40.6726 38.4011 40.6726 38.827 40.6508C39.3985 40.586 39.7069 40.1543 39.6919 39.5138C39.6768 38.8734 39.3609 38.4848 38.7593 38.4416C38.3607 38.4056 37.9921 38.4272 37.5484 38.4272Z" fill="white"/>
<path d="M58.5478 38.0588L60.3077 43.8948C59.7211 44.1251 59.7361 43.7149 59.6384 43.4343C59.5406 43.1536 59.4579 42.8658 59.3526 42.5491H57.164C56.9534 43.0385 56.7503 43.5062 56.5247 43.9884C56.5247 44.0243 56.3442 43.9884 56.2615 43.9884C56.1788 43.9884 56.1863 43.8516 56.1938 43.8157C56.7353 42.031 57.2843 40.2176 57.8033 38.4618C57.9161 38.0084 58.0891 37.8789 58.5478 38.0588ZM58.2921 38.7784H58.1417L57.2091 41.9879H59.2322C58.9088 40.8509 58.6005 39.8146 58.2921 38.7712V38.7784Z" fill="white"/>
<path d="M70.177 38.016V39.4552C70.177 40.4482 70.177 41.4413 70.177 42.4271C70.1758 42.6592 70.1255 42.8887 70.0291 43.1017C69.9328 43.3147 69.7924 43.5069 69.6163 43.6666C69.4403 43.8263 69.2323 43.9502 69.0049 44.031C68.7774 44.1117 68.5353 44.1476 68.293 44.1364C68.0507 44.1252 67.8132 44.0672 67.595 43.9659C67.3767 43.8646 67.1821 43.7221 67.023 43.5469C66.8638 43.3718 66.7434 43.1676 66.6689 42.9467C66.5944 42.7258 66.5674 42.4928 66.5895 42.2616C66.5895 41.4197 66.5895 40.5777 66.5895 39.7358C66.5895 39.2681 66.5895 38.7931 66.5895 38.2966C66.5895 38.0951 66.5895 38.0951 67.0784 37.9656V38.6852C67.0784 39.7286 67.0784 40.7648 67.0784 41.8083C67.0792 42.1288 67.1222 42.4479 67.2062 42.7582C67.2738 43.0007 67.4249 43.2143 67.6351 43.3644C67.8453 43.5146 68.1023 43.5926 68.3645 43.5857C68.6269 43.6078 68.8892 43.5425 69.1071 43.4009C69.325 43.2593 69.4851 43.0501 69.5603 42.8085C69.648 42.526 69.6911 42.2325 69.6881 41.9378C69.6881 40.772 69.6881 39.6063 69.6881 38.4405C69.6731 38.239 69.6129 37.944 70.177 38.016Z" fill="white"/>
<path d="M47.5663 38.4203V40.6583H49.8226C49.9279 41.0469 49.7549 41.1116 49.5142 41.1116H47.5738C47.4986 41.9104 47.5738 42.6588 47.5738 43.4288L49.988 43.6375C49.9966 43.726 49.9966 43.8151 49.988 43.9037H47.085V38.0173H49.9504L50.0256 38.1397C49.9203 38.2332 49.8151 38.3915 49.7022 38.3987C49.2886 38.3987 48.8749 38.3987 48.4613 38.3987L47.5663 38.4203Z" fill="white"/>
<path d="M78.0953 38.4842C76.8167 38.3475 76.8167 38.3475 76.6738 38.11C77.7793 37.9253 78.9076 37.901 80.0206 38.0381C79.9755 38.3547 79.9755 38.3547 78.6669 38.4698C78.6669 38.7217 78.6669 38.9807 78.6669 39.2398C78.6669 40.5567 78.6669 41.8736 78.6669 43.1904C78.6821 43.3882 78.6669 43.587 78.6217 43.7805C78.6217 43.8669 78.4112 43.9028 78.1705 44.0324C78.1103 43.0105 78.1705 42.1038 78.1705 41.1971C78.1705 40.2904 78.0953 39.4197 78.0953 38.4842Z" fill="white"/>
<path d="M90.1281 38.0665C89.6167 39.0092 89.1429 39.9159 88.6239 40.8082C88.4085 41.1741 88.3043 41.5903 88.3231 42.0099C88.3231 42.6216 88.3231 43.2404 88.3231 43.8593C87.9696 43.996 87.8192 43.9169 87.8117 43.6146C87.8117 43.0965 87.8117 42.5712 87.8117 42.0531C87.8311 41.607 87.7162 41.1649 87.4807 40.7794C86.9693 39.8943 86.4955 38.9876 85.9766 38.0809C86.3451 37.865 86.5256 38.0161 86.676 38.2968C86.9994 38.9444 87.3454 39.5849 87.6838 40.2253C87.7741 40.3908 87.8869 40.5491 88.0448 40.8082L89.3535 38.3615C89.5039 38.1384 89.6618 37.8722 90.1281 38.0665Z" fill="white"/>
</svg>
