<svg width="246" height="166" viewBox="0 0 246 166" fill="none" xmlns="http://www.w3.org/2000/svg">
<rect x="-0.5" y="0.5" width="245" height="165" rx="11.5" transform="matrix(-1 0 0 1 245 0)" fill="#202020" fill-opacity="0.25"/>
<path d="M42.707 93.1244C43.4224 92.9789 44.093 92.6777 44.6669 92.244C45.1874 91.7585 45.513 91.1135 45.587 90.4216C45.7802 89.4796 45.9275 88.4495 46.0379 87.3579C46.1483 86.2662 46.2035 85.1833 46.2219 84.1357C46.2403 83.088 46.2219 82.3309 46.2219 81.8643V67.4437C46.2219 66.9418 46.2219 66.2551 46.2219 65.3924C46.2219 64.5296 46.1391 63.6316 46.0379 62.7512C45.9404 61.9157 45.7898 61.0866 45.587 60.2686C45.4679 59.6564 45.1452 59.0974 44.6669 58.6751C44.1484 58.2931 43.5533 58.0174 42.9187 57.8651H67.3756V63.1474H67.0535C66.8164 62.3329 66.3747 61.5862 65.7669 60.9724C65.159 60.3586 64.4036 59.8963 63.5663 59.6259C62.5431 59.2856 61.4852 59.0495 60.4102 58.9216C59.1589 58.7191 57.8523 58.6398 56.5089 58.5342C55.1655 58.4286 53.8221 58.4198 52.534 58.4021H49.3319V76.8109H55.5244C56.3911 76.8216 57.2577 76.7804 58.1191 76.6877C58.7502 76.6279 59.3534 76.4092 59.8674 76.0538C60.3648 75.664 60.7325 75.1439 60.9255 74.5571C61.2146 73.7007 61.3938 72.8138 61.4592 71.916H61.7168V82.0844H61.4592C61.4576 81.0592 61.2221 80.0466 60.7691 79.1175C60.3602 78.449 59.7032 77.9524 58.9288 77.7265C57.8918 77.4225 56.8112 77.2769 55.7268 77.2951C54.4018 77.2951 52.7916 77.2951 50.8869 77.2951H49.3227V86.363C49.3227 86.9705 49.3227 87.6308 49.4331 88.3351C49.4932 89.017 49.6447 89.6887 49.884 90.3335C50.0837 90.9212 50.4168 91.4594 50.8593 91.9094C51.0804 92.1243 51.3439 92.2949 51.6346 92.4113C51.9253 92.5276 52.2373 92.5875 52.5524 92.5873C53.0492 92.5873 53.5553 92.6401 54.089 92.6401H55.782C57.1254 92.6401 58.5424 92.5873 59.987 92.4905C61.3765 92.4019 62.7522 92.1717 64.0907 91.8038C65.2725 91.4935 66.3855 90.9804 67.3756 90.2895C68.274 89.6503 68.8803 88.7044 69.0686 87.6484H69.4367V93.1684L42.707 93.1244Z" fill="white"/>
<path d="M73.4576 56.3522C74.5894 56.2553 75.6751 56.1673 76.7517 56.0968C77.8282 56.0264 78.8404 56 79.9721 56V86.2147C79.9721 86.9014 79.9721 87.6057 80.0549 88.31C80.1377 89.0143 80.1837 89.701 80.285 90.3348C80.3528 90.8416 80.4953 91.3366 80.7082 91.8051C80.9251 92.1532 81.2167 92.4533 81.5639 92.6855C81.8882 92.8922 82.2457 93.0468 82.6221 93.1433H74.0465C74.4382 93.037 74.8175 92.8925 75.1783 92.7119C75.5533 92.5225 75.8441 92.2099 75.9972 91.8315C76.2185 91.3659 76.3614 90.8696 76.4204 90.3613C76.537 89.6819 76.6169 88.9972 76.6597 88.31C76.7149 87.5881 76.7425 86.875 76.7425 86.1883V63.2631C76.7425 62.5764 76.7425 61.8545 76.6597 61.115C76.6174 60.419 76.5375 59.7255 76.4204 59.0373C76.3789 58.5873 76.2344 58.1514 75.9972 57.7608C75.9536 57.5626 75.8438 57.3834 75.6843 57.2501C75.5193 57.1107 75.3406 56.9869 75.1507 56.8804V56.8276C74.6264 56.522 74.0255 56.3577 73.4116 56.3522H73.4576Z" fill="white"/>
<path d="M90.342 81.0739C90.3434 82.5222 90.4696 83.968 90.7192 85.3966C90.9279 86.7425 91.3925 88.0405 92.0902 89.2262C92.7807 90.3533 93.7672 91.2881 94.9518 91.9378C96.4278 92.6865 98.0858 93.0451 99.7548 92.9766C101.636 92.9545 103.476 92.44 105.073 91.4888C106.808 90.5053 108.254 89.1183 109.278 87.4567H109.6C109.157 88.4355 108.534 89.3301 107.76 90.0978C107.01 90.8602 106.145 91.5101 105.193 92.0258C104.24 92.5549 103.215 92.9549 102.147 93.2143C101.103 93.4818 100.026 93.6179 98.9451 93.6193C97.1583 93.6501 95.3844 93.3232 93.7372 92.6597C92.2672 92.0653 90.9413 91.1869 89.8425 90.0795C88.7437 88.9721 87.8957 87.6596 87.3516 86.2241C86.7837 84.7502 86.497 83.1906 86.505 81.6197C86.4995 80.0331 86.7414 78.4545 87.2227 76.9361C87.6764 75.4739 88.413 74.1061 89.3942 72.904C90.3854 71.7089 91.6428 70.7404 93.0747 70.0691C94.7098 69.33 96.5023 68.9653 98.3103 69.0039C100.017 68.9899 101.704 69.3608 103.233 70.0867C104.613 70.7276 105.845 71.6255 106.858 72.7279C107.859 73.8608 108.625 75.1668 109.113 76.5751C109.618 78.0153 109.894 79.52 109.931 81.0387L90.342 81.0739ZM98.5495 69.5233C97.2169 69.4771 95.9111 69.8894 94.869 70.6854C93.8754 71.5013 93.0567 72.4939 92.4583 73.6083C91.8295 74.7538 91.3505 75.9691 91.0321 77.2266C90.7487 78.3371 90.5367 79.4632 90.3972 80.5985H106.38C106.325 79.4826 106.178 78.3728 105.938 77.2794C105.68 76.0054 105.244 74.7706 104.641 73.6083C104.061 72.4925 103.25 71.5011 102.258 70.6942C101.218 69.8901 99.9129 69.4685 98.5771 69.5057" fill="white"/>
<path d="M120.094 69.5756C119.802 69.6209 119.523 69.7222 119.273 69.8735C119.023 70.0248 118.808 70.223 118.64 70.456C118.361 70.9531 118.224 71.512 118.244 72.0759C118.291 72.9737 118.461 73.8618 118.75 74.7171C119.118 75.955 119.551 77.1744 120.048 78.3706C120.572 79.6648 121.152 81.0118 121.787 82.4204C122.422 83.829 123.029 85.1232 123.627 86.3205C124.225 87.5178 124.694 88.5655 125.136 89.4546C125.578 90.3438 125.872 90.9689 126.01 91.3034C126.222 90.696 126.544 89.8772 126.93 88.8472C127.317 87.8171 127.85 86.6902 128.356 85.4577C128.863 84.2252 129.433 82.9398 129.994 81.6104C130.556 80.2811 131.089 78.9693 131.586 77.8072C132.083 76.6451 132.506 75.527 132.828 74.541C133.099 73.7991 133.302 73.0362 133.436 72.2608C133.479 72.0457 133.476 71.8242 133.425 71.6104C133.374 71.3967 133.278 71.1954 133.141 71.0195C132.87 70.6938 132.515 70.4418 132.111 70.2887C131.656 70.1136 131.188 69.9694 130.712 69.8574C130.197 69.7429 129.792 69.6285 129.359 69.5316L137.99 69.5756C136.506 70.2132 135.336 71.3736 134.724 72.8154C133.828 74.5175 132.816 76.7273 131.687 79.4447L125.973 93.2755H122.955L115.594 76.4074C115.309 75.7647 115.024 75.0956 114.748 74.3825C114.465 73.6839 114.126 73.007 113.736 72.3576C113.356 71.7253 112.885 71.1474 112.337 70.6409C111.766 70.1196 111.062 69.7521 110.294 69.5756H120.094Z" fill="white"/>
<path d="M138.892 85.9861C138.894 84.9852 139.177 84.0031 139.711 83.1425C140.295 82.1962 141.09 81.3846 142.039 80.7655C143.164 80.0342 144.407 79.4867 145.72 79.1456C147.285 78.7248 148.906 78.5202 150.532 78.5381C152.084 78.539 153.625 78.7951 155.086 79.2952V77.376C155.084 76.4438 155.032 75.5123 154.93 74.5852C154.834 73.6945 154.592 72.8239 154.212 72.0057C153.846 71.2272 153.26 70.5623 152.519 70.0864C151.602 69.5611 150.542 69.3069 149.474 69.3557C148.44 69.258 147.408 69.5484 146.594 70.1657C146.027 70.6686 145.559 71.265 145.214 71.9264C144.882 72.5867 144.551 73.1942 144.238 73.7488C144.075 74.0366 143.829 74.273 143.528 74.4293C143.228 74.5856 142.886 74.655 142.545 74.6292C142.329 74.6586 142.109 74.6395 141.901 74.5733C141.694 74.5072 141.506 74.3958 141.352 74.2481C141.197 74.1003 141.081 73.9202 141.012 73.7221C140.943 73.5239 140.923 73.313 140.953 73.1061C140.952 72.7241 141.047 72.3474 141.232 72.0085C141.416 71.6696 141.684 71.3786 142.011 71.1605C142.772 70.6105 143.62 70.1824 144.523 69.8928C145.496 69.5761 146.497 69.3462 147.514 69.2061C148.321 69.0897 149.136 69.022 149.952 69.0036C151.049 69.0012 152.139 69.1646 153.182 69.4878C154.221 69.8197 155.19 70.3265 156.043 70.9844C156.868 71.7266 157.477 72.661 157.81 73.696C158.148 74.7182 158.319 75.7844 158.316 76.8566L158.261 85.9773C158.261 86.3823 158.261 86.8577 158.261 87.4211C158.261 87.9846 158.261 88.5392 158.344 89.1115C158.369 89.6547 158.43 90.1957 158.528 90.7314C158.582 91.1353 158.697 91.5296 158.868 91.9023C159.02 92.2729 159.299 92.5832 159.659 92.7827C160.008 92.9631 160.384 93.0908 160.773 93.1612H150.651C146.634 93.1964 143.662 92.5127 141.735 91.1099C140.861 90.5483 140.141 89.7917 139.64 88.9053C139.138 88.019 138.869 87.0293 138.855 86.0213M150.918 78.9783C149.492 78.9326 148.07 79.1662 146.741 79.665C145.741 80.0585 144.845 80.66 144.119 81.4257C143.494 82.0885 143.031 82.8766 142.766 83.7323C142.531 84.4809 142.407 85.2574 142.398 86.0389C142.406 86.8071 142.52 87.571 142.738 88.3103C142.978 89.1386 143.412 89.9035 144.008 90.5465C144.71 91.2721 145.571 91.8403 146.529 92.2104C147.843 92.6945 149.245 92.9191 150.651 92.8707C151.185 92.8707 151.792 92.8707 152.492 92.7739C153.093 92.7405 153.662 92.5069 154.102 92.1136C154.314 91.7252 154.457 91.3056 154.525 90.8722C154.643 90.3113 154.723 89.7438 154.764 89.1731C154.82 88.5862 154.866 87.9699 154.902 87.3243C154.902 86.6992 154.948 86.1534 154.948 85.678L155.004 79.6034C154.507 79.4713 153.927 79.3304 153.255 79.1984C152.489 79.0561 151.709 78.9883 150.928 78.9959" fill="white"/>
<path d="M161.805 69.875V69.3732C163.174 69.3727 164.527 69.0873 165.77 68.5368C166.654 68.105 167.403 67.4582 167.942 66.6616C168.436 65.8801 168.75 65.0066 168.862 64.0997C169.009 63.1577 169.129 62.1981 169.239 61.212H169.975V69.1355H177.07V69.8926H169.975V89.3754C169.889 90.1829 170.111 90.993 170.601 91.6556C170.792 91.8652 171.029 92.0328 171.294 92.1467C171.559 92.2607 171.847 92.3184 172.138 92.3159C172.615 92.3027 173.084 92.1979 173.518 92.0078C174.026 91.8126 174.501 91.5455 174.926 91.2154C175.343 90.8903 175.716 90.5178 176.039 90.1061C176.345 89.7331 176.562 89.3003 176.674 88.8384L177.097 89.1905C176.624 90.1293 176.003 90.9933 175.257 91.7525C174.719 92.2791 174.098 92.7217 173.417 93.0642C172.891 93.3361 172.317 93.5095 171.724 93.5748C171.181 93.6189 170.675 93.6453 170.215 93.6453C169.651 93.7094 169.081 93.6113 168.576 93.3635C168.071 93.1157 167.655 92.7295 167.381 92.2543C166.894 91.2824 166.651 90.2152 166.672 89.1377V69.875H161.805Z" fill="white"/>
<path d="M184.621 81.0729C184.62 82.521 184.743 83.9668 184.989 85.3956C185.205 86.7411 185.673 88.0384 186.37 89.2253C187.057 90.352 188.04 91.2869 189.222 91.9368C190.688 92.6783 192.332 93.0366 193.988 92.9757C195.87 92.9563 197.71 92.4415 199.307 91.4878C201.044 90.5055 202.494 89.1184 203.521 87.4557H203.834C203.388 88.433 202.765 89.3272 201.993 90.0968C201.24 90.8552 200.375 91.5046 199.426 92.0249C198.47 92.5562 197.442 92.9591 196.371 93.2222C195.327 93.4896 194.251 93.6258 193.169 93.6272C191.38 93.6576 189.603 93.3308 187.952 92.6675C186.498 92.0629 185.189 91.18 184.105 90.0732C183.022 88.9665 182.186 87.6593 181.649 86.232C181.082 84.758 180.795 83.1985 180.803 81.6276C180.797 80.0409 181.039 78.4623 181.521 76.9439C181.971 75.4803 182.707 74.1119 183.692 72.9118C184.682 71.7158 185.94 70.7472 187.373 70.077C189.011 69.3368 190.806 68.9721 192.617 69.0117C194.314 69.0011 195.99 69.3688 197.512 70.0858C198.889 70.7312 200.121 71.6285 201.138 72.7269C202.136 73.8604 202.898 75.1663 203.383 76.5742C203.897 78.0122 204.173 79.5181 204.202 81.0377L184.621 81.0729ZM192.829 69.5223C191.496 69.4714 190.188 69.8842 189.148 70.6844C188.149 71.4951 187.329 72.4889 186.738 73.6073C186.114 74.7409 185.641 75.9446 185.33 77.1904C185.038 78.2991 184.826 79.4257 184.695 80.5623H200.678C200.619 79.4463 200.469 78.3365 200.227 77.2433C199.96 75.9805 199.517 74.7576 198.911 73.6073C198.337 72.4878 197.526 71.4952 196.528 70.6932C195.492 69.8835 194.184 69.4612 192.847 69.5047" fill="white"/>
<path d="M88.028 102.458C88.7273 102.458 89.3898 102.458 90.0522 102.458C90.3874 102.421 90.7262 102.486 91.0203 102.644C91.3144 102.803 91.5488 103.046 91.6901 103.339C91.8668 103.663 91.9529 104.026 91.94 104.391C91.9271 104.757 91.8157 105.113 91.6165 105.425C91.4551 105.632 91.2766 105.826 91.0828 106.006C91.4883 106.295 91.7889 106.699 91.9424 107.16C92.0959 107.621 92.0945 108.117 91.9385 108.577C91.8639 108.922 91.6662 109.232 91.3793 109.454C91.0923 109.676 90.7338 109.795 90.3651 109.792C89.6106 109.792 88.8469 109.792 88.1016 109.792C87.8772 107.353 87.8526 104.901 88.028 102.458ZM88.6444 109.228H89.5646C89.7852 109.242 90.0065 109.242 90.2271 109.228C90.9816 109.14 91.3496 108.674 91.3588 107.811C91.368 106.948 90.9908 106.42 90.2731 106.35C89.7275 106.323 89.1808 106.323 88.6353 106.35L88.6444 109.228ZM88.6444 103.013V105.733C89.1655 105.76 89.6876 105.76 90.2087 105.733C90.908 105.654 91.2852 105.126 91.2668 104.342C91.2484 103.559 90.862 103.083 90.1259 103.031C89.6382 102.986 89.1873 103.013 88.6444 103.013Z" fill="white"/>
<path d="M114.335 102.562L116.489 109.702C115.771 109.984 115.789 109.482 115.67 109.138C115.55 108.795 115.449 108.443 115.32 108.056H112.642C112.385 108.654 112.136 109.226 111.86 109.816C111.86 109.86 111.64 109.816 111.538 109.816C111.437 109.816 111.446 109.649 111.456 109.605C112.118 107.422 112.79 105.203 113.425 103.055C113.563 102.5 113.774 102.342 114.335 102.562ZM114.023 103.442H113.839L112.698 107.369H115.173C114.777 105.978 114.4 104.71 114.023 103.434V103.442Z" fill="white"/>
<path d="M128.563 102.51V104.271C128.563 105.485 128.563 106.7 128.563 107.906C128.562 108.19 128.5 108.471 128.382 108.732C128.264 108.992 128.093 109.227 127.877 109.423C127.662 109.618 127.407 109.77 127.129 109.869C126.851 109.967 126.555 110.011 126.258 109.998C125.962 109.984 125.671 109.913 125.404 109.789C125.137 109.665 124.899 109.491 124.705 109.276C124.51 109.062 124.362 108.812 124.271 108.542C124.18 108.272 124.147 107.987 124.174 107.704C124.174 106.674 124.174 105.644 124.174 104.614C124.174 104.042 124.174 103.461 124.174 102.853C124.174 102.607 124.174 102.607 124.772 102.448V103.329C124.772 104.605 124.772 105.873 124.772 107.149C124.773 107.541 124.826 107.932 124.929 108.311C125.011 108.608 125.196 108.869 125.453 109.053C125.711 109.237 126.025 109.332 126.346 109.324C126.667 109.351 126.988 109.271 127.254 109.098C127.521 108.925 127.717 108.669 127.809 108.373C127.916 108.027 127.969 107.668 127.965 107.308C127.965 105.882 127.965 104.455 127.965 103.029C127.947 102.783 127.873 102.422 128.563 102.51Z" fill="white"/>
<path d="M100.901 103.004V105.742H103.661C103.79 106.217 103.578 106.297 103.284 106.297H100.91C100.818 107.274 100.91 108.189 100.91 109.131L103.864 109.387C103.874 109.495 103.874 109.604 103.864 109.713H100.312V102.511H103.818L103.91 102.661C103.781 102.775 103.652 102.969 103.514 102.978C103.008 102.978 102.502 102.978 101.996 102.978L100.901 103.004Z" fill="white"/>
<path d="M138.251 103.082C136.687 102.915 136.687 102.915 136.512 102.625C137.864 102.399 139.245 102.369 140.606 102.537C140.551 102.924 140.551 102.924 138.95 103.065C138.95 103.373 138.95 103.69 138.95 104.007C138.95 105.618 138.95 107.229 138.95 108.84C138.969 109.082 138.95 109.325 138.895 109.562C138.895 109.668 138.637 109.712 138.343 109.87C138.269 108.62 138.343 107.511 138.343 106.401C138.343 105.292 138.251 104.227 138.251 103.082Z" fill="white"/>
<path d="M152.971 102.571C152.345 103.725 151.765 104.834 151.13 105.925C150.867 106.373 150.739 106.882 150.762 107.396C150.762 108.144 150.762 108.901 150.762 109.658C150.33 109.826 150.146 109.729 150.137 109.359C150.137 108.725 150.137 108.082 150.137 107.449C150.16 106.903 150.02 106.362 149.732 105.89C149.106 104.807 148.526 103.698 147.892 102.589C148.342 102.325 148.563 102.51 148.747 102.853C149.143 103.645 149.566 104.429 149.98 105.212C150.091 105.415 150.229 105.609 150.422 105.925L152.023 102.932C152.207 102.659 152.4 102.334 152.971 102.571Z" fill="white"/>
<rect x="-0.5" y="0.5" width="245" height="165" rx="11.5" transform="matrix(-1 0 0 1 245 0)" stroke="#262728"/>
</svg>
