<svg width="95" height="55" viewBox="0 0 95 55" fill="none" xmlns="http://www.w3.org/2000/svg">
<path d="M89.1663 37.3989H87.5653V43.4819H88.8848C90.1269 43.4819 90.8778 42.9647 90.8778 41.387V39.4369C90.8778 38.0196 90.3643 37.3989 89.1884 37.3989M94.5932 54.3756H91.2145C91.0323 53.8584 90.9109 53.5584 90.9109 51.9445V48.8253C90.9109 46.989 90.2429 46.3062 88.7357 46.3062H87.5874V54.3756H84.2749V34.5694H89.2878C92.7327 34.5694 94.2123 36.0695 94.2123 39.1265V40.6783C94.2123 42.7112 93.5167 44.0147 92.0371 44.6665V44.7234C93.6934 45.3752 94.2454 46.8442 94.2454 48.9133V51.9652C94.184 52.7816 94.3063 53.6011 94.6043 54.3705M76.6893 38.0765L75.1214 48.096H78.3235L76.739 38.0765H76.6893ZM79.3172 34.5694L82.7015 54.3756H79.3503L78.7983 50.7858H74.6963L74.1442 54.3756H71.0968L74.4589 34.5694H79.3172ZM61.3746 37.3989V34.5694H71.6488V37.3989H68.1707V54.3756H64.8583V37.3989H61.3746ZM50.6257 39.3231C50.6257 36.1522 52.2819 34.3418 55.5171 34.3418C58.7523 34.3418 60.4085 36.1522 60.4085 39.3231V39.9438H57.2672V39.1265C57.2672 37.7092 56.6654 37.1713 55.6109 37.1713C54.5565 37.1713 53.9547 37.6885 53.9547 39.1265C53.9547 40.5645 54.6227 41.6405 56.7979 43.425C59.5583 45.7166 60.4527 47.3615 60.4527 49.6323C60.4527 52.8031 58.7578 54.6136 55.484 54.6136C52.2101 54.6136 50.5152 52.8031 50.5152 49.6323V48.4064H53.6566V49.8237C53.6566 51.2358 54.3246 51.7479 55.3791 51.7479C56.4335 51.7479 57.1016 51.2306 57.1016 49.8237C57.1016 48.4167 56.4391 47.3046 54.2639 45.52C51.5035 43.2285 50.6091 41.5887 50.6091 39.3128M38.5738 37.3989V42.9181H43.1339V45.7476H38.5738V51.5462H44.3099V54.3756H35.2503V34.5694H44.3099V37.3989H38.5738ZM29.4479 54.3756L25.3956 40.0318H25.3349V54.3756H22.3206V34.5694H26.4998L29.8564 46.4252H29.9117V34.5694H32.8763V54.3756H29.4479ZM10.1251 49.6219V39.3231C10.1196 36.1522 11.9028 34.3418 15.1601 34.3418C18.4174 34.3418 20.2061 36.1522 20.2061 39.3231V49.6219C20.2061 52.7928 18.4229 54.6032 15.1601 54.6032C11.8973 54.6032 10.1196 52.7928 10.1196 49.6219M13.4321 39.1265V49.8237C13.4321 51.2358 14.0946 51.7738 15.1491 51.7738C16.2035 51.7738 16.8715 51.2565 16.8715 49.8237V39.1265C16.8715 37.7092 16.209 37.1713 15.1491 37.1713C14.0891 37.1713 13.4321 37.6885 13.4321 39.1265ZM3.31248 37.3989V43.3682H7.60213V46.1976H3.31248V54.3756H0V34.5694H8.7891V37.3989H3.31248Z" fill="white"/>
<path d="M47.2748 22.6099L40.5118 26.5566L42.3834 19.4545L37.906 29.8878L47.2748 22.6099ZM41.8147 17.5199L35.6425 12.6679L43.6421 12.1817L31.4688 11.4265L41.8147 17.5199ZM54.1592 19.4545L56.0308 26.5566L49.2678 22.6099L58.6531 29.8878L54.1592 19.4545ZM65.0738 11.4265L52.9281 12.1817L60.9277 12.6679L54.7278 17.5199L65.0738 11.4265ZM48.263 4.09678L45.2707 11.0954L48.2575 0L51.2663 11.1109L48.263 4.09678Z" fill="white"/>
</svg>
