<svg width="246" height="166" viewBox="0 0 246 166" fill="none" xmlns="http://www.w3.org/2000/svg">
<rect x="-0.5" y="0.5" width="245" height="165" rx="11.5" transform="matrix(-1 0 0 1 245 0)" fill="#202020" fill-opacity="0.25"/>
<path d="M162.1 91.6597H160.616V97.2972H161.839C162.99 97.2972 163.686 96.8179 163.686 95.3557V93.5485C163.686 92.235 163.21 91.6597 162.12 91.6597M167.129 107.393H163.998C163.829 106.914 163.717 106.636 163.717 105.14V102.249C163.717 100.547 163.098 99.9147 161.701 99.9147H160.637V107.393H157.567V89.0375H162.213C165.405 89.0375 166.776 90.4277 166.776 93.2608V94.699C166.776 96.583 166.132 97.791 164.761 98.395V98.4478C166.295 99.0518 166.807 100.413 166.807 102.331V105.159C166.75 105.916 166.863 106.675 167.14 107.388M150.537 92.2877L149.084 101.573H152.051L150.583 92.2877H150.537ZM152.972 89.0375L156.109 107.393H153.003L152.491 104.066H148.69L148.178 107.393H145.354L148.47 89.0375H152.972ZM136.344 91.6597V89.0375H145.866V91.6597H142.642V107.393H139.572V91.6597H136.344ZM126.382 93.443C126.382 90.5044 127.917 88.8265 130.915 88.8265C133.913 88.8265 135.448 90.5044 135.448 93.443V94.0183H132.537V93.2608C132.537 91.9473 131.979 91.4488 131.002 91.4488C130.025 91.4488 129.467 91.9282 129.467 93.2608C129.467 94.5935 130.086 95.5906 132.102 97.2445C134.66 99.3682 135.489 100.893 135.489 102.997C135.489 105.936 133.919 107.614 130.885 107.614C127.851 107.614 126.28 105.936 126.28 102.997V101.861H129.191V103.174C129.191 104.483 129.81 104.958 130.787 104.958C131.765 104.958 132.384 104.478 132.384 103.174C132.384 101.871 131.77 100.84 129.754 99.186C127.196 97.0624 126.367 95.5427 126.367 93.4334M115.213 91.6597V96.7747H119.439V99.397H115.213V104.771H120.529V107.393H112.133V89.0375H120.529V91.6597H115.213ZM106.755 107.393L103 94.0998H102.944V107.393H100.15V89.0375H104.023L107.134 100.025H107.185V89.0375H109.933V107.393H106.755ZM88.8479 102.988V93.443C88.8428 90.5044 90.4954 88.8265 93.5141 88.8265C96.5328 88.8265 98.1905 90.5044 98.1905 93.443V102.988C98.1905 105.926 96.5379 107.604 93.5141 107.604C90.4903 107.604 88.8428 105.926 88.8428 102.988M91.9127 93.2608V103.174C91.9127 104.483 92.5266 104.982 93.5039 104.982C94.4811 104.982 95.1002 104.502 95.1002 103.174V93.2608C95.1002 91.9473 94.4862 91.4488 93.5039 91.4488C92.5215 91.4488 91.9127 91.9282 91.9127 93.2608ZM82.5342 91.6597V97.1918H86.5097V99.814H82.5342V107.393H79.4644V89.0375H87.6097V91.6597H82.5342Z" fill="white"/>
<path d="M123.277 77.9539L117.009 81.6116L118.744 75.0296L114.594 84.6988L123.277 77.9539ZM118.217 73.2367L112.496 68.7401L119.91 68.2895L108.628 67.5896L118.217 73.2367ZM129.657 75.0296L131.391 81.6116L125.124 77.9539L133.822 84.6988L129.657 75.0296ZM139.772 67.5896L128.516 68.2895L135.93 68.7401L130.184 73.2367L139.772 67.5896ZM124.193 60.7967L121.42 67.2828L124.188 57L126.976 67.2972L124.193 60.7967Z" fill="white"/>
<rect x="-0.5" y="0.5" width="245" height="165" rx="11.5" transform="matrix(-1 0 0 1 245 0)" stroke="#262728"/>
</svg>
