<svg width="243" height="166" viewBox="0 0 243 166" fill="none" xmlns="http://www.w3.org/2000/svg">
<rect x="-0.5" y="0.5" width="242" height="165" rx="11.5" transform="matrix(-1 0 0 1 242 0)" fill="#202020" fill-opacity="0.25"/>
<path d="M190.295 98.9725L202.283 82.9809C206.372 77.5338 210.465 72.0896 214.561 66.6482C214.673 66.4944 214.817 66.3637 214.984 66.264C215.152 66.1642 215.339 66.0976 215.535 66.0682C218.958 66.0682 222.38 66.0682 225.802 66.145C225.884 66.145 225.966 66.1876 226.157 66.2303C224.992 67.7911 223.873 69.3007 222.735 70.8103C215.836 79.993 208.924 89.1758 202 98.3585C201.88 98.5232 201.725 98.6633 201.545 98.7704C201.365 98.8774 201.164 98.9491 200.954 98.9811C197.568 99.0237 194.173 98.9811 190.778 98.9811H190.295" fill="white"/>
<path d="M41.7564 90.9382L43.6678 87.1684C47.8275 87.6546 50.6946 84.678 49.9028 80.6694C49.7522 79.8834 49.4728 79.1238 49.0744 78.4178C48.7379 77.6851 48.1706 77.0662 47.4483 76.644C46.7261 76.2218 45.8834 76.0164 45.0331 76.0553C44.1247 76.1209 43.2583 76.4405 42.5459 76.9727C41.8335 77.5049 41.308 78.2252 41.0373 79.0404C40.5666 80.0714 40.3744 81.1952 40.4776 82.3124C40.5808 83.4296 40.9762 84.5057 41.6289 85.4456C41.697 85.5685 41.7363 85.7036 41.7442 85.8418C41.752 85.9801 41.7282 86.1183 41.6744 86.2473C41.0373 87.4157 40.3365 88.5501 39.6083 89.7782C38.0794 88.7729 36.8888 87.3791 36.1768 85.7611C35.3434 83.9237 35.0941 81.8999 35.4591 79.9329C35.824 77.966 36.7876 76.1396 38.2339 74.6736C39.1655 73.7374 40.3032 73.0022 41.5683 72.5191C42.8333 72.0359 44.1954 71.8163 45.56 71.8755C46.9247 71.9348 48.2592 72.2714 49.4712 72.8621C50.6831 73.4527 51.7435 74.2833 52.5788 75.2962C53.5573 76.4359 54.2616 77.7602 54.6435 79.1785C55.0254 80.5968 55.0759 82.0756 54.7916 83.5139C54.5072 84.9521 53.8948 86.3159 52.996 87.5119C52.0972 88.7079 50.9334 89.7078 49.5842 90.4435C48.3969 91.0552 47.082 91.4179 45.7304 91.5062C44.3788 91.5946 43.0228 91.4066 41.7564 90.9552" fill="white"/>
<path d="M113.3 73.0275H118.406V74.0083C118.406 77.7013 118.406 81.3943 118.406 85.0959C118.406 86.5031 119.316 87.356 120.955 87.6545C122.593 87.953 124.186 87.2877 124.659 86.1193C124.799 85.7496 124.87 85.3601 124.868 84.9679C124.868 81.3346 124.868 77.7013 124.868 74.068V73.0275H130.002V73.9827C130.002 77.5904 129.947 81.1981 130.002 84.8059C130.09 86.0827 129.737 87.3521 128.996 88.427C128.256 89.5019 127.166 90.3254 125.888 90.7761C124.287 91.5151 122.5 91.8266 120.722 91.6761C118.945 91.5256 117.246 90.9191 115.812 89.9232C115.027 89.4423 114.384 88.784 113.941 88.0089C113.499 87.2339 113.272 86.367 113.282 85.4882C113.282 81.3431 113.282 77.1981 113.282 72.9849" fill="white"/>
<path d="M16 72.6697H29.6714V76.7464H20.7786L20.7422 84.7721L29.0615 81.1218V84.7721H20.7422V91.0323H16V72.6697Z" fill="white"/>
<path d="M106.064 72.8829V90.9385H101.203V80.9086L100.976 80.8574C99.0279 84.2689 97.0891 87.6805 95.0685 91.2626C94.2766 89.9833 93.5484 88.8319 92.8748 87.6549C92.8038 87.4235 92.8333 87.1752 92.9568 86.9641C95.384 82.4154 97.8112 77.8666 100.238 73.3179C100.306 73.2049 100.4 73.1077 100.514 73.0338C100.627 72.9599 100.757 72.9113 100.894 72.8915C102.578 72.8915 104.253 72.8915 106.055 72.8915" fill="white"/>
<path d="M164.672 72.6526C167.93 78.9128 171.125 85.028 174.393 91.2967C172.782 91.2967 171.307 91.2967 169.842 91.2967C169.632 91.2967 169.314 90.9726 169.25 90.7509C168.731 88.9683 167.43 88.4565 165.609 88.7295C164.864 88.7771 164.116 88.7771 163.37 88.7295C163.953 87.5269 164.408 86.4096 165.045 85.3862C165.227 85.1047 165.955 85.1218 166.492 84.9768C165.901 83.8083 165.291 82.6143 164.608 81.2838C163.243 83.8424 161.786 86.2903 160.685 88.8319C159.893 90.6485 158.865 91.544 156.717 91.1432C156.093 91.0866 155.465 91.0866 154.842 91.1432L164.645 72.6782" fill="white"/>
<path d="M88.7517 80.9936V90.8785H83.791V72.7632C85.6114 72.7632 87.35 72.7632 89.1067 72.7632C89.2978 72.7632 89.5527 73.0276 89.6619 73.2237C90.9058 75.572 92.1194 77.9317 93.3027 80.3027C93.416 80.5594 93.416 80.8477 93.3027 81.1044C92.6929 82.3411 92.0284 83.5607 91.3094 84.9083C90.4629 83.5181 89.6619 82.2302 88.87 80.9338L88.6697 80.9765" fill="white"/>
<path d="M141.853 87.2201H150.309V91.0495H137.057V73.1304H141.853V87.2201Z" fill="white"/>
<path d="M73.1233 84.5674L77.11 90.9555C75.3351 90.9555 73.6967 90.9555 72.0492 90.9555C71.849 90.9555 71.5851 90.7167 71.4667 90.5291C70.4352 88.8745 69.4248 87.2113 68.4357 85.5397C68.3001 85.3186 68.2251 85.0696 68.2173 84.8148C68.2173 83.6463 68.2173 82.4779 68.2173 81.2582C69.3915 81.045 70.7204 81.1473 71.403 80.0556C71.6479 79.5393 71.7391 78.9705 71.667 78.4096C71.6123 77.3264 70.7022 76.8573 68.3811 76.6185V72.8232C71.5122 72.0982 75.1713 73.5822 76.2726 76.0982C77.0225 77.6186 77.1143 79.3522 76.5287 80.9347C75.9431 82.5172 74.7258 83.8254 73.1324 84.5845" fill="white"/>
<path d="M65.6418 72.7545H60.7268V90.9551H65.6418V72.7545Z" fill="white"/>
<path d="M225.256 98.9895H215.299L225.256 86.0256V98.9895Z" fill="white"/>
<path d="M191.313 79.0577V66H201.08L191.313 79.0577Z" fill="white"/>
<rect x="-0.5" y="0.5" width="242" height="165" rx="11.5" transform="matrix(-1 0 0 1 242 0)" stroke="#262728"/>
</svg>
