<svg width="128" height="21" viewBox="0 0 128 21" fill="none" xmlns="http://www.w3.org/2000/svg">
<path d="M106.039 20.06L113.332 10.331C115.82 7.01701 118.31 3.70482 120.802 0.394341C120.87 0.300806 120.958 0.221259 121.06 0.160584C121.162 0.0999085 121.276 0.0593886 121.395 0.0415039C123.477 0.0415039 125.559 0.0414862 127.641 0.0881858C127.691 0.0881858 127.741 0.114149 127.857 0.140093C127.148 1.08965 126.467 2.00807 125.775 2.9265C121.578 8.51315 117.373 14.0998 113.16 19.6865C113.087 19.7867 112.993 19.8719 112.883 19.937C112.774 20.0021 112.652 20.0458 112.524 20.0652C110.464 20.0912 108.398 20.0652 106.333 20.0652H106.039" fill="white"/>
<path d="M15.6699 15.172L16.8328 12.8786C19.3634 13.1743 21.1078 11.3634 20.626 8.92468C20.5344 8.44644 20.3644 7.98435 20.1221 7.55481C19.9173 7.10905 19.5722 6.73252 19.1328 6.47565C18.6934 6.21878 18.1807 6.09382 17.6634 6.11749C17.1107 6.15742 16.5836 6.35187 16.1502 6.67565C15.7168 6.99943 15.3971 7.43764 15.2324 7.93359C14.9461 8.56083 14.8291 9.24454 14.8919 9.92422C14.9546 10.6039 15.1952 11.2586 15.5923 11.8304C15.6338 11.9052 15.6577 11.9874 15.6624 12.0715C15.6672 12.1556 15.6527 12.2397 15.62 12.3182C15.2324 13.029 14.806 13.7192 14.363 14.4664C13.4329 13.8547 12.7085 13.0068 12.2753 12.0224C11.7683 10.9046 11.6167 9.67328 11.8387 8.47661C12.0607 7.27993 12.6469 6.16882 13.5268 5.2769C14.0936 4.70731 14.7858 4.26005 15.5554 3.96611C16.3251 3.67216 17.1538 3.53857 17.984 3.5746C18.8142 3.61063 19.6261 3.81543 20.3634 4.17478C21.1008 4.53414 21.7459 5.03943 22.2541 5.65568C22.8494 6.34905 23.2779 7.15474 23.5102 8.01761C23.7426 8.88048 23.7733 9.78018 23.6003 10.6552C23.4273 11.5302 23.0547 12.3599 22.5079 13.0875C21.9611 13.8152 21.2531 14.4235 20.4322 14.8711C19.7099 15.2433 18.9099 15.4639 18.0876 15.5176C17.2653 15.5714 16.4403 15.457 15.6699 15.1824" fill="white"/>
<path d="M59.1958 4.27545H62.3024V4.87218C62.3024 7.11895 62.3024 9.36572 62.3024 11.6177C62.3024 12.4738 62.8562 12.9927 63.8529 13.1743C64.8497 13.3559 65.8188 12.9512 66.1067 12.2403C66.1918 12.0154 66.2349 11.7785 66.2341 11.5398C66.2341 9.32938 66.2341 7.11892 66.2341 4.90847V4.27545H69.3573V4.8566C69.3573 7.05148 69.3241 9.24636 69.3573 11.4412C69.4105 12.2181 69.196 12.9904 68.7454 13.6443C68.2947 14.2983 67.6318 14.7992 66.8543 15.0734C65.8803 15.5231 64.7929 15.7125 63.7114 15.621C62.63 15.5295 61.5964 15.1605 60.7242 14.5545C60.2465 14.262 59.8552 13.8615 59.5862 13.3899C59.3171 12.9184 59.1791 12.391 59.1847 11.8563C59.1847 9.33456 59.1847 6.8128 59.1847 4.24951" fill="white"/>
<path d="M0 4.05786H8.31747V6.53811H2.90723L2.88506 11.4208L7.94643 9.19999V11.4208H2.88506V15.2294H0V4.05786Z" fill="white"/>
<path d="M54.7932 4.1875V15.1723H51.8361V9.07019L51.6976 9.03906C50.5126 11.1146 49.3331 13.1901 48.1038 15.3695C47.622 14.5911 47.179 13.8906 46.7692 13.1746C46.726 13.0338 46.7439 12.8827 46.819 12.7543C48.2957 9.9869 49.7724 7.21952 51.2491 4.45214C51.2902 4.38336 51.3474 4.32423 51.4165 4.27928C51.4856 4.23433 51.5647 4.20473 51.6478 4.19269C52.6722 4.19269 53.6912 4.19269 54.7876 4.19269" fill="white"/>
<path d="M90.4493 4.04736C92.4318 7.85597 94.3755 11.5764 96.3635 15.3902C95.3833 15.3902 94.4862 15.3902 93.5947 15.3902C93.4673 15.3902 93.2735 15.193 93.2348 15.0581C92.9191 13.9736 92.1272 13.6623 91.0197 13.8283C90.5662 13.8573 90.111 13.8573 89.6575 13.8283C90.0119 13.0967 90.2888 12.417 90.6764 11.7943C90.7872 11.6231 91.2301 11.6335 91.5569 11.5452C91.1969 10.8344 90.8259 10.1079 90.4106 9.29847C89.5799 10.8551 88.6939 12.3443 88.0239 13.8906C87.5421 14.9958 86.9164 15.5406 85.6095 15.2968C85.2301 15.2624 84.8481 15.2624 84.4688 15.2968L90.4327 4.06295" fill="white"/>
<path d="M44.2612 9.12199V15.1358H41.2432V4.11475C42.3507 4.11475 43.4084 4.11475 44.4771 4.11475C44.5934 4.11475 44.7485 4.27559 44.8149 4.39493C45.5717 5.82359 46.3101 7.2592 47.03 8.7017C47.0989 8.85787 47.0989 9.03325 47.03 9.18942C46.6589 9.9418 46.2547 10.6838 45.8172 11.5037C45.3022 10.6579 44.8149 9.87437 44.3331 9.08567L44.2113 9.1116" fill="white"/>
<path d="M76.5677 12.9099H81.7121V15.2397H73.6494V4.33789H76.5677V12.9099Z" fill="white"/>
<path d="M34.7533 11.2961L37.1788 15.1825C36.099 15.1825 35.1022 15.1825 34.0999 15.1825C33.978 15.1825 33.8175 15.0372 33.7455 14.9231C33.1179 13.9164 32.5032 12.9046 31.9015 11.8876C31.819 11.7531 31.7733 11.6016 31.7686 11.4465C31.7686 10.7357 31.7686 10.0248 31.7686 9.28279C32.4829 9.15307 33.2914 9.21531 33.7067 8.55114C33.8557 8.23703 33.9112 7.89098 33.8673 7.5497C33.8341 6.89072 33.2803 6.60534 31.8682 6.46006V4.15102C33.7732 3.70996 35.9993 4.6128 36.6693 6.14351C37.1255 7.0685 37.1814 8.12319 36.8251 9.08596C36.4689 10.0487 35.7282 10.8446 34.7588 11.3064" fill="white"/>
<path d="M30.2012 4.10938H27.2109V15.1824H30.2012V4.10938Z" fill="white"/>
<path d="M127.309 20.0704H121.251L127.309 12.1833V20.0704Z" fill="white"/>
<path d="M106.658 7.94412V0H112.6L106.658 7.94412Z" fill="white"/>
</svg>
