<svg width="133" height="54" viewBox="0 0 133 54" fill="none" xmlns="http://www.w3.org/2000/svg">
<path d="M113.423 54C113.378 53.9285 113.333 53.857 113.273 53.8033C107.924 48.832 102.425 44.1289 96.6411 39.8907C92.78 37.0653 88.8287 34.4723 84.6971 32.2191C81.0613 30.2163 77.3354 28.5174 73.4743 27.2478C71.1606 26.4967 68.8018 25.8887 66.428 25.4953C63.6536 25.0185 60.8692 24.8397 58.0748 24.9588C55.1301 25.084 52.2305 25.5489 49.3459 26.3179C47.0022 26.9438 44.7035 27.7485 42.4349 28.6784C42.2546 28.732 42.1194 28.732 41.9541 28.6426C35.1333 25.0303 28.3124 21.4181 21.4916 17.8058C21.4465 17.7701 21.3864 17.7343 21.2812 17.6806C21.4014 17.6091 21.4766 17.5555 21.5667 17.5197C24.8018 15.9222 28.037 14.3247 31.2721 12.7272C36.0598 10.3548 40.8424 7.98831 45.62 5.62782C45.8303 5.52052 45.9956 5.50264 46.2209 5.57417C59.3969 9.95539 72.1822 15.5705 84.4868 22.6877C95.7397 29.197 106.392 36.8507 116.382 45.8277C117.69 46.9901 118.967 48.2061 120.259 49.3863C120.334 49.4579 120.394 49.5294 120.484 49.6367C120.379 49.7082 120.289 49.7798 120.199 49.8334C118.085 51.1567 115.967 52.4741 113.843 53.7854C113.753 53.857 113.678 53.9285 113.588 54C113.538 54 113.483 54 113.423 54Z" fill="white"/>
<path d="M132.002 42.4655C129.252 44.1822 126.563 45.8632 123.844 47.562C123.754 47.4787 123.663 47.3952 123.573 47.3116C116.497 40.8203 109.12 34.8117 101.443 29.3397C91.1216 21.99 80.3645 15.6954 69.1417 10.5631C64.4091 8.39928 59.6165 6.48585 54.7938 4.67972C53.622 4.25054 52.4651 3.80347 51.3083 3.35641C51.2181 3.32064 51.143 3.28488 51.0078 3.23123C51.128 3.14182 51.2181 3.08817 51.3083 3.03452C53.652 1.69334 56.1009 0.781329 58.685 0.334266C60.548 0.0123802 62.426 -0.0770324 64.304 0.0660278C67.6843 0.280618 70.9746 1.17474 74.1897 2.40863C77.3297 3.62465 80.3495 5.16254 83.3092 6.89715C87.1553 9.15035 90.8512 11.7076 94.502 14.3899C106.942 23.5636 119.321 32.8447 131.656 42.1972C131.761 42.2688 131.866 42.3582 132.002 42.4655Z" fill="white"/>
<path d="M34.6751 30.6274C33.6435 30.6751 32.6119 30.7229 31.5802 30.7705C28.936 30.866 26.2918 30.9613 23.6476 31.0566C22.025 31.1281 20.3975 31.1937 18.7648 31.2533C16.2308 31.3606 13.6968 31.462 11.1628 31.5573C10.4917 31.5931 9.82062 31.617 9.14955 31.6288C9.01434 31.6467 8.87912 31.6109 8.75893 31.5752C5.91441 30.4784 3.0749 29.3817 0.240382 28.2848C0.180287 28.2669 0.120191 28.2311 0 28.1775C0.135215 28.106 0.225358 28.0523 0.330526 27.9987C3.87616 26.2462 7.4218 24.4937 10.9674 22.7412C12.6201 21.9365 14.2727 21.1139 15.9253 20.2913C16.1206 20.2019 16.2709 20.2019 16.4512 20.3092C22.4807 23.6951 28.5053 27.0808 34.5249 30.4665C34.585 30.5022 34.6401 30.538 34.6902 30.5737C34.6902 30.5977 34.6852 30.6156 34.6751 30.6274Z" fill="white"/>
</svg>
