<svg width="74" height="68" viewBox="0 0 74 68" fill="none" xmlns="http://www.w3.org/2000/svg">
<path d="M0 51.1194H42.3897L44.1856 49.5676H0V51.1194Z" fill="white"/>
<path d="M25.4441 34.3171H0V36.4184H25.4441V34.3171Z" fill="white"/>
<path d="M25.4441 38.1262H0V40.0864H25.4441V38.1262Z" fill="white"/>
<path d="M0 54.8022H38.1361L39.7773 53.384H0V54.8022Z" fill="white"/>
<path d="M0 65.7611H25.4441L26.5354 64.8181H0V65.7611Z" fill="white"/>
<path d="M0 62.1527H29.6203L30.9523 61.0093H0V62.1527Z" fill="white"/>
<path d="M0 58.4776H33.8825L35.3605 57.1931H0V58.4776Z" fill="white"/>
<path d="M25.4441 41.9426H0V43.7691H25.4441V41.9426Z" fill="white"/>
<path d="M25.4441 30.501H0V32.7358H25.4441V30.501Z" fill="white"/>
<path d="M4.63168 3.81641H0V7.00162H8.32669L4.63168 3.81641Z" fill="white"/>
<path d="M9.04848 7.62524H0V10.6843H12.5803L9.04848 7.62524Z" fill="white"/>
<path d="M0.223428 0H0V3.32628H4.07311L0.223428 0Z" fill="white"/>
<path d="M13.4567 11.4417H0V14.3596H16.8338L13.4567 11.4417Z" fill="white"/>
<path d="M25.4441 26.6921H0V29.068H25.4441V26.6921Z" fill="white"/>
<path d="M25.4441 22.8757H0V25.3853H25.4441V22.8757Z" fill="white"/>
<path d="M17.8736 15.2505H0V18.0348H21.096L17.8736 15.2505Z" fill="white"/>
<path d="M73.9269 20.0171V21.71H25.333V21.7025L27.2837 20.0171H73.9269Z" fill="white"/>
<path d="M25.3324 21.7024V21.7099H0V19.0667H22.2818L25.3324 21.7024Z" fill="white"/>
<path d="M29.7422 17.8935H73.9278V16.3418H31.5382L29.7422 17.8935Z" fill="white"/>
<path d="M73.9255 31.0505H48.4814V33.1517H73.9255V31.0505Z" fill="white"/>
<path d="M73.9255 27.3752H48.4814V29.3354H73.9255V27.3752Z" fill="white"/>
<path d="M34.1572 14.0849H73.926V12.6667H35.7985L34.1572 14.0849Z" fill="white"/>
<path d="M48.4829 1.7002L47.3916 2.64316H73.927V1.7002H48.4829Z" fill="white"/>
<path d="M42.9844 6.45961H73.928V5.31616H44.3077L42.9844 6.45961Z" fill="white"/>
<path d="M38.5664 10.2683H73.9269V8.99121H40.053L38.5664 10.2683Z" fill="white"/>
<path d="M73.9255 23.6926H48.4814V25.5191H73.9255V23.6926Z" fill="white"/>
<path d="M73.9255 34.7256H48.4814V36.9604H73.9255V34.7256Z" fill="white"/>
<path d="M69.2947 63.6524H73.9263V60.4597H65.5996L69.2947 63.6524Z" fill="white"/>
<path d="M64.887 59.8362H73.9269V56.7847H61.3467L64.887 59.8362Z" fill="white"/>
<path d="M73.7128 67.4687H73.9276V64.135H69.8545L73.7128 67.4687Z" fill="white"/>
<path d="M60.4708 56.0275H73.9276V53.1096H57.0938L60.4708 56.0275Z" fill="white"/>
<path d="M73.9255 38.4006H48.4814V40.7766H73.9255V38.4006Z" fill="white"/>
<path d="M73.9255 42.0762H48.4814V44.5857H73.9255V42.0762Z" fill="white"/>
<path d="M56.0613 52.2112H73.9263V49.4343H52.8389L56.0613 52.2112Z" fill="white"/>
<path d="M73.9271 45.7588V48.402H51.6453L48.5947 45.7662V45.7588H73.9271Z" fill="white"/>
<path d="M48.5938 45.7588V45.7662L46.6432 47.4442H0V45.7588H48.5938Z" fill="white"/>
</svg>
