<svg width="246" height="166" viewBox="0 0 246 166" fill="none" xmlns="http://www.w3.org/2000/svg">
<rect x="-0.5" y="0.5" width="245" height="165" rx="11.5" transform="matrix(-1 0 0 1 245 0)" fill="#202020" fill-opacity="0.25"/>
<path d="M176.49 102.132C176.212 102.822 175.745 103.432 175.137 103.901C174.529 104.369 173.801 104.681 173.024 104.803C172.248 104.926 171.451 104.856 170.712 104.6C169.974 104.344 169.32 103.911 168.816 103.344C168.729 103.246 168.642 103.141 168.564 103.035C168.413 102.825 168.28 102.604 168.164 102.376C167.858 101.732 167.729 101.027 167.786 100.324C167.844 99.6215 168.088 98.9434 168.496 98.3512C168.903 97.759 169.462 97.2715 170.121 96.9325C170.78 96.5936 171.519 96.4141 172.271 96.4102C172.869 96.413 173.461 96.5266 174.012 96.7445C174.563 96.9623 175.063 97.2802 175.483 97.6798C175.585 97.7742 175.681 97.8748 175.77 97.9809C176.013 98.2619 176.217 98.571 176.377 98.9005C176.625 99.4093 176.762 99.9593 176.78 100.518C176.798 101.077 176.696 101.634 176.481 102.156" fill="white"/>
<path d="M69.6451 81.6228C68.2013 82.4445 66.5418 82.8729 64.8528 82.8598H59.149V61.7974C59.1508 61.2714 59.3648 60.7656 59.748 60.3813C60.1136 59.9912 60.6281 59.7515 61.1805 59.714H61.5104V58.9734H53.0718V59.6814H53.4104C53.9551 59.7373 54.4558 59.988 54.8082 60.3813C55.1833 60.7664 55.3935 61.2678 55.3985 61.7893V81.0449C55.3952 81.5667 55.1847 82.0686 54.8082 82.4529C54.4447 82.8467 53.9297 83.0896 53.3757 83.1284H53.0371V83.8446H70.7216L72.293 84.9514L74.2464 75.9177L73.0396 78.2046C72.2839 79.6221 71.1123 80.8079 69.6625 81.6228" fill="white"/>
<path d="M102.21 82.4371C102.392 82.5427 102.584 82.6326 102.783 82.7057L102.479 82.901C101.632 83.4335 100.692 83.8219 99.7012 84.0485C98.6212 84.2924 97.513 84.4099 96.4022 84.3985C95.0203 84.4168 93.6446 84.2216 92.3305 83.8206C91.0871 83.44 89.9599 82.7842 89.0441 81.9087C88.1283 81.0332 87.451 79.9639 87.0694 78.7911C86.5615 77.2778 86.3182 75.6975 86.3488 74.1114V61.863C86.3583 61.3366 86.1462 60.8278 85.7585 60.4469C85.3933 60.0552 84.8792 59.8128 84.326 59.7714H83.9961V59.0227H92.4868V59.7389H92.1568C91.6 59.7764 91.0818 60.0193 90.7157 60.4144C90.5225 60.6022 90.3709 60.8241 90.2696 61.0671C90.1682 61.3102 90.1192 61.5696 90.1253 61.8305V74.6567C89.994 76.9376 90.7394 79.187 92.2263 80.9966C92.9102 81.7504 93.7684 82.3481 94.7357 82.7444C95.703 83.1407 96.7539 83.3251 97.8086 83.2835C99.2566 83.3226 100.684 82.954 101.906 82.2255L102.236 82.4371" fill="white"/>
<path d="M109.219 58.9979V59.6327L108.994 59.7222C108.253 59.9989 107.617 60.4781 107.171 61.0977C106.721 61.7202 106.48 62.4539 106.476 63.2055V74.0622C106.47 74.8957 106.404 75.7277 106.276 76.5526C105.991 76.3661 105.678 76.2207 105.347 76.1213C105.4 75.6237 105.427 75.1239 105.426 74.6238V63.0427C105.399 62.3249 105.145 61.6308 104.696 61.0488C104.254 60.453 103.635 59.9918 102.917 59.7222L102.682 59.6327V58.9979H109.219Z" fill="white"/>
<path d="M144.232 63.3923V85.3661L124.264 63.1562V79.775C124.263 80.5235 124.502 81.255 124.95 81.8747C125.422 82.5143 126.092 83.0029 126.869 83.2745L127.095 83.3641V83.9826H120.54V83.3641L120.766 83.2745C121.506 82.9892 122.141 82.505 122.589 81.8829C123.044 81.2632 123.287 80.5276 123.283 79.775V61.9843C122.512 61.0846 121.602 60.2974 120.583 59.6486L119.463 59.0056H126.174L126.278 59.1928C126.621 59.8409 127.063 60.4386 127.589 60.967L143.216 78.4647V63.3271C143.542 63.3926 143.873 63.4254 144.206 63.4248" fill="white"/>
<path d="M182.429 83.1698C181.81 83.174 181.204 83.0008 180.693 82.6733C180.175 82.3444 179.775 81.8762 179.547 81.3305L169.311 57.0209L166.29 58.3556L165.777 58.5997L168.078 64.0118L160.725 80.1992C160.433 80.8807 159.995 81.4989 159.438 82.0154C158.881 82.5319 158.217 82.9359 157.486 83.2023L157.261 83.2919V83.9104H162.687V83.3081L162.487 83.2105C162.05 82.9958 161.715 82.6344 161.549 82.1985C161.383 81.7626 161.399 81.2841 161.593 80.8585L168.642 65.2977L175.301 80.948C175.411 81.1944 175.451 81.4632 175.417 81.7283C175.384 81.9934 175.278 82.246 175.11 82.4617C174.958 82.687 174.746 82.8709 174.495 82.9951C174.243 83.1194 173.962 83.1796 173.678 83.1698H173.313V83.9104H182.863V83.1698H182.429Z" fill="white"/>
<path d="M167.316 103.759C167.386 103.865 167.473 103.971 167.551 104.076C161.707 107.289 155.052 108.976 148.277 108.96C139.864 108.95 131.696 106.296 125.08 101.423C131.788 106.106 139.915 108.657 148.277 108.707C154.976 108.71 161.552 107.024 167.316 103.824" fill="white"/>
<path d="M176.789 97.0037L176.494 96.7107C180.398 92.5912 183.198 87.6586 184.663 82.3219C186.77 74.7969 186.159 66.8297 182.927 59.6644C182.892 59.5867 182.892 59.4993 182.926 59.4215C182.96 59.3436 183.026 59.2817 183.109 59.2493C183.151 59.232 183.195 59.2227 183.241 59.222C183.286 59.2212 183.331 59.2291 183.373 59.245C183.416 59.261 183.454 59.2847 183.486 59.3148C183.518 59.3449 183.543 59.3808 183.561 59.4202C186.339 65.6433 187.178 72.4773 185.981 79.1295C184.784 85.7816 181.6 91.9793 176.798 97.0037" fill="white"/>
<path d="M168.836 82.2738C168.897 79.8322 167.742 78.5057 164.964 78.5789C167.569 78.5789 168.897 77.3988 168.793 74.9329C169.053 75.9095 168.984 76.9431 169.8 77.6755C170.616 78.408 171.693 78.408 172.743 78.4894C172.743 78.587 172.639 78.5626 172.587 78.5789C172.529 78.5834 172.471 78.5834 172.413 78.5789L171.979 78.6196C169.904 78.8393 169.106 79.6288 168.967 81.5901C168.991 81.817 168.945 82.0456 168.836 82.2493" fill="white"/>
<path d="M144.955 61.9275C144.796 61.9677 144.633 61.9922 144.469 62.0007C143.927 62.0474 143.382 61.9574 142.889 61.7403C142.482 61.571 142.116 61.3235 141.817 61.0136C141.518 60.7038 141.292 60.3386 141.153 59.9417C141.124 59.8644 141.101 59.7856 141.083 59.7057C141.021 59.4769 140.989 59.2418 140.988 59.0057C140.989 58.4712 141.142 57.9466 141.431 57.4857C141.719 57.0248 142.134 56.6444 142.632 56.3834C143.129 56.1224 143.692 55.9902 144.262 56.0006C144.832 56.0109 145.389 56.1633 145.876 56.4421C146.601 56.861 147.122 57.5303 147.325 58.3058C147.521 59.0806 147.382 59.8966 146.938 60.5753C146.494 61.254 145.781 61.7402 144.955 61.9275Z" fill="white"/>
<path d="M104.683 81.4605C104.484 81.5076 104.28 81.5268 104.075 81.5175C103.711 81.5014 103.357 81.4037 103.042 81.2326H102.981C102.602 81.0136 102.3 80.6943 102.114 80.3148C101.928 79.9354 101.866 79.5129 101.936 79.1005C102.006 78.688 102.204 78.3041 102.506 77.9971C102.808 77.6901 103.2 77.4736 103.632 77.375C103.803 77.336 103.978 77.3169 104.153 77.318C104.48 77.3168 104.803 77.3835 105.1 77.5134C105.436 77.6461 105.734 77.8527 105.968 78.1156C106.203 78.3942 106.359 78.7236 106.422 79.0737C106.486 79.4237 106.454 79.7831 106.331 80.1188C106.207 80.4544 105.995 80.7554 105.715 80.9942C105.434 81.2329 105.095 81.4017 104.726 81.4849" fill="white"/>
<path d="M104.7 86.6521C104.643 86.6522 104.588 86.6322 104.546 86.596C104.504 86.5597 104.478 86.51 104.474 86.4568C104.471 86.3998 104.493 86.3442 104.533 86.3017C104.574 86.2592 104.63 86.2331 104.691 86.2289H104.795C104.825 86.2267 104.855 86.23 104.883 86.2386C104.911 86.2472 104.937 86.261 104.96 86.2792C104.983 86.2973 105.001 86.3195 105.015 86.3444C105.028 86.3693 105.036 86.3964 105.038 86.4242C105.042 86.4522 105.039 86.4807 105.03 86.5077C105.022 86.5347 105.007 86.5597 104.988 86.5811C104.968 86.6026 104.944 86.62 104.917 86.6322C104.889 86.6444 104.86 86.6512 104.83 86.6521H104.7ZM103.232 86.6521H103.12C103.06 86.644 103.007 86.6151 102.97 86.5712C102.933 86.5273 102.915 86.4719 102.92 86.4161C102.928 86.3591 102.961 86.3076 103.009 86.2726C103.058 86.2376 103.119 86.2219 103.18 86.2289H103.284C103.344 86.2289 103.402 86.2512 103.444 86.2909C103.486 86.3305 103.51 86.3844 103.51 86.4405C103.51 86.4966 103.486 86.5504 103.444 86.5901C103.402 86.6298 103.344 86.6521 103.284 86.6521M106.314 86.4242C106.264 86.4246 106.215 86.4097 106.174 86.3819C106.134 86.354 106.104 86.3147 106.089 86.2696C106.073 86.2156 106.08 86.1579 106.109 86.1091C106.139 86.0603 106.187 86.0243 106.245 86.0091H106.349C106.407 85.9935 106.468 85.9991 106.522 86.0249C106.575 86.0506 106.616 86.0945 106.636 86.1475C106.652 86.2025 106.645 86.2613 106.616 86.3115C106.586 86.3616 106.538 86.3991 106.479 86.4161H106.375H106.314M101.687 86.2859H101.609H101.505C101.476 86.2768 101.449 86.2623 101.426 86.2433C101.404 86.2243 101.385 86.2012 101.372 86.1753C101.359 86.1495 101.352 86.1214 101.351 86.0928C101.35 86.0643 101.355 86.0358 101.366 86.0091C101.389 85.9572 101.433 85.9156 101.487 85.8929C101.542 85.8702 101.605 85.8681 101.661 85.8871H101.765C101.82 85.9072 101.865 85.9461 101.891 85.9959C101.917 86.0456 101.921 86.1027 101.904 86.1556C101.888 86.1979 101.859 86.2346 101.82 86.2608C101.781 86.2869 101.735 86.3014 101.687 86.3021M107.764 85.8301C107.723 85.8292 107.683 85.8181 107.648 85.7981C107.613 85.7781 107.584 85.7499 107.565 85.7162C107.536 85.6675 107.53 85.6104 107.546 85.5571C107.562 85.5039 107.6 85.4587 107.651 85.4313L107.747 85.3743C107.801 85.3482 107.864 85.3429 107.923 85.3596C107.981 85.3764 108.03 85.4137 108.059 85.4639C108.088 85.5126 108.094 85.5697 108.078 85.6229C108.062 85.6762 108.024 85.7213 107.973 85.7487L107.868 85.8057C107.834 85.813 107.799 85.813 107.764 85.8057M100.307 85.6266C100.27 85.6373 100.231 85.6373 100.194 85.6266L100.09 85.5697C100.039 85.5384 100.004 85.4895 99.9915 85.4338C99.9792 85.3781 99.9911 85.3201 100.025 85.2726C100.058 85.2251 100.11 85.192 100.169 85.1806C100.229 85.1691 100.291 85.1803 100.341 85.2116L100.428 85.2604C100.479 85.2906 100.515 85.3378 100.529 85.3923C100.544 85.4468 100.536 85.5045 100.506 85.5534C100.485 85.5851 100.456 85.6113 100.421 85.6298C100.386 85.6482 100.347 85.6583 100.307 85.6592M109.066 85C109.033 84.9994 109 84.9918 108.97 84.9777C108.94 84.9636 108.914 84.9434 108.893 84.9186C108.872 84.8989 108.855 84.8755 108.843 84.8496C108.832 84.8238 108.826 84.796 108.826 84.768C108.826 84.74 108.832 84.7123 108.843 84.6864C108.855 84.6606 108.872 84.6372 108.893 84.6175L108.971 84.5524C109.015 84.5157 109.072 84.4955 109.132 84.4955C109.191 84.4955 109.248 84.5157 109.292 84.5524C109.313 84.572 109.33 84.5955 109.342 84.6213C109.353 84.6472 109.359 84.6749 109.359 84.7029C109.359 84.7309 109.353 84.7587 109.342 84.7845C109.33 84.8104 109.313 84.8338 109.292 84.8535L109.205 84.9267C109.164 84.9608 109.112 84.9808 109.058 84.9837M99.0478 84.7395C99.019 84.7407 98.9902 84.7363 98.9633 84.7264C98.9364 84.7166 98.912 84.7017 98.8916 84.6826L98.8048 84.6093C98.7639 84.5686 98.7411 84.5147 98.7411 84.4588C98.7411 84.4028 98.7639 84.349 98.8048 84.3082C98.8258 84.2883 98.8508 84.2725 98.8783 84.2617C98.9059 84.2508 98.9355 84.2453 98.9654 84.2453C98.9952 84.2453 99.0248 84.2508 99.0524 84.2617C99.08 84.2725 99.105 84.2883 99.126 84.3082L99.2041 84.3815C99.245 84.4222 99.2678 84.4761 99.2678 84.532C99.2678 84.588 99.245 84.6418 99.2041 84.6826C99.1605 84.7239 99.1012 84.7473 99.0392 84.7477M110.134 83.9338C110.089 83.9456 110.041 83.9456 109.995 83.9338C109.971 83.917 109.951 83.8958 109.935 83.8714C109.92 83.847 109.91 83.82 109.906 83.7919C109.902 83.7638 109.904 83.7352 109.912 83.7079C109.92 83.6806 109.933 83.655 109.952 83.6327L110.013 83.5513C110.049 83.5058 110.103 83.4753 110.163 83.4661C110.223 83.457 110.284 83.4701 110.334 83.5025C110.355 83.5222 110.372 83.5456 110.384 83.5715C110.395 83.5973 110.401 83.625 110.401 83.6531C110.401 83.6811 110.395 83.7088 110.384 83.7347C110.372 83.7605 110.355 83.7839 110.334 83.8036L110.273 83.8931C110.25 83.9174 110.222 83.9371 110.191 83.9511C110.16 83.965 110.126 83.973 110.091 83.9745M97.9366 83.6815C97.8995 83.6819 97.8628 83.6739 97.8296 83.6584C97.7964 83.6428 97.7676 83.6201 97.7456 83.592L97.6848 83.5025C97.6516 83.456 97.6393 83.3992 97.6507 83.3443C97.6621 83.2893 97.6962 83.2409 97.7456 83.2095C97.7965 83.1779 97.8586 83.1662 97.9185 83.1768C97.9785 83.1875 98.0317 83.2196 98.0668 83.2665L98.1189 83.356C98.153 83.4015 98.1667 83.4577 98.1569 83.5125C98.1472 83.5673 98.1148 83.6164 98.0668 83.649C98.0242 83.6601 97.9792 83.6601 97.9366 83.649M110.872 82.6724C110.841 82.68 110.808 82.68 110.777 82.6724C110.722 82.6477 110.68 82.6043 110.659 82.5512C110.638 82.4981 110.64 82.4395 110.664 82.3875L110.716 82.298C110.727 82.2723 110.744 82.2491 110.765 82.2297C110.786 82.2104 110.812 82.1953 110.839 82.1853C110.867 82.1754 110.896 82.1709 110.926 82.1721C110.956 82.1733 110.985 82.1801 111.011 82.1922C111.065 82.2153 111.107 82.2572 111.128 82.309C111.149 82.3607 111.148 82.4181 111.124 82.4689L111.081 82.5666C111.062 82.6036 111.033 82.6349 110.996 82.6565C110.959 82.6782 110.916 82.6893 110.872 82.6887M97.1813 82.3631C97.1367 82.3631 97.0932 82.3507 97.0561 82.3276C97.019 82.3044 96.9901 82.2715 96.9729 82.2329L96.9295 82.1352C96.9093 82.0823 96.9115 82.024 96.9358 81.9725C96.96 81.9211 97.0044 81.8802 97.0597 81.8585C97.0876 81.8481 97.1175 81.8429 97.1475 81.8434C97.1776 81.8439 97.2072 81.85 97.2347 81.8614C97.2622 81.8728 97.287 81.8892 97.3076 81.9096C97.3283 81.9301 97.3444 81.9542 97.3549 81.9806V82.0701C97.3661 82.0963 97.3716 82.1243 97.371 82.1524C97.3705 82.1806 97.364 82.2084 97.3519 82.2341C97.3397 82.2599 97.3222 82.2832 97.3004 82.3025C97.2786 82.3219 97.2528 82.3369 97.2247 82.3468C97.1965 82.3555 97.1661 82.3555 97.1379 82.3468M111.437 81.2319C111.377 81.2183 111.326 81.1835 111.293 81.1348C111.261 81.0861 111.25 81.0275 111.263 80.9714V80.8738C111.276 80.8187 111.311 80.7707 111.362 80.7401C111.412 80.7096 111.473 80.6991 111.532 80.711C111.591 80.7229 111.642 80.7561 111.675 80.8034C111.707 80.8508 111.718 80.9083 111.706 80.9633V81.0691C111.692 81.1157 111.663 81.1569 111.622 81.1863C111.581 81.2157 111.531 81.2317 111.48 81.2319M96.8427 80.8819C96.7892 80.8846 96.7366 80.8686 96.6949 80.837C96.6532 80.8055 96.6255 80.7606 96.617 80.711V80.6052C96.6121 80.5774 96.6131 80.5489 96.6201 80.5215C96.6271 80.494 96.6398 80.4682 96.6576 80.4454C96.6754 80.4227 96.6979 80.4035 96.7237 80.389C96.7495 80.3745 96.7782 80.365 96.808 80.361C96.8377 80.3564 96.868 80.3574 96.8973 80.364C96.9266 80.3705 96.9542 80.3825 96.9784 80.3992C97.0027 80.4158 97.0231 80.4369 97.0386 80.4611C97.0541 80.4853 97.0642 80.5122 97.0684 80.5401V80.6378C97.0763 80.6925 97.062 80.748 97.0282 80.7932C96.9944 80.8385 96.9437 80.8701 96.8861 80.8819H96.8427ZM111.671 79.7669C111.61 79.7648 111.553 79.7408 111.511 79.6998C111.469 79.6588 111.445 79.6041 111.445 79.5472V79.4495C111.439 79.4177 111.44 79.3849 111.448 79.3535C111.457 79.322 111.472 79.2928 111.494 79.2677C111.516 79.2427 111.544 79.2226 111.575 79.2087C111.607 79.1949 111.641 79.1877 111.675 79.1877C111.71 79.1877 111.744 79.1949 111.775 79.2087C111.807 79.2226 111.834 79.2427 111.856 79.2677C111.878 79.2928 111.894 79.322 111.903 79.3535C111.911 79.3849 111.912 79.4177 111.905 79.4495V79.6042C111.905 79.6603 111.882 79.7141 111.839 79.7538C111.797 79.7935 111.74 79.8158 111.68 79.8158M96.7385 79.4577C96.7016 79.4622 96.6641 79.4585 96.6291 79.4467C96.594 79.4349 96.5625 79.4155 96.537 79.3901C96.5116 79.3646 96.493 79.3339 96.4827 79.3003C96.4725 79.2668 96.4709 79.2315 96.4781 79.1972V79.0914C96.4781 79.0353 96.5019 78.9815 96.5442 78.9418C96.5865 78.9021 96.6439 78.8798 96.7038 78.8798C96.7637 78.8798 96.8211 78.9021 96.8634 78.9418C96.9057 78.9815 96.9295 79.0353 96.9295 79.0914V79.1891C96.9273 79.246 96.9016 79.2998 96.8579 79.3393C96.8141 79.3787 96.7558 79.4007 96.6951 79.4007M111.575 78.7903C111.521 78.7927 111.467 78.7756 111.425 78.7424C111.383 78.7092 111.356 78.6623 111.35 78.6113V78.5055C111.342 78.4505 111.358 78.395 111.394 78.3509C111.43 78.3068 111.482 78.2775 111.541 78.2695C111.57 78.2648 111.601 78.2658 111.63 78.2724C111.659 78.2789 111.687 78.2909 111.711 78.3076C111.735 78.3243 111.756 78.3453 111.771 78.3695C111.787 78.3937 111.797 78.4206 111.801 78.4485V78.5543C111.805 78.5821 111.803 78.6103 111.794 78.6373C111.786 78.6643 111.773 78.6895 111.754 78.7114C111.735 78.7334 111.712 78.7517 111.686 78.7652C111.66 78.7788 111.631 78.7873 111.602 78.7903M96.9122 77.9765H96.8514C96.7935 77.9612 96.7441 77.9256 96.7134 77.8772C96.6827 77.8287 96.673 77.771 96.6864 77.716V77.6102C96.705 77.559 96.7438 77.5164 96.7949 77.4911C96.846 77.4659 96.9054 77.4599 96.961 77.4745C97.0166 77.4891 97.0641 77.5231 97.0938 77.5696C97.1235 77.616 97.133 77.6713 97.1205 77.7242V77.8218C97.1089 77.8678 97.0812 77.9088 97.0419 77.9383C97.0026 77.9678 96.9538 77.9841 96.9035 77.9846M111.237 77.3498C111.19 77.3508 111.144 77.3381 111.105 77.3133C111.066 77.2884 111.036 77.2529 111.02 77.2115V77.1138C111.009 77.0871 111.004 77.0587 111.005 77.0301C111.006 77.0015 111.013 76.9735 111.026 76.9476C111.039 76.9218 111.058 76.8986 111.08 76.8796C111.103 76.8606 111.13 76.8462 111.159 76.8371C111.216 76.8186 111.279 76.8219 111.334 76.8462C111.39 76.8705 111.432 76.9139 111.454 76.9673V77.065C111.465 77.0916 111.47 77.1201 111.469 77.1487C111.468 77.1772 111.461 77.2053 111.448 77.2311C111.435 77.257 111.416 77.2801 111.393 77.2991C111.371 77.3181 111.344 77.3326 111.315 77.3417H111.237M97.4851 76.5278C97.4509 76.5352 97.4153 76.5352 97.381 76.5278C97.354 76.5157 97.33 76.4986 97.3101 76.4777C97.2903 76.4567 97.2751 76.4323 97.2654 76.4058C97.2557 76.3793 97.2517 76.3513 97.2537 76.3233C97.2556 76.2954 97.2635 76.2681 97.2768 76.243L97.3289 76.1453C97.3583 76.0952 97.4074 76.0578 97.4658 76.0411C97.5241 76.0244 97.5871 76.0296 97.6414 76.0558C97.6684 76.0678 97.6925 76.0849 97.7122 76.1061C97.7318 76.1272 97.7466 76.1519 97.7555 76.1787C97.7645 76.2054 97.7675 76.2336 97.7643 76.2615C97.7611 76.2894 97.7518 76.3163 97.7369 76.3406L97.6848 76.4302C97.6689 76.4672 97.6412 76.4988 97.6054 76.5206C97.5697 76.5425 97.5278 76.5535 97.4851 76.5522M110.56 76.007C110.521 76.0062 110.483 75.9961 110.449 75.9776C110.416 75.959 110.388 75.9327 110.369 75.9012L110.308 75.8198C110.277 75.774 110.267 75.719 110.278 75.666C110.289 75.6131 110.322 75.5662 110.369 75.5349C110.421 75.5041 110.483 75.4937 110.544 75.5059C110.604 75.5181 110.656 75.5519 110.69 75.6L110.742 75.6896C110.758 75.7131 110.769 75.7393 110.774 75.7667C110.779 75.7942 110.779 75.8224 110.772 75.8496C110.766 75.8768 110.754 75.9026 110.737 75.9254C110.719 75.9482 110.698 75.9676 110.673 75.9826C110.633 75.9934 110.591 75.9934 110.551 75.9826M98.3273 75.2745C98.2789 75.2862 98.2281 75.2862 98.1797 75.2745C98.1388 75.2337 98.116 75.1799 98.116 75.1239C98.116 75.068 98.1388 75.0141 98.1797 74.9734L98.2491 74.892C98.2701 74.8721 98.2951 74.8562 98.3227 74.8454C98.3503 74.8346 98.3799 74.8291 98.4097 74.8291C98.4396 74.8291 98.4692 74.8346 98.4968 74.8454C98.5243 74.8562 98.5494 74.8721 98.5704 74.892C98.6112 74.9328 98.634 74.9866 98.634 75.0426C98.634 75.0985 98.6112 75.1524 98.5704 75.1931L98.5009 75.2664C98.4807 75.2916 98.4545 75.3121 98.4243 75.3263C98.3942 75.3404 98.361 75.3478 98.3273 75.3478M109.613 74.8839C109.582 74.8836 109.551 74.8769 109.522 74.8643C109.494 74.8516 109.469 74.8333 109.448 74.8106L109.336 74.7211C109.311 74.7023 109.29 74.6788 109.276 74.6521C109.262 74.6254 109.253 74.5961 109.252 74.5662C109.25 74.5363 109.256 74.5065 109.267 74.4786C109.279 74.4508 109.297 74.4256 109.32 74.4047C109.343 74.3838 109.37 74.3678 109.4 74.3575C109.43 74.3473 109.462 74.3431 109.494 74.3454C109.526 74.3476 109.557 74.3561 109.585 74.3703C109.613 74.3846 109.637 74.4043 109.657 74.4281L109.735 74.5013C109.756 74.521 109.773 74.5445 109.785 74.5703C109.796 74.5962 109.802 74.6239 109.802 74.6519C109.802 74.6799 109.796 74.7077 109.785 74.7335C109.773 74.7593 109.756 74.7828 109.735 74.8025C109.715 74.8227 109.691 74.8389 109.664 74.8501C109.637 74.8613 109.608 74.8672 109.579 74.8676M99.4212 74.2735C99.3752 74.2725 99.3306 74.2583 99.2935 74.2329C99.2563 74.2076 99.2283 74.1722 99.2132 74.1314C99.1981 74.0907 99.1966 74.0467 99.209 74.0051C99.2213 73.9636 99.2469 73.9266 99.2822 73.8991L99.3691 73.834C99.3901 73.8141 99.4151 73.7982 99.4426 73.7874C99.4702 73.7766 99.4998 73.7711 99.5297 73.7711C99.5596 73.7711 99.5891 73.7766 99.6167 73.7874C99.6443 73.7982 99.6693 73.8141 99.6903 73.834C99.7312 73.8748 99.754 73.9286 99.754 73.9846C99.754 74.0405 99.7312 74.0944 99.6903 74.1351L99.6035 74.2002C99.5609 74.2296 99.5086 74.244 99.4559 74.2409M108.363 73.9072C108.324 73.9186 108.281 73.9186 108.242 73.9072L108.146 73.8503C108.097 73.8189 108.063 73.7704 108.051 73.7155C108.04 73.6606 108.052 73.6037 108.085 73.5573C108.101 73.5335 108.122 73.513 108.147 73.4971C108.171 73.4812 108.199 73.4702 108.228 73.4648C108.258 73.4595 108.288 73.4599 108.317 73.466C108.346 73.4721 108.374 73.4838 108.398 73.5003L108.493 73.5573C108.543 73.5887 108.577 73.6371 108.588 73.692C108.6 73.7469 108.587 73.8038 108.554 73.8503C108.534 73.8809 108.506 73.906 108.473 73.9232C108.439 73.9403 108.401 73.9489 108.363 73.9479M100.732 73.5003C100.691 73.4994 100.651 73.4883 100.616 73.4683C100.581 73.4484 100.552 73.4201 100.532 73.3864C100.518 73.362 100.508 73.3351 100.505 73.3072C100.502 73.2793 100.505 73.2511 100.514 73.2244C100.523 73.1977 100.538 73.1729 100.557 73.1518C100.577 73.1306 100.601 73.1135 100.628 73.1015L100.732 73.0527C100.786 73.0279 100.849 73.0242 100.906 73.0425C100.963 73.0609 101.009 73.0996 101.036 73.1504C101.062 73.2011 101.066 73.2596 101.047 73.313C101.027 73.3664 100.986 73.4104 100.932 73.4352L100.845 73.4759C100.808 73.4883 100.769 73.4883 100.732 73.4759M106.974 73.2155H106.896L106.792 73.0934C106.764 73.0835 106.738 73.0684 106.716 73.0491C106.694 73.0297 106.677 73.0065 106.665 72.9807C106.653 72.9549 106.646 72.9272 106.646 72.899C106.645 72.8708 106.65 72.8428 106.662 72.8167C106.672 72.7903 106.688 72.7662 106.709 72.7457C106.73 72.7252 106.754 72.7088 106.782 72.6975C106.809 72.6861 106.839 72.68 106.869 72.6795C106.899 72.679 106.929 72.6841 106.957 72.6946L107.061 72.7353C107.116 72.757 107.161 72.7978 107.185 72.8493C107.209 72.9008 107.211 72.959 107.191 73.012C107.173 73.0512 107.142 73.0844 107.104 73.1076C107.065 73.1307 107.02 73.1428 106.974 73.1422M102.208 72.8737C102.156 72.8685 102.107 72.847 102.069 72.8127C102.031 72.7784 102.007 72.7332 102 72.6844C101.993 72.6356 102.004 72.586 102.031 72.5436C102.057 72.5012 102.098 72.4684 102.147 72.4505H102.26C102.289 72.4431 102.319 72.4414 102.349 72.4452C102.379 72.4491 102.408 72.4585 102.434 72.4729C102.46 72.4873 102.482 72.5064 102.5 72.5291C102.518 72.5518 102.531 72.5777 102.538 72.6051C102.551 72.66 102.542 72.7177 102.511 72.7662C102.48 72.8147 102.431 72.8502 102.373 72.8655H102.269H102.208M105.455 72.7272H105.351C105.321 72.7232 105.292 72.7137 105.266 72.6992C105.241 72.6847 105.218 72.6655 105.2 72.6428C105.183 72.62 105.17 72.5942 105.163 72.5667C105.156 72.5393 105.155 72.5108 105.16 72.483C105.164 72.4551 105.174 72.4282 105.19 72.404C105.205 72.3798 105.225 72.3588 105.25 72.3421C105.274 72.3254 105.302 72.3134 105.331 72.3069C105.36 72.3003 105.39 72.2993 105.42 72.304H105.533C105.563 72.3078 105.591 72.3173 105.616 72.3319C105.642 72.3465 105.664 72.3659 105.681 72.3888C105.698 72.4117 105.71 72.4377 105.716 72.4651C105.722 72.4925 105.722 72.5208 105.715 72.5481C105.707 72.5984 105.68 72.6442 105.638 72.6771C105.597 72.71 105.544 72.7278 105.49 72.7272M103.805 72.6295C103.747 72.6295 103.691 72.6084 103.649 72.5704C103.607 72.5325 103.582 72.4807 103.58 72.426C103.577 72.398 103.581 72.3698 103.591 72.3432C103.601 72.3166 103.616 72.2922 103.637 72.2715C103.657 72.2509 103.682 72.2344 103.709 72.2232C103.737 72.212 103.767 72.2062 103.797 72.2063H103.91C103.97 72.2082 104.027 72.2308 104.07 72.2699C104.113 72.309 104.14 72.3617 104.144 72.4179C104.144 72.4735 104.122 72.527 104.082 72.5678C104.041 72.6086 103.986 72.6335 103.927 72.6376H103.771" fill="white"/>
<path d="M111.626 90.2498L192.652 90.1033C192.69 90.0968 192.728 90.0981 192.765 90.1072C192.802 90.1162 192.837 90.1328 192.866 90.1557C192.895 90.1786 192.919 90.2073 192.935 90.2398C192.951 90.2722 192.96 90.3076 192.96 90.3434C192.96 90.3792 192.951 90.4146 192.935 90.447C192.919 90.4795 192.895 90.5082 192.866 90.5311C192.837 90.554 192.802 90.5706 192.765 90.5796C192.728 90.5887 192.69 90.59 192.652 90.5835C192.652 90.4044 111.044 90.7625 111.626 90.2498Z" fill="white"/>
<rect x="-0.5" y="0.5" width="245" height="165" rx="11.5" transform="matrix(-1 0 0 1 245 0)" stroke="#262728"/>
</svg>
