<svg width="132" height="50" viewBox="0 0 132 50" fill="none" xmlns="http://www.w3.org/2000/svg">
<path d="M116.46 43.5183C116.197 44.1696 115.757 44.745 115.183 45.1873C114.61 45.6295 113.922 45.9231 113.19 46.0388C112.458 46.1545 111.706 46.0884 111.009 45.8468C110.313 45.6053 109.696 45.1969 109.22 44.6623C109.138 44.5702 109.056 44.4703 108.982 44.3705C108.841 44.1722 108.715 43.9644 108.606 43.7487C108.317 43.1414 108.194 42.4762 108.249 41.8133C108.304 41.1505 108.533 40.5108 108.918 39.9522C109.303 39.3936 109.83 38.9336 110.451 38.6139C111.073 38.2942 111.77 38.1248 112.479 38.1211C113.044 38.1237 113.602 38.2309 114.122 38.4365C114.642 38.642 115.114 38.9418 115.51 39.3188C115.606 39.4078 115.697 39.5027 115.78 39.6028C116.01 39.8679 116.202 40.1595 116.353 40.4704C116.587 40.9504 116.716 41.4692 116.733 41.9966C116.75 42.5239 116.654 43.0491 116.451 43.5414" fill="white"/>
<path d="M15.6672 24.1713C14.3052 24.9465 12.7397 25.3506 11.1464 25.3383H5.76566V5.46901C5.76739 4.97281 5.96927 4.49559 6.33077 4.13313C6.67558 3.76512 7.16096 3.539 7.68209 3.50358H7.99331V2.80493H0.0327595V3.47287H0.352164C0.866001 3.52553 1.33834 3.76205 1.67073 4.13313C2.02462 4.4964 2.22294 4.96939 2.22764 5.46133V23.6262C2.2245 24.1184 2.02597 24.5919 1.67073 24.9544C1.32787 25.3259 0.842001 25.555 0.319405 25.5916H0V26.2672H16.6828L18.1651 27.3114L20.0078 18.7894L18.8694 20.9468C18.1565 22.2839 17.0513 23.4026 15.6836 24.1713" fill="white"/>
<path d="M46.3874 24.9394C46.559 25.039 46.74 25.1238 46.9279 25.1927L46.6413 25.377C45.8423 25.8793 44.9552 26.2457 44.0205 26.4595C43.0017 26.6895 41.9563 26.8004 40.9084 26.7896C39.6048 26.8069 38.3071 26.6228 37.0674 26.2445C35.8944 25.8854 34.831 25.2668 33.9671 24.4409C33.1032 23.615 32.4643 22.6062 32.1043 21.4999C31.6252 20.0723 31.3956 18.5816 31.4245 17.0853V5.53075C31.4335 5.03413 31.2334 4.55419 30.8676 4.19487C30.5231 3.82534 30.0382 3.59666 29.5163 3.55764H29.2051V2.85132H37.2148V3.52693H36.9036C36.3783 3.56236 35.8894 3.7915 35.544 4.16416C35.3618 4.34138 35.2187 4.55065 35.1232 4.77993C35.0276 5.0092 34.9813 5.25394 34.9871 5.50004V17.5997C34.8632 19.7514 35.5664 21.8733 36.9691 23.5804C37.6142 24.2916 38.4238 24.8554 39.3363 25.2293C40.2488 25.6031 41.2402 25.777 42.2352 25.7378C43.6011 25.7747 44.9476 25.427 46.1008 24.7397L46.412 24.9394" fill="white"/>
<path d="M53 2.82812V3.42697L52.787 3.51142C52.0879 3.77239 51.4886 4.22447 51.0672 4.80891C50.6434 5.39622 50.4154 6.08833 50.412 6.79737V17.0391C50.4065 17.8253 50.3436 18.6103 50.2236 19.3884C49.9549 19.2124 49.6595 19.0753 49.3473 18.9815C49.3974 18.5121 49.422 18.0406 49.421 17.5688V6.64382C49.3962 5.96667 49.1567 5.31181 48.7331 4.76284C48.316 4.20077 47.7323 3.76568 47.0541 3.51142L46.833 3.42697V2.82812H53Z" fill="white"/>
<path d="M86.0288 6.97335V27.7025L67.1921 6.75071V22.4281C67.1912 23.1342 67.4166 23.8243 67.8391 24.4088C68.2841 25.0122 68.9158 25.4731 69.649 25.7294L69.862 25.8138V26.3973H63.6786V25.8138L63.8916 25.7294C64.5903 25.4602 65.1887 25.0035 65.6114 24.4165C66.0412 23.8319 66.2699 23.138 66.2666 22.4281V5.64515C65.5388 4.7964 64.6804 4.0538 63.7196 3.44172L62.6631 2.83521H68.9938L69.0921 3.01179C69.4153 3.62313 69.8319 4.18697 70.3288 4.68547L85.0706 21.192V6.91193C85.3774 6.97372 85.6904 7.00461 86.0042 7.00406" fill="white"/>
<path d="M122.062 25.6305C121.478 25.6345 120.906 25.4711 120.424 25.1622C119.935 24.8519 119.558 24.4103 119.343 23.8954L109.687 0.962891L106.837 2.22199L106.354 2.45232L108.524 7.55782L101.587 22.8283C101.312 23.4712 100.898 24.0543 100.373 24.5416C99.8475 25.0288 99.221 25.4099 98.5323 25.6612L98.3193 25.7457V26.3292H103.438V25.7611L103.25 25.6689C102.837 25.4664 102.521 25.1255 102.365 24.7143C102.208 24.303 102.223 23.8516 102.406 23.4501L109.056 8.77086L115.338 23.5346C115.441 23.7671 115.479 24.0206 115.447 24.2707C115.416 24.5208 115.316 24.7591 115.158 24.9626C115.015 25.1751 114.814 25.3486 114.577 25.4658C114.34 25.583 114.074 25.6398 113.806 25.6305H113.462V26.3292H122.471V25.6305H122.062Z" fill="white"/>
<path d="M107.806 45.0535C107.871 45.1533 107.953 45.2531 108.027 45.3529C102.514 48.384 96.236 49.9746 89.8452 49.9594C81.908 49.9499 74.2033 47.4469 67.9619 42.8501C74.2895 47.267 81.9563 49.6744 89.8452 49.7214C96.1645 49.7243 102.368 48.1332 107.806 45.1149" fill="white"/>
<path d="M116.741 38.6809L116.463 38.4045C120.146 34.5183 122.788 29.8652 124.17 24.8307C126.157 17.732 125.581 10.2162 122.532 3.4567C122.499 3.3834 122.499 3.30096 122.531 3.22753C122.563 3.1541 122.625 3.09569 122.704 3.06515C122.743 3.04882 122.785 3.04005 122.828 3.03935C122.871 3.03865 122.913 3.04605 122.953 3.06109C122.993 3.07614 123.029 3.09852 123.059 3.12692C123.089 3.15531 123.113 3.18914 123.129 3.22637C125.75 9.09697 126.542 15.5438 125.413 21.8191C124.284 28.0945 121.28 33.9411 116.75 38.6809" fill="white"/>
<path d="M109.24 24.7854C109.297 22.4822 108.208 21.2308 105.587 21.2999C108.044 21.2999 109.297 20.1866 109.199 17.8604C109.444 18.7816 109.379 19.7567 110.149 20.4477C110.919 21.1386 111.934 21.1386 112.925 21.2154C112.925 21.3075 112.827 21.2845 112.778 21.2999C112.723 21.3041 112.668 21.3041 112.614 21.2999L112.204 21.3382C110.247 21.5455 109.493 22.2902 109.362 24.1405C109.385 24.3545 109.342 24.5702 109.24 24.7624" fill="white"/>
<path d="M86.7115 5.59168C86.5616 5.62963 86.4079 5.65279 86.2529 5.66078C85.7416 5.70479 85.227 5.61997 84.7623 5.4151C84.3779 5.25542 84.0335 5.02191 83.7513 4.72964C83.4692 4.43738 83.2556 4.09287 83.1244 3.71838C83.0977 3.6455 83.0758 3.57114 83.0588 3.49574C83.0002 3.27991 82.97 3.05818 82.9688 2.83548C82.9697 2.33122 83.1139 1.83629 83.3864 1.40153C83.6589 0.966777 84.05 0.607858 84.5194 0.361642C84.9888 0.115426 85.5197 -0.00921205 86.0575 0.000530346C86.5954 0.0102727 87.1207 0.154044 87.5796 0.417077C88.2639 0.812217 88.7552 1.44365 88.9474 2.17521C89.1323 2.90609 89.0008 3.67587 88.5818 4.31614C88.1628 4.9564 87.4903 5.41503 86.7115 5.59168Z" fill="white"/>
<path d="M48.7201 24.0182C48.5329 24.0627 48.3397 24.0808 48.1468 24.072C47.8037 24.0568 47.4694 23.9647 47.1722 23.8033H47.1149C46.7571 23.5966 46.4726 23.2954 46.2971 22.9374C46.1216 22.5795 46.063 22.1809 46.1287 21.7919C46.1944 21.4028 46.3814 21.0406 46.6662 20.751C46.9509 20.4613 47.3208 20.2572 47.7291 20.1641C47.8899 20.1274 48.055 20.1093 48.2205 20.1104C48.5289 20.1093 48.8338 20.1722 49.1132 20.2947C49.4307 20.4199 49.7116 20.6147 49.9322 20.8628C50.1538 21.1255 50.3013 21.4364 50.3611 21.7666C50.4209 22.0968 50.3911 22.4359 50.2745 22.7525C50.1578 23.0691 49.958 23.3531 49.6936 23.5783C49.4291 23.8035 49.1084 23.9627 48.761 24.0413" fill="white"/>
<path d="M48.7366 28.9156C48.6828 28.9157 48.631 28.8968 48.5915 28.8626C48.552 28.8285 48.5277 28.7815 48.5236 28.7313C48.5213 28.6776 48.5414 28.6251 48.5796 28.585C48.6178 28.5449 48.6712 28.5203 48.7284 28.5163H48.8266C48.8546 28.5142 48.8828 28.5174 48.9095 28.5255C48.9362 28.5336 48.9609 28.5466 48.9822 28.5638C49.0035 28.5809 49.021 28.6018 49.0336 28.6253C49.0463 28.6488 49.0539 28.6744 49.056 28.7006C49.0594 28.727 49.0569 28.7538 49.0487 28.7793C49.0404 28.8048 49.0266 28.8284 49.0082 28.8486C48.9897 28.8689 48.9669 28.8853 48.9413 28.8968C48.9157 28.9083 48.8878 28.9147 48.8594 28.9156H48.7366ZM47.3525 28.9156H47.246C47.1903 28.9079 47.1397 28.8806 47.1047 28.8393C47.0697 28.7979 47.0529 28.7455 47.0576 28.6929C47.0658 28.6392 47.0961 28.5906 47.142 28.5576C47.188 28.5246 47.2459 28.5098 47.3033 28.5163H47.4016C47.4581 28.5163 47.5122 28.5374 47.5522 28.5748C47.5921 28.6122 47.6145 28.663 47.6145 28.716C47.6145 28.7689 47.5921 28.8197 47.5522 28.8571C47.5122 28.8945 47.4581 28.9156 47.4016 28.9156M50.2599 28.7006C50.2124 28.7009 50.166 28.6869 50.1277 28.6607C50.0893 28.6344 50.061 28.5973 50.0469 28.5547C50.0318 28.5038 50.0388 28.4494 50.0665 28.4033C50.0941 28.3573 50.1401 28.3234 50.1943 28.309H50.2926C50.3469 28.2943 50.4052 28.2996 50.4555 28.3239C50.5057 28.3481 50.5442 28.3895 50.5629 28.4396C50.5783 28.4915 50.5715 28.5469 50.5439 28.5942C50.5164 28.6415 50.4703 28.6769 50.4155 28.6929H50.3172H50.2599M45.8947 28.5701H45.821H45.7227C45.6954 28.5615 45.6703 28.5479 45.6488 28.5299C45.6273 28.512 45.6099 28.4902 45.5977 28.4658C45.5854 28.4414 45.5786 28.4149 45.5775 28.388C45.5765 28.3611 45.5813 28.3342 45.5916 28.309C45.6135 28.2601 45.6546 28.2208 45.7064 28.1994C45.7582 28.178 45.8168 28.176 45.8701 28.1939H45.9684C46.0202 28.2129 46.0625 28.2495 46.0868 28.2965C46.1111 28.3435 46.1156 28.3973 46.0994 28.4472C46.0844 28.4871 46.0567 28.5217 46.0201 28.5464C45.9835 28.5711 45.9398 28.5847 45.8947 28.5854M51.6276 28.1401C51.5889 28.1392 51.5511 28.1288 51.5181 28.11C51.485 28.0911 51.4578 28.0645 51.4392 28.0327C51.4126 27.9867 51.4063 27.9329 51.4216 27.8826C51.4369 27.8324 51.4727 27.7898 51.5211 27.7639L51.6112 27.7102C51.6624 27.6855 51.7218 27.6806 51.7769 27.6963C51.832 27.7121 51.8783 27.7474 51.906 27.7947C51.9326 27.8406 51.9389 27.8945 51.9236 27.9447C51.9083 27.9949 51.8726 28.0375 51.8241 28.0634L51.7259 28.1171C51.6935 28.124 51.6599 28.124 51.6276 28.1171M44.5925 27.9482C44.5578 27.9583 44.5207 27.9583 44.486 27.9482L44.3877 27.8945C44.3399 27.8649 44.3066 27.8188 44.2951 27.7663C44.2836 27.7137 44.2948 27.659 44.3263 27.6142C44.3578 27.5694 44.407 27.5382 44.4631 27.5274C44.5191 27.5166 44.5775 27.5271 44.6252 27.5567L44.7071 27.6027C44.7548 27.6312 44.789 27.6758 44.8027 27.7272C44.8164 27.7786 44.8086 27.8329 44.7808 27.8791C44.7606 27.909 44.7329 27.9337 44.7 27.9511C44.6672 27.9686 44.6302 27.9781 44.5925 27.9789M52.8561 27.357C52.8244 27.3565 52.7932 27.3493 52.7649 27.336C52.7366 27.3227 52.7118 27.3037 52.6923 27.2803C52.6722 27.2617 52.6563 27.2396 52.6454 27.2152C52.6345 27.1908 52.6289 27.1647 52.6289 27.1382C52.6289 27.1118 52.6345 27.0856 52.6454 27.0613C52.6563 27.0369 52.6722 27.0148 52.6923 26.9962L52.766 26.9348C52.8078 26.9002 52.8617 26.8812 52.9175 26.8812C52.9733 26.8812 53.0271 26.9002 53.069 26.9348C53.0891 26.9534 53.105 26.9755 53.1158 26.9998C53.1267 27.0242 53.1323 27.0504 53.1323 27.0768C53.1323 27.1032 53.1267 27.1294 53.1158 27.1538C53.105 27.1782 53.0891 27.2003 53.069 27.2188L52.9871 27.2879C52.9485 27.32 52.8994 27.339 52.8479 27.3417M43.4049 27.1114C43.3777 27.1125 43.3506 27.1083 43.3252 27.099C43.2998 27.0898 43.2768 27.0757 43.2575 27.0576L43.1756 26.9885C43.1371 26.9501 43.1156 26.8993 43.1156 26.8465C43.1156 26.7937 43.1371 26.7429 43.1756 26.7045C43.1954 26.6857 43.219 26.6707 43.245 26.6605C43.271 26.6504 43.299 26.6451 43.3271 26.6451C43.3553 26.6451 43.3832 26.6504 43.4093 26.6605C43.4353 26.6707 43.4589 26.6857 43.4787 26.7045L43.5524 26.7736C43.5909 26.812 43.6124 26.8628 43.6124 26.9156C43.6124 26.9684 43.5909 27.0192 43.5524 27.0576C43.5112 27.0966 43.4553 27.1187 43.3968 27.119M53.8634 26.3513C53.8205 26.3624 53.7752 26.3624 53.7324 26.3513C53.7094 26.3354 53.6901 26.3154 53.6756 26.2924C53.661 26.2694 53.6516 26.2439 53.6478 26.2174C53.6439 26.1909 53.6458 26.164 53.6533 26.1382C53.6608 26.1124 53.6738 26.0882 53.6914 26.0672L53.7487 25.9905C53.7831 25.9475 53.8338 25.9187 53.8903 25.9101C53.9469 25.9015 54.0047 25.9138 54.0518 25.9444C54.0718 25.963 54.0878 25.9851 54.0986 26.0095C54.1095 26.0338 54.1151 26.06 54.1151 26.0864C54.1151 26.1128 54.1095 26.139 54.0986 26.1634C54.0878 26.1878 54.0718 26.2099 54.0518 26.2285L53.9944 26.3129C53.9727 26.3358 53.9462 26.3544 53.9167 26.3676C53.8872 26.3807 53.8551 26.3883 53.8225 26.3897M42.3566 26.1133C42.3216 26.1136 42.287 26.1061 42.2557 26.0914C42.2244 26.0767 42.1972 26.0553 42.1765 26.0288L42.1191 25.9444C42.0878 25.9006 42.0762 25.8469 42.087 25.7951C42.0977 25.7433 42.1299 25.6976 42.1765 25.668C42.2245 25.6382 42.283 25.6271 42.3396 25.6372C42.3962 25.6472 42.4464 25.6776 42.4795 25.7217L42.5286 25.8062C42.5608 25.8491 42.5737 25.9021 42.5645 25.9538C42.5553 26.0055 42.5248 26.0518 42.4795 26.0826C42.4393 26.0931 42.3968 26.0931 42.3566 26.0826M54.5595 25.1613C54.53 25.1684 54.499 25.1684 54.4695 25.1613C54.4182 25.138 54.3785 25.097 54.3587 25.047C54.3389 24.9969 54.3404 24.9416 54.363 24.8926L54.4121 24.8081C54.4228 24.7839 54.4385 24.762 54.4585 24.7437C54.4785 24.7255 54.5023 24.7112 54.5284 24.7019C54.5544 24.6925 54.5823 24.6883 54.6102 24.6894C54.6381 24.6905 54.6654 24.6969 54.6906 24.7083C54.7412 24.7301 54.7808 24.7697 54.8007 24.8185C54.8206 24.8673 54.8193 24.9214 54.7971 24.9694L54.7561 25.0615C54.7387 25.0964 54.7109 25.1259 54.676 25.1463C54.6411 25.1668 54.6007 25.1773 54.5595 25.1766M41.6441 24.8695C41.6021 24.8695 41.561 24.8579 41.526 24.836C41.491 24.8142 41.4637 24.7831 41.4476 24.7467L41.4066 24.6546C41.3876 24.6046 41.3897 24.5497 41.4125 24.5011C41.4354 24.4525 41.4772 24.414 41.5295 24.3935C41.5558 24.3837 41.5839 24.3788 41.6123 24.3793C41.6406 24.3798 41.6686 24.3855 41.6945 24.3962C41.7205 24.407 41.7439 24.4224 41.7633 24.4418C41.7828 24.4611 41.798 24.4838 41.8079 24.5087V24.5932C41.8185 24.6178 41.8236 24.6442 41.8231 24.6708C41.8226 24.6974 41.8165 24.7236 41.805 24.7479C41.7936 24.7722 41.7771 24.7941 41.7565 24.8124C41.7359 24.8306 41.7116 24.8449 41.6851 24.8542C41.6585 24.8624 41.6298 24.8624 41.6032 24.8542M55.0919 23.8024C55.0358 23.7896 54.9872 23.7567 54.9566 23.7108C54.926 23.6649 54.9158 23.6096 54.9281 23.5567V23.4646C54.94 23.4127 54.9735 23.3673 55.0211 23.3385C55.0687 23.3097 55.1266 23.2998 55.182 23.311C55.2374 23.3222 55.2857 23.3536 55.3165 23.3982C55.3472 23.4429 55.3577 23.4971 55.3458 23.549V23.6488C55.3332 23.6928 55.3055 23.7316 55.267 23.7594C55.2285 23.7871 55.1814 23.8023 55.1328 23.8024M41.3247 23.4723C41.2743 23.4747 41.2246 23.4597 41.1853 23.4299C41.146 23.4001 41.1198 23.3578 41.1118 23.311V23.2112C41.1071 23.185 41.1081 23.1581 41.1147 23.1322C41.1213 23.1063 41.1333 23.0819 41.1501 23.0605C41.1669 23.039 41.1881 23.0209 41.2125 23.0073C41.2368 22.9936 41.2639 22.9846 41.292 22.9809C41.32 22.9765 41.3486 22.9775 41.3762 22.9836C41.4038 22.9898 41.4299 23.0011 41.4528 23.0168C41.4756 23.0326 41.4949 23.0525 41.5095 23.0753C41.5241 23.0981 41.5337 23.1235 41.5377 23.1498V23.2419C41.5451 23.2936 41.5316 23.3459 41.4997 23.3886C41.4678 23.4313 41.42 23.4611 41.3657 23.4723H41.3247ZM55.313 22.4204C55.2558 22.4185 55.2016 22.3957 55.1619 22.3571C55.1222 22.3184 55.1 22.2668 55.1001 22.2131V22.121C55.0938 22.091 55.0947 22.0601 55.1028 22.0304C55.1108 22.0007 55.1257 21.9731 55.1464 21.9495C55.1672 21.9259 55.1932 21.9069 55.2227 21.8938C55.2523 21.8808 55.2845 21.874 55.3171 21.874C55.3497 21.874 55.382 21.8808 55.4115 21.8938C55.441 21.9069 55.467 21.9259 55.4878 21.9495C55.5085 21.9731 55.5234 22.0007 55.5315 22.0304C55.5395 22.0601 55.5404 22.091 55.5341 22.121V22.2669C55.5341 22.3198 55.5117 22.3706 55.4718 22.408C55.4318 22.4455 55.3777 22.4665 55.3212 22.4665M41.2264 22.1287C41.1916 22.133 41.1562 22.1294 41.1232 22.1183C41.0901 22.1073 41.0604 22.089 41.0364 22.0649C41.0124 22.0409 40.9948 22.0119 40.9851 21.9803C40.9754 21.9486 40.974 21.9153 40.9807 21.883V21.7832C40.9807 21.7303 41.0032 21.6795 41.0431 21.6421C41.0831 21.6046 41.1372 21.5836 41.1937 21.5836C41.2502 21.5836 41.3043 21.6046 41.3443 21.6421C41.3842 21.6795 41.4066 21.7303 41.4066 21.7832V21.8753C41.4045 21.929 41.3803 21.9798 41.339 22.017C41.2978 22.0542 41.2428 22.075 41.1855 22.075M55.2229 21.4991C55.1712 21.5014 55.1205 21.4853 55.081 21.4539C55.0415 21.4226 55.0161 21.3784 55.01 21.3302V21.2304C55.003 21.1786 55.0179 21.1263 55.0516 21.0846C55.0853 21.043 55.135 21.0154 55.1902 21.0078C55.2182 21.0034 55.2468 21.0044 55.2744 21.0105C55.302 21.0167 55.3281 21.028 55.351 21.0437C55.3738 21.0595 55.3932 21.0793 55.4077 21.1022C55.4223 21.125 55.4319 21.1503 55.4359 21.1767V21.2765C55.4393 21.3027 55.4371 21.3294 55.4295 21.3548C55.4218 21.3803 55.4089 21.404 55.3913 21.4247C55.3738 21.4455 55.3521 21.4627 55.3274 21.4755C55.3027 21.4882 55.2755 21.4963 55.2475 21.4991M41.3902 20.7314H41.3329C41.2783 20.717 41.2317 20.6834 41.2027 20.6377C41.1738 20.592 41.1647 20.5376 41.1773 20.4857V20.3859C41.1948 20.3376 41.2314 20.2974 41.2796 20.2735C41.3278 20.2497 41.3839 20.2441 41.4363 20.2579C41.4888 20.2717 41.5336 20.3037 41.5616 20.3476C41.5896 20.3914 41.5986 20.4436 41.5868 20.4934V20.5855C41.5758 20.6289 41.5497 20.6675 41.5126 20.6954C41.4755 20.7232 41.4296 20.7386 41.3821 20.7391M54.9035 20.1402C54.8591 20.1412 54.8155 20.1291 54.7788 20.1057C54.7421 20.0823 54.7141 20.0488 54.6988 20.0097V19.9176C54.6884 19.8924 54.6836 19.8656 54.6847 19.8386C54.6857 19.8117 54.6926 19.7852 54.7048 19.7608C54.717 19.7364 54.7344 19.7146 54.7559 19.6967C54.7774 19.6788 54.8025 19.6651 54.8298 19.6566C54.8842 19.6391 54.9436 19.6422 54.9956 19.6651C55.0475 19.688 55.088 19.729 55.1083 19.7794V19.8715C55.1186 19.8967 55.1234 19.9235 55.1224 19.9505C55.1213 19.9774 55.1145 20.0039 55.1022 20.0283C55.09 20.0527 55.0726 20.0745 55.0511 20.0924C55.0296 20.1103 55.0045 20.124 54.9772 20.1326H54.9035M41.9308 19.3648C41.8984 19.3717 41.8648 19.3717 41.8325 19.3648C41.8071 19.3533 41.7844 19.3373 41.7657 19.3175C41.747 19.2978 41.7326 19.2747 41.7235 19.2497C41.7143 19.2247 41.7106 19.1983 41.7124 19.1719C41.7143 19.1455 41.7217 19.1198 41.7342 19.0961L41.7834 19.004C41.8111 18.9567 41.8574 18.9214 41.9125 18.9056C41.9675 18.8899 42.027 18.8949 42.0782 18.9195C42.1037 18.9308 42.1264 18.947 42.1449 18.9669C42.1635 18.9869 42.1774 19.0102 42.1859 19.0354C42.1943 19.0607 42.1971 19.0873 42.1941 19.1136C42.1911 19.1398 42.1823 19.1653 42.1683 19.1882L42.1191 19.2727C42.1041 19.3076 42.0779 19.3374 42.0443 19.358C42.0106 19.3786 41.971 19.389 41.9308 19.3878M54.2647 18.8735C54.2281 18.8728 54.1922 18.8632 54.1606 18.8457C54.1291 18.8283 54.1029 18.8034 54.0845 18.7737L54.0272 18.6969C53.9984 18.6537 53.9883 18.6018 53.9989 18.5518C54.0096 18.5019 54.0402 18.4576 54.0845 18.4282C54.1335 18.3991 54.1928 18.3893 54.2495 18.4008C54.3061 18.4122 54.3557 18.4441 54.3876 18.4896L54.4367 18.574C54.4518 18.5962 54.4622 18.6209 54.4671 18.6468C54.472 18.6728 54.4713 18.6993 54.4653 18.725C54.4592 18.7507 54.4477 18.775 54.4316 18.7965C54.4154 18.818 54.3949 18.8364 54.3712 18.8504C54.3337 18.8607 54.294 18.8607 54.2565 18.8504M42.7252 18.1825C42.6795 18.1935 42.6316 18.1935 42.586 18.1825C42.5474 18.144 42.5259 18.0932 42.5259 18.0405C42.5259 17.9877 42.5474 17.9369 42.586 17.8984L42.6515 17.8216C42.6713 17.8028 42.6949 17.7879 42.7209 17.7777C42.7469 17.7675 42.7748 17.7623 42.803 17.7623C42.8312 17.7623 42.8591 17.7675 42.8851 17.7777C42.9111 17.7879 42.9347 17.8028 42.9545 17.8216C42.9931 17.8601 43.0146 17.9109 43.0146 17.9637C43.0146 18.0165 42.9931 18.0673 42.9545 18.1057L42.889 18.1748C42.8699 18.1986 42.8452 18.218 42.8168 18.2313C42.7883 18.2446 42.757 18.2516 42.7252 18.2516M53.372 17.814C53.3423 17.8137 53.313 17.8074 53.2861 17.7955C53.2592 17.7836 53.2354 17.7663 53.2164 17.7449L53.1099 17.6604C53.0865 17.6427 53.0673 17.6205 53.0537 17.5953C53.0401 17.5701 53.0323 17.5425 53.0309 17.5143C53.0295 17.4861 53.0345 17.458 53.0456 17.4317C53.0567 17.4054 53.0735 17.3817 53.0951 17.362C53.1167 17.3423 53.1425 17.3271 53.1708 17.3175C53.1991 17.3078 53.2293 17.3039 53.2593 17.306C53.2894 17.3081 53.3186 17.3161 53.3451 17.3295C53.3716 17.343 53.3947 17.3616 53.413 17.384L53.4867 17.4531C53.5067 17.4717 53.5227 17.4938 53.5335 17.5182C53.5444 17.5426 53.55 17.5687 53.55 17.5952C53.55 17.6216 53.5444 17.6477 53.5335 17.6721C53.5227 17.6965 53.5067 17.7186 53.4867 17.7372C53.4678 17.7563 53.445 17.7715 53.4197 17.7821C53.3943 17.7926 53.367 17.7983 53.3393 17.7986M43.7571 17.2382C43.7138 17.2372 43.6717 17.2239 43.6367 17.1999C43.6016 17.176 43.5752 17.1426 43.5609 17.1042C43.5467 17.0658 43.5453 17.0242 43.5569 16.985C43.5686 16.9459 43.5927 16.911 43.6261 16.885L43.708 16.8236C43.7278 16.8048 43.7514 16.7898 43.7774 16.7797C43.8034 16.7695 43.8313 16.7642 43.8595 16.7642C43.8877 16.7642 43.9156 16.7695 43.9416 16.7797C43.9676 16.7898 43.9912 16.8048 44.011 16.8236C44.0496 16.862 44.0711 16.9128 44.0711 16.9656C44.0711 17.0184 44.0496 17.0692 44.011 17.1076L43.9291 17.1691C43.8889 17.1967 43.8396 17.2103 43.7899 17.2075M52.1927 16.8927C52.1553 16.9034 52.1154 16.9034 52.078 16.8927L51.9879 16.8389C51.9413 16.8093 51.9092 16.7636 51.8984 16.7118C51.8877 16.66 51.8993 16.6064 51.9306 16.5625C51.9455 16.5401 51.9651 16.5207 51.9883 16.5057C52.0116 16.4907 52.0378 16.4804 52.0655 16.4753C52.0932 16.4703 52.1217 16.4707 52.1492 16.4764C52.1767 16.4822 52.2027 16.4932 52.2254 16.5088L52.3155 16.5625C52.3621 16.5922 52.3943 16.6379 52.405 16.6896C52.4158 16.7414 52.4042 16.7951 52.3729 16.8389C52.3541 16.8678 52.3276 16.8915 52.296 16.9077C52.2643 16.9239 52.2287 16.9319 52.1927 16.9311M44.9938 16.5088C44.9551 16.5079 44.9173 16.4975 44.8843 16.4786C44.8512 16.4598 44.824 16.4331 44.8054 16.4013C44.7914 16.3784 44.7826 16.3529 44.7796 16.3266C44.7766 16.3003 44.7794 16.2737 44.7878 16.2485C44.7963 16.2233 44.8102 16.2 44.8288 16.18C44.8473 16.1601 44.87 16.1439 44.8955 16.1326L44.9938 16.0865C45.0448 16.0631 45.1037 16.0597 45.1575 16.077C45.2112 16.0942 45.2555 16.1308 45.2804 16.1787C45.3054 16.2265 45.3091 16.2817 45.2907 16.3321C45.2722 16.3825 45.2332 16.424 45.1822 16.4474L45.1003 16.4858C45.0659 16.4975 45.0282 16.4975 44.9938 16.4858M50.8823 16.2401H50.8086L50.7103 16.1249C50.6838 16.1156 50.6595 16.1014 50.6389 16.0831C50.6183 16.0649 50.6018 16.0429 50.5903 16.0186C50.5789 15.9943 50.5727 15.9681 50.5723 15.9415C50.5718 15.915 50.5769 15.8886 50.5875 15.8639C50.5974 15.839 50.6126 15.8163 50.6321 15.7969C50.6515 15.7776 50.6749 15.7622 50.7009 15.7514C50.7268 15.7407 50.7548 15.7349 50.7831 15.7345C50.8114 15.734 50.8396 15.7389 50.8659 15.7487L50.9642 15.7871C51.0164 15.8076 51.0583 15.8461 51.0811 15.8947C51.104 15.9432 51.1061 15.9982 51.087 16.0482C51.0694 16.0851 51.0407 16.1165 51.0043 16.1383C50.9679 16.1601 50.9255 16.1715 50.8823 16.171M46.3861 15.9176C46.3368 15.9128 46.2907 15.8925 46.2551 15.8602C46.2196 15.8278 46.1967 15.7852 46.1901 15.7391C46.1835 15.6931 46.1935 15.6463 46.2187 15.6063C46.2438 15.5663 46.2826 15.5353 46.3287 15.5184H46.4352C46.4626 15.5115 46.4913 15.5098 46.5194 15.5135C46.5475 15.5171 46.5746 15.526 46.599 15.5396C46.6234 15.5532 46.6447 15.5712 46.6616 15.5926C46.6785 15.614 46.6906 15.6384 46.6973 15.6643C46.7099 15.7161 46.7008 15.7705 46.6718 15.8163C46.6429 15.862 46.5963 15.8955 46.5417 15.91H46.4434H46.3861M49.4491 15.7794H49.3508C49.3227 15.7757 49.2957 15.7667 49.2713 15.7531C49.2469 15.7394 49.2258 15.7213 49.209 15.6998C49.1922 15.6784 49.1801 15.654 49.1736 15.6281C49.167 15.6022 49.166 15.5754 49.1706 15.5491C49.1746 15.5228 49.1842 15.4974 49.1987 15.4746C49.2133 15.4518 49.2326 15.4319 49.2555 15.4162C49.2784 15.4004 49.3044 15.3891 49.332 15.383C49.3597 15.3768 49.3883 15.3759 49.4163 15.3802H49.5228C49.5507 15.3839 49.5774 15.3928 49.6014 15.4066C49.6254 15.4204 49.6462 15.4386 49.6623 15.4603C49.6784 15.4819 49.6897 15.5064 49.6952 15.5322C49.7008 15.5581 49.7007 15.5847 49.6948 15.6105C49.6869 15.658 49.661 15.7012 49.6219 15.7322C49.5828 15.7633 49.5331 15.78 49.4818 15.7794M47.893 15.6873C47.8379 15.6874 47.785 15.6674 47.7452 15.6316C47.7055 15.5958 47.6822 15.547 47.6801 15.4954C47.6778 15.4689 47.6814 15.4423 47.6907 15.4172C47.6999 15.3921 47.7147 15.3691 47.7339 15.3496C47.7532 15.3301 47.7765 15.3146 47.8025 15.304C47.8284 15.2934 47.8565 15.288 47.8848 15.2881H47.9913C48.0479 15.2899 48.1019 15.3112 48.1427 15.3481C48.1836 15.385 48.2084 15.4347 48.2124 15.4877C48.2126 15.5401 48.1915 15.5906 48.1535 15.6291C48.1155 15.6676 48.0634 15.6911 48.0077 15.695H47.8602" fill="white"/>
<path d="M55.2705 32.3098L131.707 32.1716C131.742 32.1654 131.778 32.1667 131.813 32.1752C131.848 32.1837 131.881 32.1994 131.908 32.221C131.936 32.2426 131.958 32.2697 131.974 32.3003C131.989 32.3309 131.997 32.3643 131.997 32.398C131.997 32.4318 131.989 32.4652 131.974 32.4958C131.958 32.5264 131.936 32.5535 131.908 32.5751C131.881 32.5967 131.848 32.6123 131.813 32.6209C131.778 32.6294 131.742 32.6307 131.707 32.6245C131.707 32.4556 54.7218 32.7934 55.2705 32.3098Z" fill="white"/>
</svg>
