<svg width="74" height="88" viewBox="0 0 74 88" fill="none" xmlns="http://www.w3.org/2000/svg">
<path d="M71.6236 38.7847C70.3677 41.0293 72.5896 42.3119 73.3335 43.961C73.6733 44.5859 73.8729 45.2709 73.9194 45.9726C73.966 46.6744 73.8586 47.3776 73.604 48.038C73.4219 48.464 73.2986 48.9105 73.2369 49.3664C72.0583 59.7649 64.9191 66.4071 53.9736 67.0026C51.4425 67.0942 50.1963 67.7813 49.607 70.0717C49.1626 71.8124 47.8005 72.9576 46.3514 74.1945C44.6705 75.6145 42.806 77.401 43.0185 80.0121C43.1924 82.0765 43.3469 84.1379 43.4822 86.1962C43.4687 86.507 43.4135 86.8148 43.318 87.1124C43.0803 87.1351 42.8408 87.1351 42.6031 87.1124C42.4389 84.4555 42.2746 81.7986 42.1007 79.0043C39.8498 79.8289 38.478 78.5921 37.3767 77.172C36.499 75.8882 35.7301 74.5402 35.0775 73.1409C34.7803 72.4853 34.5286 71.812 34.3239 71.1253C32.8555 67.0026 32.2469 66.6361 27.2427 67.2316C30.4404 69.8885 31.107 73.2783 31.3678 76.8513C31.6286 80.4244 32.2373 83.7226 31.532 87.1582H31.02C30.9423 86.801 30.8842 86.4401 30.8461 86.0771C30.6432 82.046 30.5853 78.0607 30.1892 74.0754C29.9528 72.5143 29.3771 71.0168 28.4986 69.6778C28.0142 68.8444 27.3099 68.1446 26.4548 67.6467C25.5996 67.1489 24.6228 66.8701 23.62 66.8377C17.2633 66.3338 11.4766 64.4556 6.9168 59.9664C5.223 58.296 3.94209 56.2892 3.16682 54.0915C2.39156 51.8937 2.14134 49.56 2.43428 47.2592C2.34079 46.3862 2.09257 45.5344 1.70007 44.7398C1.57434 44.5459 1.43218 44.3621 1.275 44.1901C-0.0581588 42.1745 -0.502547 40.0673 0.705029 37.7769C1.16187 36.9275 1.89258 36.2385 2.79086 35.81C3.68913 35.3816 4.70812 35.2362 5.69956 35.3949C5.51601 33.4251 5.38076 31.4554 5.12959 29.4856C4.96161 28.9147 4.69736 28.3733 4.34708 27.8824C2.81104 25.088 3.12018 23.0267 5.31314 20.5988C5.65013 20.0787 5.77067 19.4581 5.65126 18.8581C5.43223 18.1735 5.17424 17.5007 4.87841 16.8426C3.91235 13.3611 5.19721 11.1623 8.92621 10.521C10.5878 10.2004 11.1192 9.60487 11.2641 8.00158C11.5636 4.70338 13.6985 3.32914 17.0604 4.10788C18.6158 4.47434 20.1132 5.02404 21.7072 5.52793C23.9291 3.83303 23.9291 3.83303 28.4696 4.33692C28.5469 3.78722 28.6242 3.23752 28.6918 2.64201C28.6911 2.041 28.9347 1.46284 29.3719 1.02774C29.8091 0.592645 30.4063 0.334077 31.0393 0.305795C32.8666 0.321616 34.6918 0.42865 36.5072 0.626452C36.884 0.67226 37.4153 0.763877 37.6182 0.626452C38.7775 -0.427137 39.8498 -0.0148631 40.7289 0.855493C42.2752 2.27918 43.6997 3.81706 44.9893 5.45464C46.6992 7.74505 48.1676 10.2187 49.7326 12.6007C50.0052 13.081 50.4029 13.4871 50.8877 13.7805C51.3726 14.0739 51.9285 14.2448 52.5026 14.2769C53.0768 14.309 53.65 14.2014 54.1679 13.9641C54.6858 13.7268 55.131 13.3679 55.4613 12.9214C56.9974 11.1807 58.4755 9.34834 60.2047 7.74505C61.934 6.14176 64.1462 4.70339 67.0444 5.71117C67.5564 5.8944 68.3293 5.48212 68.9765 5.29889C71.6912 4.47434 72.976 5.20728 73.3625 7.90996C73.4313 8.30956 73.4508 8.71542 73.4204 9.1193C73.1692 11.3639 72.7538 13.5627 73.7199 15.8531C74.1063 16.7693 73.4397 18.0519 73.2562 19.1971C73.0693 19.1889 72.8842 19.1581 72.7055 19.1055C72.394 18.0009 72.0134 16.9148 71.5656 15.8531C69.7204 12.1885 66.2812 11.5013 63.0546 14.1582C60.1564 16.4944 58.6107 19.6552 57.5384 22.9992C56.9443 24.8935 56.5749 26.8448 56.4371 28.8168C57.275 26.7482 58.2428 24.7291 59.3353 22.7702C60.4536 21.0073 61.8294 19.4033 63.4217 18.0061C63.7886 17.6573 64.2259 17.3822 64.7075 17.1974C65.1891 17.0125 65.705 16.9216 66.2245 16.9302C66.7439 16.9387 67.2562 17.0465 67.7308 17.2471C68.2053 17.4477 68.6323 17.737 68.9862 18.0977C70.986 20.0675 73.4494 21.9914 72.3674 25.3354V25.3812C72.4544 23.0908 71.8457 22.083 70.0006 21.854C69.0369 21.6386 68.0273 21.7025 67.1024 22.0372C64.2042 23.5031 61.306 25.1522 58.4658 26.8013C58.2436 26.8929 58.1953 27.351 57.9055 27.9923C58.5279 27.6066 59.173 27.2549 59.8376 26.9387C62.2914 25.9767 64.6679 24.9231 67.228 24.0986C68.4645 23.7321 69.9426 23.6405 70.8507 25.0148L68.4452 24.5567C71.7781 29.0001 72.0196 33.306 69.4113 37.0165C66.6194 40.956 62.987 41.8722 56.0506 40.2231C56.6593 40.8644 57.0167 41.2767 57.4225 41.689C57.8185 42.4219 58.0214 43.3839 58.6493 43.8419C60.3689 45.0788 62.417 45.1246 64.494 44.7581C68.0974 44.1168 69.9812 41.6431 71.6236 38.8947M15.9591 26.0683C15.784 26.6402 15.6453 27.2215 15.5437 27.8091C14.6549 35.4132 20.7315 41.6431 29.397 42.0554C31.9392 42.1984 34.4807 41.7663 36.8121 40.7946C39.1435 39.8229 41.1979 38.3395 42.806 36.4668C39.5407 41.7806 32.4305 44.1626 25.5231 42.3303C17.9879 40.3147 14.6839 35.5507 15.0027 26.9387C14.2685 26.8013 13.5247 26.6639 12.4233 26.4806C12.4349 28.5048 12.5996 30.5255 12.916 32.5273C14.9834 41.0934 24.3639 46.5904 33.696 44.6665C35.5717 44.292 37.3531 43.5764 38.9417 42.5593C41.1153 41.1393 42.806 39.2153 42.806 36.4668C43.6174 34.268 43.0475 33.2144 40.0623 31.3363C37.5119 39.1695 32.3339 42.5593 25.8612 40.4979C24.5251 40.1002 23.2885 39.4482 22.2271 38.5818C21.1657 37.7155 20.3017 36.6529 19.6881 35.459C17.7077 31.6569 18.2777 27.9923 20.6542 24.4193C20.5189 24.3276 20.3837 24.1902 20.2581 24.0986L15.9012 26.2058C17.273 24.1902 19.4563 23.5489 21.7748 23.3199C26.2793 22.8453 30.814 23.918 34.5558 26.3432C37.5313 28.2965 40.401 30.3911 43.1537 32.6189C43.1015 32.2528 42.9873 31.897 42.8156 31.5653C39.0287 24.8773 29.1459 19.9759 21.1179 20.892C19.3714 21.0039 17.693 21.5784 16.2738 22.5502C14.8545 23.522 13.7514 24.852 13.0899 26.389L15.9881 26.0683M70.1358 13.0588C71.1019 14.6163 72.1452 16.1738 73.034 17.5938C73.6716 14.8911 72.8988 13.6085 70.1358 13.0588L66.658 9.87971C64.2332 10.4294 62.2528 10.8417 60.3013 11.2998C59.4705 12.3534 58.7749 13.9108 57.5287 14.6896C54.7368 16.3845 54.3697 18.9497 53.9929 21.6524C53.7706 22.7571 53.6222 23.874 53.5485 24.9964C53.5002 29.8979 53.5485 34.7994 53.5485 39.7467H53.1331C51.8702 31.4102 52.2931 22.9218 54.3794 14.7354C53.1911 14.827 52.2347 14.8728 51.2783 14.9186C52.5621 20.605 52.3565 26.5032 50.6793 32.0967H50.0997L48.7086 30.3102C48.5727 30.3613 48.4293 30.3922 48.2835 30.4018V39.8841C47.9474 39.132 47.7923 38.3182 47.8295 37.5021C47.5783 33.6084 47.7232 29.6689 46.9214 25.9126C45.907 21.0569 44.5835 16.018 38.2268 14.0941C38.6616 14.5522 38.8451 14.7812 39.0576 14.9644C42.9678 18.4057 45.472 23.0452 46.1292 28.0656C46.6412 31.5012 46.4963 34.891 44.7477 38.0518C44.854 37.5479 44.912 36.9982 45.0569 36.4943C46.3912 31.5686 45.8223 26.3527 43.4532 21.7903C41.084 17.2279 37.0712 13.6203 32.1406 11.6204C24.4122 8.55128 11.95 10.3378 10.2497 22.2479C9.74023 26.2934 10.5103 30.3912 12.462 34.0207C12.4081 33.0984 12.2919 32.1803 12.1142 31.2722C11.351 25.5003 12.3944 20.2782 17.9106 16.9342C23.4268 13.5902 29.1555 13.7734 34.5848 17.1632C39.9078 20.4156 42.9219 25.2713 44.0522 31.1805C44.6781 34.5941 43.8926 38.105 41.8592 40.9835C41.5461 41.528 41.278 42.0946 41.0574 42.6784C39.7901 43.5906 38.446 44.4026 37.0386 45.1062C30.3534 47.8089 18.3163 45.8392 14.0463 37.8685C13.8301 37.6518 13.5612 37.4884 13.2632 37.3926C12.9652 37.2968 12.6471 37.2715 12.3364 37.3188C8.13404 38.7847 5.24551 41.4416 4.40504 45.7018C3.24577 51.611 5.02332 56.5583 9.91159 60.4062C15.708 64.987 22.6443 66.2238 29.8221 66.0864C30.4964 66.0161 31.1776 66.1369 31.7794 66.4337C32.3813 66.7305 32.8768 67.1899 33.2033 67.7538C33.9118 68.8562 34.538 70.0042 35.0775 71.1895C35.758 72.7092 36.5256 74.1925 37.3767 75.6329C39.6276 78.9769 40.9415 78.9769 43.4532 75.9077C44.1971 74.9457 44.8733 73.9838 45.6655 73.1134C46.4577 72.243 47.5493 71.7392 47.7908 70.8688C48.9308 66.8377 49.8099 62.7607 50.7566 58.867C48.9598 58.0883 47.6846 57.5844 46.2838 57.0347C49.8196 57.1721 53.0462 57.3096 56.9104 57.4928C55.6256 57.8593 54.8044 58.0425 54.0123 58.3173C53.5485 58.5006 52.882 58.8212 52.7854 59.1419C52.1864 61.4781 51.7034 63.8143 51.1237 66.4712C52.853 66.1964 54.3214 66.0131 55.7512 65.7383C63.7212 64.0892 69.276 59.7832 71.8264 52.3165C72.3689 50.5873 72.798 48.828 73.1113 47.0485C73.5363 44.7581 71.7491 43.3839 71.1792 41.9638C70.0682 42.7883 69.0345 43.5671 68.0105 44.3458C63.7308 47.5524 58.5624 46.4072 56.2632 41.7348C55.6442 40.6446 55.2755 39.4425 55.1812 38.2075C55.1176 34.2764 55.3015 30.3452 55.7318 26.4348C56.2169 22.3006 57.9513 18.3874 60.7264 15.166C63.6246 11.822 66.117 11.2723 70.1551 13.013M28.2861 40.3422C33.9568 40.388 38.1882 37.1356 39.1253 32.6464C39.2945 32.1103 39.2872 31.5379 39.1042 31.0058C38.9212 30.4737 38.5713 30.0073 38.1012 29.6689C33.8791 26.4326 28.7229 24.4843 23.3108 24.0803C22.8463 24.105 22.3929 24.2242 21.9812 24.4297C21.5695 24.6352 21.2092 24.9222 20.9247 25.2713C19.8228 26.6775 19.1759 28.3572 19.0626 30.1058C18.9494 31.8545 19.3749 33.5966 20.2871 35.1201C20.9987 36.5982 22.1207 37.865 23.5332 38.7849C24.9456 39.7048 26.5952 40.2431 28.3054 40.3422M56.3211 36.4485C56.2535 39.426 57.0843 40.3422 60.1854 40.6628C60.6769 40.7087 61.172 40.7087 61.6635 40.6628C63.0754 40.5576 64.4463 40.1619 65.6805 39.5032C66.9148 38.8444 67.9829 37.9385 68.8105 36.8485C69.638 35.7585 70.2052 34.5105 70.4724 33.1915C70.7397 31.8725 70.7006 30.5141 70.358 29.2108C69.247 24.9964 68.2327 24.3551 64.2042 25.821C57.3162 28.3862 56.3984 29.4856 56.2728 36.4485M42.1394 29.394C40.5454 24.6758 37.937 20.5988 33.4448 17.942C28.9526 15.2851 24.3639 14.827 19.5915 16.8884C16.104 18.3542 13.6599 20.7821 13.0706 24.5842C15.7756 21.1027 19.5432 19.9117 23.8615 20.1408C29.5695 20.3687 34.9877 22.5872 39.077 26.3707C40.1493 27.3327 41.1347 28.3862 42.1587 29.394M49.665 30.8141L50.2929 30.7225C51.1141 26.2333 51.8193 21.6524 50.7276 17.2548C50.0128 14.4147 47.8295 11.8495 46.1292 9.28421C45.865 8.9964 45.5272 8.77783 45.1482 8.64948C44.7693 8.52114 44.3619 8.48732 43.9652 8.55128C42.2939 9.14678 41.4825 13.1321 42.5934 14.5522C45.6062 18.1147 47.5308 22.3926 48.1579 26.9204C48.3222 28.2488 49.124 29.4856 49.665 30.8141ZM45.0279 7.36026C45.1535 7.22284 45.2694 7.03961 45.395 6.90218C43.6561 5.06985 41.9462 3.1001 40.1493 1.31358C39.2895 0.397411 38.2172 0.489027 37.8597 1.68004C37.2608 3.87884 36.9516 6.16925 36.5555 8.41385C36.5498 8.5244 36.5692 8.63483 36.6126 8.7376C36.6559 8.84037 36.7222 8.93307 36.8067 9.00936C38.1785 10.1546 39.5793 11.254 41.0091 12.445C42.1394 10.521 41.9751 7.77254 45.0279 7.36026ZM35.6861 8.36804C36.0629 6.39829 36.4879 4.33692 36.7777 2.22974C36.7572 1.99174 36.6806 1.76116 36.5535 1.55501C36.4264 1.34886 36.2522 1.17242 36.0435 1.03873C34.836 0.305794 31.0104 0.443219 30.2472 1.49681C29.484 2.5504 29.0879 4.53848 29.5033 4.84081C31.4354 6.16925 32.4015 9.2384 35.6861 8.36804ZM21.4657 6.94799C18.9443 5.57374 16.7127 4.47434 14.2685 5.25308C12.1142 5.8944 12.404 8.04739 12.1432 9.83391C12.1432 9.92552 12.0273 10.0629 12.0659 10.1546C12.2398 10.7501 12.2881 11.5288 12.7035 11.8037C13.0044 11.8959 13.3224 11.9273 13.6369 11.8958C13.9514 11.8642 14.2555 11.7704 14.5294 11.6204C16.1572 10.789 17.7343 9.87143 19.2534 8.87193C20.032 8.30732 20.7709 7.69525 21.4657 7.03961M70.9956 21.6066C71.0819 21.4335 71.1787 21.2653 71.2854 21.1027C70.416 20.3698 69.5658 19.6369 68.6577 18.9956C68.0961 18.4734 67.3586 18.1551 66.5745 18.0965C65.7904 18.0379 65.0095 18.2426 64.3684 18.6749C61.8663 20.324 60.3593 22.6602 58.8619 25.6836C62.8904 23.3015 66.3102 20.7363 70.9956 21.6066ZM8.8779 37.5204C6.61732 35.8255 3.93167 35.7797 2.34733 37.383C0.55046 39.2611 0.772653 42.4219 2.83036 44.4833C3.79642 42.9716 4.76248 41.4141 5.79617 39.6734C5.15857 39.3527 4.54995 39.0779 3.93167 38.7572C5.73821 38.803 7.61236 39.6734 8.8779 37.5204ZM71.5463 12.9672C71.8168 12.8298 72.0873 12.7381 72.3578 12.6007C72.4704 11.0762 72.4962 9.54705 72.435 8.0199C72.3481 7.10374 71.9327 5.86691 70.5029 6.18757C69.0732 6.50823 67.3825 6.73727 66.8705 8.47798C66.8263 8.61573 66.8147 8.76103 66.8364 8.90354C66.8581 9.04605 66.9126 9.18227 66.9961 9.30253C68.4935 10.5394 70.0392 11.7304 71.5656 12.9672M10.1145 11.5929C7.52542 11.6846 6.35648 12.3717 5.86379 13.9292C5.65785 15.0653 5.78295 16.2332 6.22559 17.3069C6.66824 18.3806 7.41163 19.3193 8.37555 20.0217C10.3077 17.5022 9.03247 14.3872 10.1145 11.5929ZM36.0918 12.4175C34.8939 11.4097 33.667 10.4477 32.5271 9.39415C32.1128 9.0003 31.5966 8.71677 31.0302 8.57203C30.4638 8.4273 29.8673 8.42646 29.3004 8.5696C26.7693 8.89026 23.9871 9.48576 21.9777 7.56182C20.0456 8.79864 18.1714 10.0355 16.2876 11.2723C23.1176 8.43218 29.6579 8.89026 36.0918 12.4175ZM6.53038 21.2127C4.25047 23.3473 3.98964 25.0881 5.42907 27.4426C5.93073 28.0097 6.53212 28.4901 7.20662 28.8626C7.62202 28.0839 8.50114 27.2136 8.37555 26.5722C7.88463 24.7472 7.26166 22.9564 6.51105 21.2127M30.6626 7.60763C28.885 5.95853 27.0495 4.90494 24.7696 5.17979C23.9968 5.27141 23.3205 6.23338 22.6926 6.8747C22.6346 6.96631 23.2142 7.88248 23.591 7.92828C25.9225 8.55155 28.4044 8.43901 30.6626 7.60763ZM12.7132 36.4943C11.4283 33.471 10.2014 30.6308 9.02281 27.8824L7.21628 29.8063C8.11169 30.5667 8.79597 31.5244 9.20875 32.5949C9.62153 33.6654 9.7501 34.8158 9.58313 35.9446C9.48652 36.9982 10.0275 37.1814 10.9163 36.9982C11.5152 36.8608 12.0949 36.6775 12.7132 36.4943ZM65.9624 6.58152C64.9287 6.57215 63.9086 6.8057 62.9933 7.26132C62.0779 7.71694 61.2958 8.38045 60.7167 9.19259C60.6776 9.41751 60.6977 9.64812 60.7752 9.86389C60.8528 10.0797 60.9853 10.2739 61.1611 10.4294C63.5086 11.254 66.146 9.2384 65.9914 6.58152M9.79566 18.2809C11.351 16.3112 12.916 14.2956 14.2106 12.6465C13.3991 12.3717 12.2784 12.0052 10.8873 11.5929C9.33195 13.4253 10.6072 16.0822 9.79566 18.2809ZM8.8296 36.1003C9.22569 33.077 8.47216 31.3363 6.34682 30.1453C5.63194 32.5273 6.45309 34.5887 8.8296 36.1003ZM34.0534 9.53157L33.8119 10.0355L40.3039 14.5705C40.4198 14.3872 40.5357 14.2498 40.6516 14.0666C38.6616 12.3259 37.2028 9.85223 34.0631 9.57738M8.7813 24.9506C9.08078 22.9351 9.31263 21.286 9.52516 19.9575C8.76198 20.1866 7.91184 20.4156 6.80087 20.7363C7.39017 21.9731 7.98913 23.2557 8.7813 24.9506ZM55.471 14.9644L56.1956 15.5141C57.3065 14.1857 58.4175 12.9031 59.5188 11.5746C59.2989 11.3924 59.0665 11.224 58.8232 11.0707C57.7123 12.3534 56.5916 13.6818 55.471 14.9644Z" fill="white"/>
<path d="M58.0952 22.0182C58.018 22.6595 57.6895 23.4383 57.902 23.988C59.3028 27.9275 58.6362 31.6838 57.3417 35.4859C56.8144 35.7329 56.3212 36.0406 55.8733 36.402C52.2699 40.2499 46.6764 41.0745 43.1406 38.2343V38.2802C51.1299 41.8532 58.5203 34.8445 58.0083 28.1107C57.7011 25.9135 57.2297 23.7398 56.5979 21.606V21.6518C57.1099 21.7434 57.6219 21.8808 58.1339 22.0182" fill="white"/>
<path d="M56.9938 42.1001C57.2256 42.6498 57.67 43.1995 57.5444 43.566C56.3852 47.0474 52.463 49.7043 48.6857 49.292C46.9642 49.1549 45.3208 48.5506 43.952 47.5513C40.4452 44.5279 36.6872 45.1234 32.7746 46.2228C28.8621 47.3222 25.1138 48.7698 21.2495 49.4294C18.3994 49.9646 15.4639 49.9399 12.6242 49.3569C9.78452 48.7739 7.10106 47.6448 4.73958 46.0396C4.52511 45.9052 4.32456 45.7518 4.14062 45.5815C6.75957 46.6062 9.44803 47.4632 12.1879 48.1468C18.4963 49.292 24.5535 48.0094 30.3402 45.5815C32.6173 44.4959 35.1079 43.8718 37.6533 43.7492C38.9198 43.6751 40.1888 43.8483 41.3819 44.258C42.575 44.6677 43.6667 45.3053 44.5896 46.1312C45.3991 46.8918 46.3824 47.4655 47.4632 47.8081C48.544 48.1506 49.6934 48.2528 50.8225 48.1066C51.9515 47.9605 53.0301 47.57 53.9745 46.9653C54.919 46.3607 55.7042 45.558 56.2692 44.6196C56.6154 43.81 56.8587 42.9642 56.9938 42.1001Z" fill="white"/>
<path d="M12.1612 48.1284C11.4367 45.2425 12.3254 43.8224 15.2623 43.7766C12.7119 44.6012 12.3641 46.2961 12.1612 48.1284Z" fill="white"/>
</svg>
