<svg width="133" height="18" viewBox="0 0 133 18" fill="none" xmlns="http://www.w3.org/2000/svg">
<path d="M3.02869 15.3123V16.2665H0.29809V10.3437H2.88668C2.89041 10.3956 2.89041 10.4477 2.88668 10.4996C2.92472 11.1511 3.20458 11.7697 3.67786 12.2483C4.08065 12.668 4.56018 13.0168 5.09388 13.2785C5.87025 13.6653 6.69666 13.9567 7.55263 14.1453C8.19913 14.289 8.85327 14.4006 9.51233 14.4798C9.84503 14.5216 10.1777 14.5444 10.5145 14.5558C11.0744 14.5786 11.6384 14.6015 12.2024 14.59C13.1014 14.5845 13.994 14.4473 14.8477 14.1833C15.5303 13.993 16.1474 13.6377 16.637 13.1531C16.706 13.077 16.7669 12.9934 16.8358 12.9174C16.946 12.7921 17.0062 12.6349 17.0062 12.4726C17.0062 12.3103 16.946 12.1531 16.8358 12.0278C16.6842 11.8084 16.4764 11.6281 16.2313 11.5032C15.848 11.3031 15.4389 11.1498 15.0141 11.047C14.2263 10.8584 13.4249 10.7237 12.6162 10.6441L10.8107 10.4274C10.4049 10.3818 9.96675 10.3437 9.54479 10.2943C8.99705 10.2335 8.45336 10.1803 7.92185 10.1042C7.18747 9.9978 6.44903 9.88756 5.71465 9.75451C4.7117 9.58151 3.733 9.30221 2.79742 8.92197C2.12127 8.6549 1.50675 8.26761 0.98784 7.78151C0.364708 7.19061 0.0111617 6.39587 0.00190392 5.56522C-0.0150797 5.04856 0.0817113 4.53416 0.286243 4.0541C0.490774 3.57403 0.79866 3.13858 1.19071 2.7749C1.8997 2.10218 2.74355 1.56733 3.6738 1.20107C4.78593 0.740849 5.95556 0.413872 7.15501 0.22788C7.77607 0.115366 8.40548 0.0480046 9.03762 0.0263995C9.4677 0.0263995 9.89778 -0.0116158 10.3279 0.00359033C10.8188 0.00359033 11.3138 0.0568117 11.8007 0.113835C12.7618 0.223282 13.7117 0.406369 14.6408 0.661254C15.4991 0.884745 16.3397 1.16421 17.1564 1.49759C17.2943 1.55841 17.4242 1.63064 17.5621 1.69907C17.6298 1.73823 17.7068 1.76084 17.7862 1.76482C17.8656 1.76881 17.9448 1.75404 18.0165 1.72188C18.0549 1.70869 18.0876 1.68407 18.1096 1.65179C18.1316 1.61952 18.1416 1.58137 18.1383 1.54321C18.1383 1.39495 18.1383 1.24669 18.1383 1.09843C18.1383 1.04901 18.1383 0.995789 18.1383 0.931163H20.4915V6.14306H18.1869C18.1869 6.01 18.1626 5.88075 18.1342 5.7629C18.0093 5.22747 17.7169 4.73909 17.2943 4.36014C16.8854 3.99558 16.4135 3.69865 15.8986 3.48199C15.0721 3.13383 14.2026 2.88353 13.31 2.73689C12.564 2.60459 11.8087 2.52328 11.0501 2.49359C10.4617 2.49359 9.87343 2.45938 9.28512 2.49359C8.39909 2.50803 7.51797 2.62031 6.66001 2.82812C6.22878 2.92922 5.81777 3.09481 5.44281 3.31852C5.13695 3.49172 4.90684 3.76122 4.79363 4.07883C4.70706 4.27636 4.70562 4.49766 4.78962 4.69617C4.87361 4.89469 5.03649 5.05495 5.244 5.14325C5.62433 5.33807 6.03513 5.47535 6.4612 5.55002C7.1229 5.68112 7.79212 5.77632 8.46553 5.83513L10.9567 6.08223C11.7155 6.15446 12.4783 6.21909 13.237 6.31412C14.089 6.42437 14.937 6.55362 15.7769 6.7399C16.5109 6.89444 17.2312 7.1016 17.9313 7.35954C18.593 7.59989 19.2147 7.9276 19.7774 8.33274C20.6162 8.9219 21.194 9.77991 21.4004 10.7429C21.6524 11.7833 21.4601 12.8747 20.8648 13.7841C20.5349 14.2635 20.1141 14.6822 19.6232 15.0196C18.7317 15.6181 17.7346 16.0646 16.6776 16.3387C15.6029 16.6259 14.5031 16.8231 13.3912 16.928C12.5826 17.0069 11.7688 17.0285 10.9567 16.9926C10.6152 16.9736 10.2751 16.9355 9.93835 16.8786C8.29424 16.6281 6.66821 16.2828 5.06953 15.8446C4.77335 15.7647 4.47716 15.6811 4.18503 15.5898C4.06305 15.5441 3.94386 15.492 3.82798 15.434L3.70626 15.3808C3.4899 15.3243 3.26515 15.3012 3.04086 15.3123" fill="white"/>
<path d="M51.7044 3.37555V1.41396C51.7571 1.41396 51.8058 1.41396 51.8545 1.41396H59.9449C59.9915 1.41282 60.0379 1.42067 60.0812 1.43702C60.1245 1.45337 60.1637 1.47787 60.1964 1.509L62.2779 3.2729L64.55 5.17367L67.171 7.38235L69.1307 9.03602L71.0052 10.5946C71.0377 10.6213 71.0782 10.6403 71.1432 10.6859C71.1432 10.6022 71.1432 10.5414 71.1432 10.4806V9.15006C71.1432 7.53442 71.1432 5.91877 71.1432 4.29932C71.1513 4.15381 71.1091 4.00973 71.0229 3.8885C70.9366 3.76727 70.8109 3.67536 70.6644 3.62645C70.5031 3.55618 70.327 3.52109 70.1491 3.52381H67.8283V1.41016H77.4645V3.52381H75.2289C75.1154 3.52284 75.0022 3.53562 74.8922 3.56182C74.7395 3.59482 74.6035 3.67581 74.5068 3.79132C74.4101 3.90683 74.3585 4.04988 74.3606 4.19668C74.3606 4.30312 74.3606 4.40956 74.3606 4.516V16.4642H74.2024H70.9768C70.9294 16.4672 70.8819 16.4609 70.8372 16.4459C70.7926 16.4308 70.7517 16.4073 70.7171 16.3768C70.4291 16.1335 70.1329 15.894 69.8367 15.6469L68.1935 14.2821L67.0047 13.3051L65.4304 12.0012L64.3228 11.0774L62.7769 9.79632C62.3712 9.45799 61.9654 9.11585 61.5597 8.77751L59.9976 7.485C59.5919 7.15426 59.1862 6.82353 58.8088 6.489L58.3017 6.06322C58.2602 6.03405 58.2169 6.00739 58.1718 5.98339C58.1718 6.04422 58.1475 6.08984 58.1475 6.13165C58.1475 8.76738 58.1475 11.4018 58.1475 14.035C58.149 14.1005 58.1585 14.1655 58.1759 14.2289C58.186 14.276 58.2112 14.3191 58.2482 14.3524C58.2852 14.3857 58.3322 14.4076 58.3828 14.4152C58.482 14.4316 58.5824 14.4405 58.683 14.4418H61.3528V16.4642H51.745V14.4456H54.224C54.291 14.4503 54.3583 14.4412 54.4211 14.4191C54.484 14.3969 54.541 14.3622 54.5881 14.3174C54.6352 14.2725 54.6713 14.2186 54.6939 14.1593C54.7165 14.1 54.7251 14.0369 54.719 13.9742V4.0028C54.7251 3.92687 54.7251 3.85063 54.719 3.77471C54.7134 3.68709 54.6755 3.60401 54.6119 3.53957C54.5483 3.47513 54.4629 3.43329 54.3701 3.42116C54.2369 3.39291 54.1009 3.37763 53.9643 3.37555H51.6963H51.7044Z" fill="white"/>
<path d="M37.1142 17.1356H36.6395C35.8101 17.151 34.9811 17.0899 34.1645 16.9532C32.6845 16.7192 31.25 16.2797 29.9084 15.6492C28.7163 15.0954 27.6359 14.352 26.7152 13.452C25.8441 12.61 25.194 11.5896 24.8164 10.4716C24.6329 9.91731 24.5359 9.34113 24.5283 8.76088C24.5092 8.1395 24.5843 7.51873 24.7515 6.91714C25.0427 5.95112 25.5457 5.05259 26.2283 4.27888C26.4556 4.02038 26.699 3.76948 26.9546 3.51858C27.6282 2.895 28.3883 2.35924 29.2146 1.92574C30.375 1.29321 31.6247 0.817133 32.927 0.511571C33.6457 0.343186 34.3747 0.21623 35.1099 0.131418C36.1604 0.0186856 37.2198 -0.0029482 38.2746 0.0667925C40.0082 0.163229 41.7119 0.533384 43.3138 1.16163C44.3284 1.54811 45.2835 2.05948 46.154 2.68224C47.1481 3.38176 47.9873 4.2559 48.6249 5.25588C49.1254 6.0473 49.4445 6.92764 49.5622 7.84091C49.7134 9.04036 49.4996 10.2554 48.9454 11.3459C48.53 12.1597 47.9718 12.9024 47.2941 13.5432C46.2203 14.5701 44.9445 15.3924 43.537 15.9648C42.1954 16.5106 40.7794 16.8791 39.3295 17.0596C38.5945 17.1413 37.854 17.1718 37.1142 17.1509M36.9235 2.76588C36.426 2.75991 35.9293 2.80581 35.4426 2.90273C34.8438 3.01439 34.2601 3.18778 33.702 3.41974C32.6848 3.82604 31.7852 4.45272 31.0769 5.24827C30.2241 6.16483 29.7542 7.33965 29.7542 8.5556C29.7507 8.87262 29.7765 9.18933 29.8313 9.50218C30.0438 10.5512 30.5848 11.5173 31.3852 12.2773C32.1403 13.0155 33.0622 13.5857 34.0834 13.9462C34.8009 14.1975 35.5517 14.3561 36.3149 14.4176C37.2174 14.4915 38.1267 14.4312 39.009 14.2389C39.7184 14.0858 40.4013 13.8401 41.0377 13.509C42.2773 12.8929 43.2729 11.9201 43.8778 10.7339C44.3336 9.80899 44.4753 8.77525 44.2836 7.77249C44.1101 6.79661 43.6443 5.88698 42.9406 5.14943C42.0729 4.21949 40.9505 3.52937 39.6947 3.15363C38.8012 2.87836 37.8637 2.74975 36.9235 2.77348" fill="white"/>
<path d="M97.7512 14.4759V16.3767H86.5407V14.4759H89.0482C89.3565 14.4759 89.5026 14.3353 89.5066 14.0464C89.5066 13.0314 89.5066 12.0125 89.5066 11.0051C89.5076 10.9641 89.4994 10.9233 89.4827 10.8853C89.4659 10.8474 89.4409 10.8131 89.4093 10.7846L87.7458 9.08157L86.1228 7.4165L84.1266 5.37128C83.5667 4.79725 83.0068 4.23082 82.4509 3.65299C82.4148 3.61276 82.3693 3.58086 82.318 3.55977C82.2666 3.53867 82.2108 3.52894 82.1547 3.53134C81.3189 3.53134 80.4831 3.53134 79.6473 3.53134H79.416V1.39868H90.8861V3.52373C90.8253 3.52373 90.7604 3.52373 90.6914 3.52373H89.5148C89.1861 3.52373 89.0725 3.66439 89.1942 3.94951C89.2453 4.05745 89.3138 4.15744 89.3971 4.24602C89.7663 4.65279 90.1396 5.05575 90.525 5.44731C91.2351 6.1772 91.9532 6.90709 92.6714 7.62938C92.8296 7.78905 93.0081 7.9297 93.1948 8.09317C93.3206 7.96772 93.4626 7.83467 93.6005 7.71302C93.8845 7.4241 94.1564 7.12758 94.4363 6.83867L96.7003 4.51593L97.0817 4.13578L97.1588 4.05975C97.386 3.82406 97.3049 3.59596 96.9722 3.52754C96.9155 3.52193 96.8584 3.52193 96.8018 3.52754H95.6982H95.4831V1.40248H104.73C104.772 2.10774 104.772 2.81468 104.73 3.51993C104.665 3.51993 104.592 3.51993 104.519 3.51993C103.772 3.51993 103.022 3.51993 102.275 3.51993C102.22 3.51755 102.164 3.5273 102.114 3.54841C102.063 3.56953 102.018 3.60143 101.983 3.64158C101.451 4.16619 100.916 4.687 100.388 5.21161C99.6338 5.97192 98.8832 6.71321 98.1285 7.46592L96.4285 9.1614C95.8402 9.74683 95.2519 10.3361 94.6595 10.9215C94.622 10.9567 94.5928 10.999 94.5739 11.0455C94.5551 11.092 94.5469 11.1417 94.5499 11.1914C94.5499 12.138 94.5499 13.0922 94.5499 14.0312C94.5499 14.3505 94.6838 14.4683 95.0246 14.4645H97.6092H97.7715" fill="white"/>
<path d="M132.559 14.7801C132.321 15.0621 132.049 15.3173 131.748 15.5404C131.124 16.0109 130.369 16.305 129.573 16.3882C128.636 16.5111 127.681 16.357 126.842 15.9472C126.148 15.5916 125.571 15.066 125.171 14.4266C124.745 13.7464 124.44 13.0055 124.27 12.2331C124.27 12.2103 124.27 12.1875 124.25 12.1571H124.213C123.573 12.8098 122.875 13.4112 122.128 13.9552C121.57 14.3988 120.973 14.7969 120.343 15.1451C119.279 15.7083 118.123 16.1027 116.922 16.3122C116.166 16.4368 115.397 16.4839 114.63 16.4528C113.597 16.433 112.581 16.1993 111.656 15.7685C110.867 15.4233 110.18 14.9021 109.656 14.2507C109.132 13.5992 108.786 12.8373 108.649 12.0316C108.534 11.3593 108.534 10.674 108.649 10.0016C108.921 8.41753 109.603 6.92019 110.637 5.64127C111.75 4.17035 113.169 2.92518 114.808 1.9804C115.905 1.35267 117.12 0.928075 118.387 0.729702C118.913 0.642351 119.447 0.600358 119.981 0.604252C120.84 0.600211 121.685 0.801677 122.437 1.18955C123.189 1.57741 123.823 2.13883 124.278 2.82054C124.642 3.34771 124.939 3.9129 125.163 4.50462L125.207 4.61106L125.288 4.49701C126.003 3.43512 126.715 2.37196 127.427 1.30753C127.445 1.27684 127.472 1.25182 127.505 1.2356C127.539 1.21938 127.576 1.21266 127.613 1.2163H131.796C131.772 1.25431 131.76 1.28092 131.744 1.30373L126.66 8.79274C126.632 8.83311 126.62 8.88179 126.627 8.92959C127.033 10.1765 127.439 11.4234 127.909 12.6437C128.084 13.1329 128.36 13.5851 128.721 13.9742C129.133 14.379 129.671 14.6517 130.259 14.7535C130.853 14.8541 131.46 14.8733 132.06 14.8106C132.214 14.8106 132.369 14.7915 132.551 14.7801M114.825 14.6281C115.068 14.5977 115.315 14.5825 115.555 14.5368C116.191 14.3995 116.793 14.1519 117.332 13.807C118.31 13.1993 119.199 12.4747 119.977 11.6515C121.001 10.5625 121.929 9.39796 122.753 8.16929C122.763 8.15492 122.77 8.13877 122.773 8.12179C122.777 8.10482 122.777 8.08736 122.773 8.07045C122.712 7.74352 122.651 7.41278 122.574 7.08965C122.373 6.15301 122.081 5.23555 121.702 4.34875C121.495 3.83798 121.186 3.3685 120.793 2.965C120.414 2.56336 119.882 2.31753 119.312 2.28072C118.662 2.24745 118.015 2.38715 117.446 2.68369C116.778 3.03766 116.185 3.50123 115.693 4.05224C114.555 5.28348 113.642 6.68224 112.991 8.1921C112.445 9.36086 112.193 10.6317 112.256 11.9062C112.279 12.3516 112.384 12.79 112.565 13.2025C112.734 13.632 113.044 14.0007 113.449 14.2565C113.855 14.5123 114.336 14.6423 114.825 14.6281Z" fill="white"/>
</svg>
