<svg width="243" height="166" viewBox="0 0 243 166" fill="none" xmlns="http://www.w3.org/2000/svg">
<rect x="-0.5" y="0.5" width="242" height="165" rx="11.5" transform="matrix(-1 0 0 1 242 0)" fill="#202020" fill-opacity="0.25"/>
<path d="M95.4873 95.3683H125.277L126.539 94.2643H95.4873V95.3683Z" fill="white"/>
<path d="M113.368 83.4146H95.4873V84.9094H113.368V83.4146Z" fill="white"/>
<path d="M113.368 86.1245H95.4873V87.519H113.368V86.1245Z" fill="white"/>
<path d="M95.4873 97.9884H122.288L123.441 96.9795H95.4873V97.9884Z" fill="white"/>
<path d="M95.4873 105.785H113.368L114.135 105.114H95.4873V105.785Z" fill="white"/>
<path d="M95.4873 103.218H116.303L117.239 102.404H95.4873V103.218Z" fill="white"/>
<path d="M95.4873 100.603H119.299L120.337 99.6896H95.4873V100.603Z" fill="white"/>
<path d="M113.368 88.8397H95.4873V90.1392H113.368V88.8397Z" fill="white"/>
<path d="M113.368 80.6996H95.4873V82.2895H113.368V80.6996Z" fill="white"/>
<path d="M98.7423 61.7151H95.4873V63.9812H101.339L98.7423 61.7151Z" fill="white"/>
<path d="M101.846 64.4249H95.4873V66.6013H104.328L101.846 64.4249Z" fill="white"/>
<path d="M95.6443 59H95.4873V61.3664H98.3497L95.6443 59Z" fill="white"/>
<path d="M104.944 67.1401H95.4873V69.2161H107.317L104.944 67.1401Z" fill="white"/>
<path d="M113.368 77.99H95.4873V79.6803H113.368V77.99Z" fill="white"/>
<path d="M113.368 75.2747H95.4873V77.0601H113.368V75.2747Z" fill="white"/>
<path d="M108.048 69.8499H95.4873V71.8307H110.313L108.048 69.8499Z" fill="white"/>
<path d="M147.441 73.241V74.4453H113.291V74.4401L114.661 73.241H147.441Z" fill="white"/>
<path d="M113.29 74.4399V74.4452H95.4873V72.5647H111.146L113.29 74.4399Z" fill="white"/>
<path d="M116.389 71.7302H147.441V70.6262H117.651L116.389 71.7302Z" fill="white"/>
<path d="M147.44 81.0907H129.559V82.5856H147.44V81.0907Z" fill="white"/>
<path d="M147.44 78.4758H129.559V79.8704H147.44V78.4758Z" fill="white"/>
<path d="M119.492 69.0205H147.44V68.0116H120.645L119.492 69.0205Z" fill="white"/>
<path d="M129.559 60.2096L128.792 60.8805H147.441V60.2096H129.559Z" fill="white"/>
<path d="M125.695 63.5957H147.441V62.7822H126.625L125.695 63.5957Z" fill="white"/>
<path d="M122.59 66.3054H147.44V65.3969H123.635L122.59 66.3054Z" fill="white"/>
<path d="M147.44 75.856H129.559V77.1554H147.44V75.856Z" fill="white"/>
<path d="M147.44 83.7052H129.559V85.2952H147.44V83.7052Z" fill="white"/>
<path d="M144.185 104.285H147.44V102.013H141.588L144.185 104.285Z" fill="white"/>
<path d="M141.088 101.57H147.441V99.3989H138.6L141.088 101.57Z" fill="white"/>
<path d="M147.29 107H147.441V104.628H144.578L147.29 107Z" fill="white"/>
<path d="M137.984 98.8602H147.441V96.7843H135.611L137.984 98.8602Z" fill="white"/>
<path d="M147.44 86.3198H129.559V88.0102H147.44V86.3198Z" fill="white"/>
<path d="M147.44 88.9347H129.559V90.7201H147.44V88.9347Z" fill="white"/>
<path d="M134.885 96.145H147.44V94.1694H132.621L134.885 96.145Z" fill="white"/>
<path d="M147.44 91.5546V93.4351H131.781L129.638 91.5599V91.5546H147.44Z" fill="white"/>
<path d="M129.637 91.5546V91.5599L128.266 92.7536H95.4873V91.5546H129.637Z" fill="white"/>
<rect x="-0.5" y="0.5" width="242" height="165" rx="11.5" transform="matrix(-1 0 0 1 242 0)" stroke="#262728"/>
</svg>
