<svg width="246" height="166" viewBox="0 0 246 166" fill="none" xmlns="http://www.w3.org/2000/svg">
<rect x="-0.5" y="0.5" width="245" height="165" rx="11.5" transform="matrix(-1 0 0 1 245 0)" fill="#202020" fill-opacity="0.25"/>
<path d="M144.438 80.0296C143.66 81.4202 145.037 82.2149 145.498 83.2366C145.708 83.6238 145.832 84.0482 145.861 84.4829C145.89 84.9177 145.823 85.3534 145.665 85.7626C145.553 86.0265 145.476 86.3031 145.438 86.5856C144.708 93.0281 140.284 97.1434 133.503 97.5123C131.935 97.5691 131.163 97.9948 130.798 99.4139C130.522 100.492 129.678 101.202 128.781 101.968C127.739 102.848 126.584 103.955 126.716 105.573C126.823 106.852 126.919 108.129 127.003 109.404C126.995 109.597 126.96 109.787 126.901 109.972C126.754 109.986 126.606 109.986 126.458 109.972C126.357 108.326 126.255 106.679 126.147 104.948C124.752 105.459 123.903 104.693 123.22 103.813C122.676 103.017 122.2 102.182 121.796 101.315C121.612 100.909 121.456 100.492 121.329 100.067C120.419 97.5123 120.042 97.2853 116.942 97.6542C118.923 99.3003 119.336 101.401 119.497 103.614C119.659 105.828 120.036 107.871 119.599 110H119.282C119.234 109.779 119.198 109.555 119.174 109.33C119.048 106.833 119.013 104.364 118.767 101.894C118.621 100.927 118.264 99.9994 117.72 99.1698C117.42 98.6535 116.983 98.2199 116.453 97.9114C115.924 97.603 115.318 97.4302 114.697 97.4101C110.759 97.098 107.173 95.9343 104.348 93.153C103.299 92.118 102.505 90.8747 102.025 89.5131C101.545 88.1514 101.39 86.7055 101.571 85.2801C101.513 84.7392 101.359 84.2115 101.116 83.7191C101.038 83.599 100.95 83.4851 100.853 83.3785C100.027 82.1298 99.7516 80.8242 100.5 79.4052C100.783 78.8789 101.236 78.452 101.792 78.1866C102.349 77.9211 102.98 77.831 103.594 77.9294C103.481 76.709 103.397 75.4886 103.241 74.2682C103.137 73.9145 102.973 73.579 102.756 73.2749C101.805 71.5436 101.996 70.2665 103.355 68.7623C103.564 68.44 103.638 68.0555 103.564 67.6838C103.429 67.2596 103.269 66.8428 103.085 66.435C102.487 64.2781 103.283 62.9158 105.593 62.5184C106.623 62.3198 106.952 61.9508 107.042 60.9575C107.227 58.914 108.55 58.0626 110.633 58.5451C111.597 58.7721 112.524 59.1127 113.512 59.4249C114.889 58.3748 114.889 58.3748 117.702 58.687C117.75 58.3464 117.797 58.0058 117.839 57.6369C117.839 57.2645 117.99 56.9063 118.261 56.6368C118.532 56.3672 118.902 56.207 119.294 56.1895C120.426 56.1993 121.557 56.2656 122.682 56.3881C122.915 56.4165 123.244 56.4733 123.37 56.3881C124.088 55.7354 124.752 55.9908 125.297 56.53C126.255 57.4121 127.138 58.3649 127.937 59.3795C128.996 60.7985 129.906 62.3311 130.875 63.8069C131.044 64.1045 131.291 64.3561 131.591 64.5379C131.892 64.7197 132.236 64.8255 132.592 64.8454C132.947 64.8654 133.303 64.7986 133.623 64.6516C133.944 64.5046 134.22 64.2822 134.425 64.0056C135.376 62.9271 136.292 61.7919 137.364 60.7985C138.435 59.8052 139.806 58.914 141.601 59.5384C141.918 59.652 142.397 59.3965 142.798 59.283C144.48 58.7721 145.276 59.2262 145.516 60.9007C145.558 61.1483 145.57 61.3998 145.552 61.65C145.396 63.0407 145.139 64.4029 145.737 65.822C145.977 66.3896 145.564 67.1843 145.45 67.8938C145.334 67.8887 145.219 67.8696 145.109 67.8371C144.916 67.1527 144.68 66.4798 144.402 65.822C143.259 63.5515 141.128 63.1258 139.129 64.7719C137.334 66.2193 136.376 68.1776 135.712 70.2495C135.344 71.4231 135.115 72.6321 135.029 73.8538C135.548 72.5722 136.148 71.3212 136.825 70.1075C137.518 69.0153 138.37 68.0216 139.357 67.1559C139.584 66.9398 139.855 66.7694 140.153 66.6549C140.452 66.5403 140.771 66.484 141.093 66.4893C141.415 66.4946 141.732 66.5614 142.026 66.6857C142.32 66.81 142.585 66.9892 142.804 67.2127C144.043 68.4331 145.57 69.6251 144.899 71.6969V71.7253C144.953 70.3062 144.576 69.6818 143.433 69.5399C142.836 69.4065 142.21 69.446 141.637 69.6534C139.842 70.5616 138.046 71.5834 136.286 72.6051C136.149 72.6618 136.119 72.9457 135.939 73.343C136.325 73.104 136.724 72.8861 137.136 72.6902C138.656 72.0942 140.129 71.4415 141.715 70.9306C142.481 70.7035 143.397 70.6468 143.959 71.4982L142.469 71.2144C144.534 73.9674 144.684 76.6352 143.068 78.9341C141.338 81.3748 139.087 81.9425 134.79 80.9207C135.167 81.3181 135.388 81.5735 135.64 81.8289C135.885 82.283 136.011 82.879 136.4 83.1628C137.465 83.9291 138.734 83.9575 140.021 83.7305C142.254 83.3331 143.421 81.8006 144.438 80.0977M109.951 72.151C109.842 72.5053 109.756 72.8654 109.693 73.2295C109.143 77.9407 112.907 81.8006 118.276 82.056C119.851 82.1446 121.426 81.8768 122.87 81.2748C124.315 80.6728 125.588 79.7538 126.584 78.5935C124.561 81.8857 120.156 83.3615 115.876 82.2263C111.208 80.9775 109.161 78.0259 109.358 72.6902C108.903 72.6051 108.442 72.5199 107.76 72.4064C107.767 73.6605 107.869 74.9125 108.065 76.1527C109.346 81.46 115.158 84.8657 120.94 83.6737C122.102 83.4417 123.206 82.9983 124.19 82.3682C125.537 81.4884 126.584 80.2964 126.584 78.5935C127.087 77.2312 126.734 76.5784 124.884 75.4148C123.304 80.268 120.096 82.3682 116.086 81.091C115.258 80.8446 114.492 80.4407 113.834 79.9039C113.176 79.3671 112.641 78.7088 112.261 77.9691C111.034 75.6135 111.387 73.343 112.86 71.1293C112.776 71.0725 112.692 70.9874 112.614 70.9306L109.915 72.2361C110.765 70.9874 112.117 70.59 113.554 70.4481C116.345 70.1541 119.154 70.8187 121.472 72.3213C123.316 73.5315 125.094 74.8292 126.799 76.2095C126.767 75.9826 126.696 75.7622 126.59 75.5567C124.244 71.4131 118.121 68.3763 113.147 68.9439C112.065 69.0132 111.025 69.3692 110.146 69.9712C109.266 70.5733 108.583 71.3974 108.173 72.3497L109.969 72.151M143.517 64.0908C144.115 65.0557 144.761 66.0207 145.312 66.9005C145.707 65.226 145.228 64.4313 143.517 64.0908L141.362 62.1211C139.859 62.4617 138.632 62.7171 137.423 63.0009C136.909 63.6537 136.478 64.6186 135.706 65.1011C133.976 66.1512 133.748 67.7406 133.515 69.415C133.377 70.0995 133.285 70.7914 133.24 71.4869C133.21 74.5236 133.24 77.5604 133.24 80.6256H132.982C132.2 75.4606 132.462 70.2015 133.754 65.1295C133.018 65.1863 132.426 65.2146 131.833 65.243C132.629 68.7661 132.501 72.4204 131.462 75.8859H131.103L130.241 74.7791C130.157 74.8107 130.068 74.8299 129.978 74.8358V80.7107C129.769 80.2447 129.673 79.7406 129.696 79.2349C129.541 76.8225 129.631 74.3817 129.134 72.0545C128.505 69.0461 127.685 65.9242 123.747 64.7322C124.016 65.016 124.13 65.1579 124.262 65.2714C126.684 67.4035 128.236 70.2779 128.643 73.3884C128.96 75.517 128.87 77.6172 127.787 79.5755C127.853 79.2633 127.889 78.9227 127.979 78.6105C128.805 75.5588 128.453 72.3272 126.985 69.5005C125.517 66.6738 123.031 64.4387 119.976 63.1996C115.188 61.2981 107.467 62.4049 106.413 69.784C106.098 72.2904 106.575 74.8292 107.784 77.0779C107.751 76.5065 107.679 75.9377 107.569 75.3751C107.096 71.7991 107.742 68.5636 111.16 66.4918C114.577 64.42 118.127 64.5335 121.49 66.6337C124.788 68.6488 126.656 71.6572 127.356 75.3183C127.744 77.4332 127.257 79.6085 125.997 81.3919C125.803 81.7292 125.637 82.0803 125.501 82.442C124.715 83.0071 123.883 83.5102 123.011 83.9462C118.869 85.6206 111.411 84.4003 108.766 79.462C108.632 79.3277 108.465 79.2264 108.28 79.1671C108.096 79.1077 107.899 79.092 107.706 79.1214C105.103 80.0296 103.313 81.6757 102.792 84.3151C102.074 87.9763 103.175 91.0414 106.204 93.4254C109.795 96.2636 114.093 97.0298 118.54 96.9447C118.957 96.9011 119.379 96.976 119.752 97.1599C120.125 97.3438 120.432 97.6284 120.635 97.9778C121.073 98.6607 121.461 99.372 121.796 100.106C122.217 101.048 122.693 101.967 123.22 102.859C124.615 104.931 125.429 104.931 126.985 103.03C127.446 102.434 127.865 101.838 128.356 101.298C128.846 100.759 129.523 100.447 129.672 99.9077C130.379 97.4102 130.923 94.8842 131.51 92.4718C130.397 91.9894 129.607 91.6772 128.739 91.3366C130.929 91.4217 132.928 91.5069 135.323 91.6204C134.527 91.8475 134.018 91.961 133.527 92.1313C133.24 92.2448 132.827 92.4435 132.767 92.6421C132.396 94.0896 132.096 95.537 131.737 97.1831C132.809 97.0128 133.719 96.8993 134.604 96.729C139.542 95.7073 142.984 93.0395 144.564 88.4133C144.9 87.342 145.166 86.252 145.36 85.1495C145.623 83.7305 144.516 82.879 144.163 81.9992C143.475 82.5101 142.834 82.9926 142.2 83.475C139.548 85.4617 136.346 84.7522 134.922 81.8573C134.538 81.1819 134.31 80.4371 134.251 79.672C134.212 77.2364 134.326 74.8007 134.592 72.378C134.893 69.8166 135.967 67.3921 137.687 65.3963C139.482 63.3245 141.027 62.9839 143.529 64.0624M117.588 80.9945C121.101 81.0229 123.723 79.0079 124.304 76.2265C124.408 75.8943 124.404 75.5397 124.291 75.21C124.177 74.8804 123.96 74.5914 123.669 74.3817C121.053 72.3767 117.859 71.1696 114.506 70.9192C114.218 70.9346 113.937 71.0084 113.682 71.1357C113.427 71.263 113.203 71.4409 113.027 71.6572C112.344 72.5284 111.944 73.569 111.873 74.6525C111.803 75.7358 112.067 76.8152 112.632 77.7591C113.073 78.6749 113.768 79.4598 114.643 80.0297C115.518 80.5996 116.54 80.9331 117.6 80.9945M134.957 78.5821C134.916 80.4269 135.43 80.9945 137.352 81.1932C137.656 81.2216 137.963 81.2216 138.267 81.1932C139.142 81.128 139.992 80.8828 140.756 80.4747C141.521 80.0666 142.183 79.5053 142.695 78.83C143.208 78.1546 143.56 77.3815 143.725 76.5642C143.891 75.747 143.866 74.9054 143.654 74.0979C142.966 71.4869 142.337 71.0895 139.842 71.9977C135.574 73.5871 135.005 74.2682 134.928 78.5821M126.171 74.2115C125.183 71.2882 123.567 68.7623 120.784 67.1162C118.001 65.4701 115.158 65.1863 112.201 66.4634C110.04 67.3716 108.526 68.8758 108.161 71.2314C109.837 69.0745 112.171 68.3366 114.847 68.4785C118.383 68.6197 121.74 69.9942 124.274 72.3383C124.938 72.9343 125.549 73.5871 126.183 74.2115M130.834 75.0913L131.223 75.0345C131.731 72.2532 132.168 69.415 131.492 66.6905C131.049 64.9308 129.696 63.3415 128.643 61.7522C128.479 61.5738 128.27 61.4384 128.035 61.3589C127.8 61.2794 127.548 61.2584 127.302 61.2981C126.267 61.667 125.764 64.1362 126.452 65.016C128.319 67.2232 129.511 69.8736 129.9 72.6789C130.002 73.5019 130.498 74.2682 130.834 75.0913ZM127.961 60.5601C128.038 60.475 128.11 60.3615 128.188 60.2763C127.111 59.1411 126.051 57.9207 124.938 56.8138C124.405 56.2462 123.741 56.303 123.519 57.0409C123.148 58.4032 122.957 59.8222 122.711 61.2129C122.708 61.2814 122.72 61.3498 122.747 61.4135C122.774 61.4772 122.815 61.5346 122.867 61.5819C123.717 62.2914 124.585 62.9725 125.471 63.7104C126.171 62.5184 126.069 60.8156 127.961 60.5601ZM122.173 61.1845C122.406 59.9641 122.67 58.687 122.849 57.3815C122.836 57.234 122.789 57.0911 122.71 56.9634C122.631 56.8357 122.523 56.7264 122.394 56.6436C121.646 56.1895 119.276 56.2746 118.803 56.9274C118.33 57.5801 118.085 58.8119 118.342 58.9992C119.539 59.8222 120.138 61.7238 122.173 61.1845ZM113.362 60.3047C111.8 59.4533 110.418 58.7721 108.903 59.2546C107.569 59.652 107.748 60.9859 107.586 62.0927C107.586 62.1495 107.515 62.2346 107.539 62.2914C107.646 62.6603 107.676 63.1428 107.934 63.3131C108.12 63.3703 108.317 63.3897 108.512 63.3702C108.707 63.3506 108.895 63.2925 109.065 63.1996C110.073 62.6845 111.051 62.116 111.992 61.4967C112.474 61.1469 112.932 60.7677 113.362 60.3615M144.049 69.3867C144.103 69.2794 144.163 69.1752 144.229 69.0745C143.69 68.6204 143.163 68.1663 142.601 67.7689C142.253 67.4454 141.796 67.2482 141.31 67.2119C140.824 67.1756 140.34 67.3025 139.943 67.5703C138.393 68.592 137.459 70.0394 136.532 71.9126C139.028 70.4368 141.146 68.8474 144.049 69.3867ZM105.563 79.2463C104.163 78.1962 102.499 78.1678 101.517 79.1611C100.404 80.3247 100.542 82.283 101.817 83.5602C102.415 82.6236 103.014 81.6586 103.654 80.5802C103.259 80.3815 102.882 80.2112 102.499 80.0125C103.618 80.0409 104.779 80.5802 105.563 79.2463ZM144.39 64.034C144.558 63.9488 144.726 63.8921 144.893 63.8069C144.963 62.8624 144.979 61.915 144.941 60.9688C144.887 60.4012 144.63 59.6349 143.744 59.8336C142.858 60.0323 141.811 60.1742 141.493 61.2526C141.466 61.338 141.459 61.428 141.472 61.5163C141.486 61.6046 141.52 61.689 141.571 61.7635C142.499 62.5298 143.457 63.2677 144.402 64.034M106.33 63.1826C104.725 63.2393 104.001 63.665 103.696 64.63C103.568 65.3339 103.646 66.0575 103.92 66.7227C104.194 67.3879 104.655 67.9695 105.252 68.4047C106.449 66.8437 105.659 64.9138 106.33 63.1826ZM122.424 63.6934C121.682 63.069 120.922 62.473 120.216 61.8203C119.959 61.5763 119.639 61.4006 119.288 61.3109C118.937 61.2212 118.568 61.2207 118.216 61.3094C116.648 61.5081 114.925 61.877 113.68 60.685C112.482 61.4513 111.321 62.2176 110.154 62.9839C114.386 61.2243 118.438 61.5081 122.424 63.6934ZM104.109 69.1426C102.696 70.4651 102.535 71.5436 103.427 73.0024C103.737 73.3538 104.11 73.6514 104.528 73.8822C104.785 73.3998 105.33 72.8605 105.252 72.4632C104.948 71.3325 104.562 70.223 104.097 69.1426M119.06 60.7134C117.959 59.6917 116.822 59.0389 115.409 59.2092C114.93 59.266 114.512 59.862 114.122 60.2593C114.087 60.3161 114.446 60.8837 114.679 60.9121C116.124 61.2982 117.661 61.2285 119.06 60.7134ZM107.94 78.6105C107.144 76.7374 106.383 74.9777 105.653 73.2749L104.534 74.4669C105.089 74.938 105.513 75.5313 105.768 76.1946C106.024 76.8578 106.104 77.5706 106 78.2699C105.94 78.9227 106.276 79.0362 106.826 78.9227C107.197 78.8376 107.557 78.724 107.94 78.6105ZM140.931 60.0777C140.29 60.0719 139.658 60.2166 139.091 60.4988C138.524 60.7811 138.04 61.1922 137.681 61.6954C137.657 61.8347 137.669 61.9776 137.717 62.1113C137.765 62.245 137.847 62.3654 137.956 62.4617C139.411 62.9725 141.045 61.7238 140.949 60.0777M106.132 67.3262C107.096 66.1058 108.065 64.857 108.867 63.8353C108.365 63.665 107.67 63.438 106.808 63.1826C105.845 64.3178 106.635 65.9639 106.132 67.3262ZM105.533 78.3664C105.779 76.4933 105.312 75.4148 103.995 74.6769C103.552 76.1527 104.061 77.4299 105.533 78.3664ZM121.161 61.9054L121.012 62.2176L125.034 65.0273C125.106 64.9138 125.177 64.8287 125.249 64.7151C124.016 63.6367 123.112 62.1041 121.167 61.9338M105.504 71.4585C105.689 70.2097 105.833 69.188 105.964 68.3649C105.492 68.5069 104.965 68.6488 104.277 68.8474C104.642 69.6137 105.013 70.4084 105.504 71.4585ZM134.431 65.2714L134.88 65.612C135.568 64.7889 136.256 63.9943 136.939 63.1712C136.802 63.0583 136.658 62.954 136.508 62.859C135.819 63.6537 135.125 64.4767 134.431 65.2714Z" fill="white"/>
<path d="M136.056 69.6417C136.008 70.039 135.805 70.5215 135.937 70.862C136.805 73.3028 136.392 75.6301 135.589 77.9857C135.263 78.1387 134.957 78.3294 134.68 78.5533C132.447 80.9373 128.982 81.4482 126.791 79.6886V79.7169C131.741 81.9307 136.32 77.5884 136.002 73.4163C135.812 72.0551 135.52 70.7083 135.129 69.3862V69.4146C135.446 69.4714 135.763 69.5565 136.08 69.6417" fill="white"/>
<path d="M135.374 82.0837C135.518 82.4243 135.793 82.7649 135.715 82.9919C134.997 85.1489 132.567 86.795 130.227 86.5396C129.16 86.4546 128.142 86.0802 127.294 85.4611C125.121 83.5879 122.793 83.9569 120.369 84.638C117.945 85.3192 115.623 86.216 113.228 86.6247C111.463 86.9563 109.644 86.941 107.885 86.5798C106.125 86.2186 104.463 85.5191 103 84.5245C102.867 84.4412 102.742 84.3462 102.628 84.2407C104.251 84.8756 105.917 85.4065 107.614 85.83C111.523 86.5396 115.275 85.7449 118.861 84.2407C120.272 83.5681 121.815 83.1814 123.392 83.1055C124.176 83.0596 124.963 83.1669 125.702 83.4207C126.441 83.6746 127.117 84.0696 127.689 84.5813C128.191 85.0525 128.8 85.408 129.469 85.6202C130.139 85.8324 130.851 85.8957 131.551 85.8052C132.25 85.7146 132.919 85.4727 133.504 85.0981C134.089 84.7234 134.575 84.2261 134.925 83.6447C135.14 83.1431 135.291 82.6191 135.374 82.0837Z" fill="white"/>
<path d="M107.598 85.8185C107.149 84.0305 107.699 83.1507 109.519 83.1223C107.939 83.6332 107.723 84.6833 107.598 85.8185Z" fill="white"/>
<rect x="-0.5" y="0.5" width="245" height="165" rx="11.5" transform="matrix(-1 0 0 1 245 0)" stroke="#262728"/>
</svg>
