<svg width="246" height="166" viewBox="0 0 246 166" fill="none" xmlns="http://www.w3.org/2000/svg">
<rect x="-0.5" y="0.5" width="245" height="165" rx="11.5" transform="matrix(-1 0 0 1 245 0)" fill="#202020" fill-opacity="0.25"/>
<path d="M23.7586 94.0581V95.5573H19.4683V86.2517H23.5354C23.5413 86.3332 23.5413 86.415 23.5354 86.4966C23.5952 87.5202 24.0349 88.4921 24.7785 89.2441C25.4114 89.9034 26.1648 90.4515 27.0033 90.8627C28.2231 91.4704 29.5215 91.9282 30.8664 92.2245C31.8822 92.4503 32.9099 92.6257 33.9454 92.7501C34.4681 92.8158 34.9909 92.8516 35.52 92.8696C36.3997 92.9054 37.2858 92.9412 38.1719 92.9233C39.5844 92.9146 40.9868 92.699 42.3282 92.2842C43.4007 91.9852 44.3702 91.427 45.1395 90.6656C45.2478 90.5461 45.3435 90.4147 45.4518 90.2953C45.6249 90.0985 45.7195 89.8514 45.7195 89.5965C45.7195 89.3415 45.6249 89.0944 45.4518 88.8976C45.2136 88.5529 44.887 88.2696 44.502 88.0734C43.8998 87.759 43.2571 87.5181 42.5896 87.3567C41.3518 87.0603 40.0926 86.8487 38.8221 86.7235L35.9853 86.3831C35.3478 86.3114 34.6594 86.2517 33.9964 86.174C33.1358 86.0785 32.2816 85.9949 31.4465 85.8754C30.2927 85.7082 29.1325 85.5349 27.9786 85.3259C26.4028 85.0541 24.8651 84.6153 23.3952 84.0179C22.3329 83.5982 21.3673 82.9897 20.5521 82.226C19.573 81.2976 19.0175 80.0489 19.003 78.7439C18.9763 77.9321 19.1284 77.1239 19.4497 76.3696C19.7711 75.6154 20.2548 74.9312 20.8708 74.3598C21.9847 73.3029 23.3106 72.4625 24.7721 71.8871C26.5195 71.164 28.3571 70.6503 30.2417 70.358C31.2175 70.1813 32.2064 70.0754 33.1996 70.0415C33.8753 70.0415 34.551 69.9817 35.2267 70.0056C35.9981 70.0056 36.7758 70.0893 37.5408 70.1789C39.0508 70.3508 40.5432 70.6385 42.0031 71.0389C43.3516 71.3901 44.6723 71.8292 45.9554 72.353C46.1722 72.4485 46.3762 72.562 46.5929 72.6695C46.6992 72.731 46.8203 72.7666 46.945 72.7728C47.0698 72.7791 47.1942 72.7559 47.3069 72.7054C47.3672 72.6846 47.4185 72.6459 47.4531 72.5952C47.4876 72.5445 47.5034 72.4846 47.4981 72.4246C47.4981 72.1917 47.4981 71.9587 47.4981 71.7258C47.4981 71.6482 47.4981 71.5645 47.4981 71.463H51.1955V79.6517H47.5746C47.5746 79.4427 47.5364 79.2396 47.4917 79.0544C47.2955 78.2132 46.8361 77.4459 46.1722 76.8505C45.5297 76.2777 44.7882 75.8112 43.9793 75.4708C42.6807 74.9237 41.3145 74.5305 39.9122 74.3001C38.74 74.0922 37.5533 73.9645 36.3614 73.9178C35.4371 73.9178 34.5128 73.8641 33.5884 73.9178C32.1963 73.9405 30.8119 74.1169 29.464 74.4434C28.7864 74.6023 28.1406 74.8624 27.5515 75.2139C27.071 75.486 26.7094 75.9095 26.5316 76.4085C26.3956 76.7189 26.3933 77.0665 26.5253 77.3784C26.6572 77.6903 26.9131 77.9421 27.2392 78.0809C27.8367 78.387 28.4822 78.6027 29.1516 78.72C30.1912 78.926 31.2427 79.0755 32.3007 79.1679L36.2148 79.5562C37.4069 79.6696 38.6053 79.7712 39.7974 79.9205C41.1361 80.0937 42.4684 80.2968 43.788 80.5895C44.9413 80.8323 46.0729 81.1578 47.173 81.563C48.2126 81.9407 49.1893 82.4555 50.0735 83.0921C51.3914 84.0177 52.2991 85.3658 52.6234 86.8788C53.0193 88.5134 52.7173 90.2283 51.7819 91.6571C51.2636 92.4103 50.6025 93.0682 49.8313 93.5982C48.4306 94.5385 46.8639 95.2401 45.2032 95.6708C43.5146 96.1219 41.7867 96.4317 40.0397 96.5966C38.7692 96.7205 37.4907 96.7544 36.2148 96.6981C35.6781 96.6682 35.1438 96.6084 34.6147 96.5189C32.0316 96.1254 29.4768 95.5829 26.9651 94.8943C26.4997 94.7689 26.0343 94.6375 25.5754 94.4942C25.3837 94.4222 25.1964 94.3405 25.0144 94.2493L24.8231 94.1657C24.4832 94.0769 24.1301 94.0406 23.7777 94.0581" fill="white"/>
<path d="M100.236 75.3035V72.2215C100.319 72.2215 100.395 72.2215 100.472 72.2215H113.183C113.256 72.2198 113.329 72.2321 113.397 72.2578C113.465 72.2835 113.527 72.322 113.578 72.3709L116.848 75.1423L120.418 78.1287L124.536 81.5989L127.615 84.197L130.561 86.6459C130.612 86.6877 130.675 86.7176 130.777 86.7892C130.777 86.6578 130.777 86.5623 130.777 86.4667V84.3762C130.777 81.8378 130.777 79.2993 130.777 76.7549C130.79 76.5263 130.724 76.2999 130.588 76.1095C130.453 75.919 130.255 75.7746 130.025 75.6977C129.772 75.5873 129.495 75.5322 129.216 75.5365H125.569V72.2156H140.709V75.5365H137.197C137.018 75.5349 136.84 75.555 136.668 75.5962C136.428 75.648 136.214 75.7753 136.062 75.9568C135.91 76.1382 135.829 76.363 135.833 76.5936C135.833 76.7609 135.833 76.9281 135.833 77.0954V95.8679H135.584H130.516C130.442 95.8726 130.367 95.8627 130.297 95.8391C130.226 95.8155 130.162 95.7785 130.108 95.7305C129.655 95.3483 129.19 94.972 128.725 94.5837L126.143 92.4395L124.275 90.9045L121.802 88.8558L120.061 87.4044L117.633 85.3916C116.995 84.86 116.358 84.3225 115.72 83.7909L113.266 81.7601C112.628 81.2405 111.991 80.7209 111.398 80.1952L110.601 79.5263C110.536 79.4805 110.468 79.4386 110.397 79.4009C110.397 79.4964 110.359 79.5681 110.359 79.6338C110.359 83.775 110.359 87.9141 110.359 92.0513C110.361 92.1541 110.376 92.2563 110.404 92.3559C110.42 92.4299 110.459 92.4976 110.517 92.5499C110.575 92.6022 110.649 92.6366 110.729 92.6486C110.885 92.6743 111.042 92.6883 111.2 92.6904H115.395V95.8679H100.3V92.6963H104.195C104.3 92.7037 104.406 92.6895 104.504 92.6547C104.603 92.6199 104.693 92.5653 104.767 92.4949C104.841 92.4244 104.897 92.3396 104.933 92.2465C104.968 92.1534 104.982 92.0542 104.972 91.9557V76.289C104.982 76.1697 104.982 76.05 104.972 75.9307C104.963 75.793 104.904 75.6625 104.804 75.5612C104.704 75.46 104.57 75.3942 104.424 75.3752C104.215 75.3308 104.001 75.3068 103.787 75.3035H100.223H100.236Z" fill="white"/>
<path d="M77.3123 96.9229H76.5664C75.2633 96.947 73.9609 96.851 72.6778 96.6362C70.3525 96.2686 68.0987 95.5781 65.9907 94.5875C64.1178 93.7174 62.4203 92.5493 60.9738 91.1352C59.605 89.8124 58.5836 88.2092 57.9904 86.4526C57.7022 85.5817 57.5497 84.6765 57.5378 83.7648C57.5077 82.7885 57.6257 81.8132 57.8884 80.868C58.346 79.3502 59.1363 77.9385 60.2088 76.7229C60.5658 76.3167 60.9483 75.9225 61.3499 75.5283C62.4082 74.5486 63.6025 73.7068 64.9006 73.0257C66.7238 72.0319 68.6874 71.2839 70.7335 70.8038C71.8626 70.5392 73.008 70.3398 74.1631 70.2065C75.8137 70.0294 77.4782 69.9954 79.1354 70.105C81.8592 70.2565 84.536 70.8381 87.0529 71.8252C88.6469 72.4324 90.1476 73.2358 91.5152 74.2143C93.0771 75.3133 94.3957 76.6867 95.3974 78.2579C96.1837 79.5013 96.6852 80.8845 96.87 82.3194C97.1076 84.2039 96.7717 86.113 95.901 87.8263C95.2483 89.1049 94.3713 90.2718 93.3065 91.2786C91.6194 92.892 89.6149 94.184 87.4035 95.0833C85.2957 95.9409 83.0708 96.5198 80.7929 96.8034C79.6381 96.9318 78.4747 96.9797 77.3123 96.9468M77.0127 74.3457C76.231 74.3363 75.4506 74.4084 74.6859 74.5607C73.7451 74.7361 72.8279 75.0086 71.9511 75.373C70.353 76.0114 68.9395 76.996 67.8266 78.2459C66.4867 79.686 65.7485 81.5318 65.7485 83.4423C65.743 83.9404 65.7835 84.438 65.8696 84.9295C66.2035 86.5777 67.0534 88.0955 68.3111 89.2896C69.4974 90.4494 70.9459 91.3454 72.5503 91.9117C73.6777 92.3066 74.8573 92.5558 76.0564 92.6523C77.4744 92.7686 78.903 92.6738 80.2893 92.3716C81.4038 92.1311 82.4767 91.745 83.4767 91.2248C85.4242 90.2569 86.9885 88.7285 87.939 86.8647C88.6552 85.4115 88.8777 83.7874 88.5765 82.2119C88.3039 80.6786 87.5721 79.2494 86.4664 78.0906C85.1032 76.6295 83.3397 75.5452 81.3666 74.9549C79.9628 74.5224 78.4899 74.3203 77.0127 74.3576" fill="white"/>
<path d="M172.583 92.744V95.7304H154.97V92.744H158.91C159.394 92.744 159.624 92.523 159.63 92.069C159.63 90.4743 159.63 88.8736 159.63 87.2908C159.631 87.2263 159.619 87.1622 159.592 87.1025C159.566 87.0429 159.527 86.989 159.477 86.9444L156.863 84.2686L154.313 81.6525L151.177 78.4391C150.297 77.5372 149.418 76.6473 148.544 75.7394C148.488 75.6762 148.416 75.6261 148.335 75.5929C148.255 75.5598 148.167 75.5445 148.079 75.5483C146.766 75.5483 145.452 75.5483 144.139 75.5483H143.776V72.1975H161.797V75.5363C161.702 75.5363 161.6 75.5363 161.491 75.5363H159.643C159.126 75.5363 158.948 75.7573 159.139 76.2053C159.219 76.3749 159.327 76.532 159.458 76.6711C160.038 77.3102 160.624 77.9434 161.23 78.5586C162.346 79.7053 163.474 80.8521 164.602 81.9869C164.851 82.2378 165.131 82.4588 165.425 82.7156C165.622 82.5185 165.845 82.3095 166.062 82.1183C166.508 81.6644 166.935 81.1985 167.375 80.7446L170.932 77.0952L171.532 76.4979L171.653 76.3785C172.01 76.0082 171.882 75.6498 171.359 75.5423C171.27 75.5335 171.181 75.5335 171.092 75.5423H169.358H169.02V72.2035H183.548C183.615 73.3115 183.615 74.4223 183.548 75.5303C183.446 75.5303 183.331 75.5303 183.216 75.5303C182.043 75.5303 180.864 75.5303 179.691 75.5303C179.604 75.5266 179.517 75.5419 179.438 75.5751C179.358 75.6083 179.288 75.6584 179.232 75.7215C178.397 76.5457 177.556 77.364 176.727 78.1882C175.541 79.3828 174.362 80.5475 173.176 81.7301L170.505 84.394C169.581 85.3138 168.657 86.2396 167.726 87.1594C167.667 87.2148 167.621 87.2811 167.591 87.3542C167.562 87.4273 167.549 87.5054 167.554 87.5835C167.554 89.0707 167.554 90.5699 167.554 92.0452C167.554 92.5469 167.764 92.732 168.3 92.7261H172.36H172.615" fill="white"/>
<path d="M227.272 93.222C226.898 93.665 226.47 94.0659 225.998 94.4165C225.017 95.1557 223.832 95.6177 222.581 95.7485C221.109 95.9416 219.609 95.6994 218.29 95.0556C217.2 94.4969 216.292 93.6711 215.664 92.6665C214.995 91.5978 214.517 90.4336 214.249 89.2202C214.249 89.1843 214.249 89.1485 214.217 89.1007H214.16C213.153 90.1262 212.057 91.0712 210.883 91.9259C210.007 92.6228 209.068 93.2483 208.078 93.7954C206.407 94.6803 204.591 95.2999 202.704 95.629C201.516 95.8248 200.308 95.8989 199.102 95.85C197.479 95.8188 195.884 95.4517 194.43 94.7749C193.19 94.2325 192.112 93.4136 191.288 92.3901C190.465 91.3665 189.921 90.1694 189.706 88.9036C189.524 87.8473 189.524 86.7705 189.706 85.7141C190.133 83.2253 191.205 80.8727 192.83 78.8633C194.579 76.5523 196.808 74.5959 199.383 73.1115C201.106 72.1252 203.014 71.4581 205.006 71.1465C205.832 71.0092 206.671 70.9432 207.511 70.9494C208.859 70.943 210.187 71.2596 211.369 71.869C212.55 72.4784 213.546 73.3604 214.262 74.4315C214.833 75.2598 215.3 76.1478 215.651 77.0775L215.721 77.2447L215.849 77.0655C216.971 75.3971 218.091 73.7267 219.208 72.0543C219.237 72.0061 219.28 71.9668 219.332 71.9413C219.384 71.9158 219.443 71.9053 219.502 71.911H226.074C226.036 71.9707 226.017 72.0125 225.991 72.0484L218.004 83.8148C217.959 83.8782 217.941 83.9547 217.953 84.0298C218.59 85.9889 219.228 87.948 219.967 89.8652C220.241 90.6339 220.674 91.3443 221.242 91.9557C221.89 92.5917 222.735 93.0202 223.658 93.1802C224.592 93.3382 225.545 93.3684 226.488 93.2697C226.731 93.2697 226.973 93.2399 227.26 93.222M199.408 92.9831C199.791 92.9353 200.18 92.9114 200.556 92.8397C201.555 92.6238 202.502 92.2349 203.348 91.6929C204.885 90.7383 206.282 89.5998 207.504 88.3063C209.112 86.5953 210.57 84.7657 211.865 82.8353C211.881 82.8127 211.892 82.7873 211.897 82.7606C211.903 82.734 211.903 82.7065 211.897 82.68C211.801 82.1663 211.705 81.6467 211.584 81.139C211.268 79.6674 210.81 78.2259 210.214 76.8326C209.888 76.0301 209.404 75.2924 208.786 74.6585C208.191 74.0274 207.355 73.6412 206.459 73.5834C205.437 73.5311 204.421 73.7506 203.527 74.2165C202.478 74.7726 201.546 75.501 200.773 76.3667C198.985 78.3012 197.551 80.4989 196.527 82.8711C195.669 84.7074 195.274 86.7042 195.373 88.7065C195.41 89.4063 195.574 90.0951 195.858 90.7433C196.125 91.4181 196.611 91.9973 197.248 92.3992C197.885 92.8011 198.641 93.0053 199.408 92.9831Z" fill="white"/>
<rect x="-0.5" y="0.5" width="245" height="165" rx="11.5" transform="matrix(-1 0 0 1 245 0)" stroke="#262728"/>
</svg>
