<svg xmlns="http://www.w3.org/2000/svg" xmlns:xlink="http://www.w3.org/1999/xlink" width="1024" zoomAndPan="magnify" viewBox="0 0 768 576" height="768" preserveAspectRatio="xMidYMid meet" version="1.0"><defs><clipPath id="b66bfe1a47"><path d="M 53 2.035156 L 726 2.035156 L 726 575.785156 L 53 575.785156 Z M 53 2.035156 " clip-rule="nonzero"/></clipPath></defs><path fill="#bbe5e1" d="M 695.519531 425.875 C 658.601562 425.875 553.097656 425.875 513.15625 425.875 C 473.214844 425.875 469.445312 387.449219 469.445312 387.449219 L 462.667969 363.34375 L 620.917969 268.40625 C 620.917969 268.40625 672.160156 266.148438 701.550781 281.214844 C 730.941406 296.285156 736.972656 355.054688 737.722656 370.871094 C 738.46875 386.6875 732.4375 425.875 695.519531 425.875 Z M 78.578125 281.214844 C 49.1875 296.285156 43.171875 355.054688 42.410156 370.871094 C 41.660156 386.6875 47.675781 425.875 84.609375 425.875 C 121.542969 425.875 227.03125 425.875 266.972656 425.875 C 306.914062 425.875 310.683594 387.449219 310.683594 387.449219 L 317.464844 363.34375 L 159.210938 268.40625 C 159.210938 268.40625 107.96875 266.148438 78.578125 281.214844 Z M 489.234375 561.214844 C 489.132812 561.652344 489.089844 561.933594 489.089844 561.933594 C 489.121094 561.679688 489.175781 561.441406 489.234375 561.214844 Z M 551.476562 526.996094 L 539.089844 524.117188 L 521.941406 526.292969 C 521.941406 526.292969 516.902344 537.082031 507.972656 544.28125 C 500.332031 550.4375 494.175781 553.007812 492.566406 553.628906 C 491.183594 555.578125 489.839844 558.136719 489.234375 561.214844 C 489.613281 559.5625 490.957031 555.621094 495.007812 555.621094 C 500.136719 555.621094 504.472656 565.082031 504.472656 565.082031 C 504.472656 565.082031 526.53125 565.082031 538.355469 565.082031 C 548.71875 565.082031 567.277344 555.382812 581.785156 549.28125 C 578.691406 542.546875 573.535156 534.074219 573.535156 534.074219 Z M 487.324219 534.058594 C 486.351562 533.195312 484.558594 532.308594 482.382812 531.445312 L 463.484375 529.609375 L 439.109375 522.082031 L 435.746094 526.277344 C 435.746094 526.277344 425.5625 538.789062 412.882812 545.992188 C 400.480469 553.039062 387.828125 554.308594 386.203125 561.101562 C 388.207031 559.5625 390.875 557.964844 393.335938 557.964844 C 398.066406 557.964844 400.425781 563.488281 400.425781 563.488281 C 400.425781 563.488281 441.398438 561.523438 456.367188 561.523438 C 471.339844 561.523438 475.675781 552.855469 482.367188 551.683594 C 485.6875 551.101562 489.191406 550.507812 491.886719 550.070312 C 491.507812 545.144531 490.375 536.753906 487.324219 534.058594 Z M 487.324219 534.058594 " fill-opacity="1" fill-rule="nonzero"/><path fill="#00bfa8" d="M 732.042969 401.570312 C 726.308594 414.519531 715.390625 425.875 695.519531 425.875 C 658.601562 425.875 553.097656 425.875 513.15625 425.875 C 485.039062 425.875 474.855469 406.839844 471.296875 395.570312 L 621.46875 395.570312 C 621.46875 395.570312 635.46875 413.703125 676.4375 413.703125 C 699.925781 413.6875 719.558594 407.148438 732.042969 401.570312 Z M 134.890625 407.445312 C 98.902344 407.445312 67.308594 407.445312 51.164062 407.445312 C 57.449219 417.769531 67.832031 425.875 84.625 425.875 C 121.542969 425.875 227.046875 425.875 266.984375 425.875 C 286.800781 425.875 297.703125 416.414062 303.664062 406.894531 L 270.941406 381.886719 C 270.941406 381.871094 187.046875 407.445312 134.890625 407.445312 Z M 134.890625 407.445312 " fill-opacity="1" fill-rule="nonzero"/><path fill="#ffffff" d="M 655.707031 348.617188 C 641.398438 363.65625 621.457031 395.570312 621.457031 395.570312 L 560.035156 395.570312 L 575.824219 518.398438 L 512.664062 518.398438 L 485.757812 393.820312 L 466.453125 393.820312 L 492.917969 518.707031 L 431.144531 518.707031 C 431.144531 518.707031 405.621094 438.257812 400.933594 403.761719 C 396.257812 369.25 405.609375 340.003906 431.933594 324.808594 C 458.261719 309.601562 495.703125 299.660156 495.703125 299.660156 L 510.320312 279.773438 L 579.339844 286.214844 L 651.285156 323.058594 C 651.300781 323.042969 670.011719 333.578125 655.707031 348.617188 Z M 733.144531 561.636719 L 725.433594 533.578125 L 706.917969 533.578125 L 719.050781 566.183594 C 720.121094 569.078125 722.890625 571 725.984375 571 C 730.886719 571 734.429688 566.339844 733.144531 561.636719 Z M 491.875 549.746094 C 491.886719 549.859375 491.886719 549.957031 491.902344 550.070312 C 491.902344 549.972656 491.886719 549.859375 491.875 549.746094 Z M 573.746094 534.441406 C 574.777344 536.164062 579.058594 543.378906 581.769531 549.265625 C 567.265625 555.367188 548.707031 565.070312 538.339844 565.070312 C 526.519531 565.070312 504.457031 565.070312 504.457031 565.070312 C 504.457031 565.070312 500.121094 555.609375 494.996094 555.609375 C 490.941406 555.609375 489.601562 559.546875 489.21875 561.199219 C 489.175781 561.441406 489.121094 561.664062 489.078125 561.917969 C 489.078125 561.917969 489.121094 561.636719 489.21875 561.199219 C 489.8125 558.136719 491.152344 555.566406 492.550781 553.617188 C 492.269531 553.714844 492.113281 553.773438 492.113281 553.773438 C 492.113281 553.773438 492.070312 552.246094 491.886719 550.058594 C 489.191406 550.496094 485.6875 551.089844 482.382812 551.667969 C 475.6875 552.855469 471.351562 561.511719 456.382812 561.511719 C 441.410156 561.511719 400.4375 563.472656 400.4375 563.472656 C 400.4375 563.472656 398.078125 557.953125 393.347656 557.953125 C 390.890625 557.953125 388.222656 559.546875 386.214844 561.085938 C 387.613281 555.183594 397.332031 553.445312 407.980469 548.492188 C 397.050781 553.574219 387.09375 555.269531 386.089844 561.539062 C 384.929688 568.742188 384.929688 572.777344 406.539062 572.777344 C 428.148438 572.777344 462.722656 572.777344 474.542969 572.777344 C 486.351562 572.777344 491.253906 567.597656 491.253906 567.597656 C 491.253906 567.597656 498.738281 573.640625 512.28125 573.640625 C 525.828125 573.640625 562.125 573.640625 573.082031 573.640625 C 584.027344 573.640625 585.46875 560.675781 583.746094 554.335938 C 582.179688 548.617188 575.0625 536.628906 573.746094 534.441406 Z M 217.144531 293.980469 L 264.753906 305.476562 L 237.976562 274.578125 L 255.644531 258.269531 L 241.253906 232.425781 L 225.660156 241.097656 C 225.660156 241.097656 226.238281 205.863281 225.082031 186.800781 C 223.921875 167.738281 212.949219 159.082031 197.9375 156.183594 C 182.921875 153.289062 182.921875 153.289062 182.921875 153.289062 L 176.230469 144.167969 L 172.882812 168.203125 L 143.347656 137.179688 L 136.34375 146.921875 C 136.34375 146.921875 120.214844 151.1875 106.824219 156.355469 C 93.4375 161.523438 85.527344 181.605469 89.484375 195.910156 C 93.4375 210.214844 105.300781 241.253906 105.300781 241.253906 C 105.300781 241.253906 97.390625 261.941406 95.554688 277.460938 C 93.734375 292.980469 101.359375 304.515625 101.359375 304.515625 L 150.621094 304.515625 C 150.621094 304.515625 160.070312 315.191406 181.992188 314.273438 C 201.90625 313.441406 214.925781 296.988281 217.144531 293.980469 Z M 338.578125 561.410156 C 332.179688 557.414062 307.789062 547.8125 307.789062 547.8125 L 276.195312 527.421875 C 276.195312 527.421875 252.199219 543.816406 247.410156 549.011719 C 242.609375 554.210938 241.410156 574.996094 250.601562 574.996094 C 259.796875 574.996094 324.171875 574.996094 335.371094 574.996094 C 346.570312 575.011719 344.976562 565.421875 338.578125 561.410156 Z M 45.941406 561.636719 C 44.640625 566.355469 48.1875 571 53.085938 571 C 56.179688 571 58.949219 569.078125 60.019531 566.183594 L 72.152344 533.578125 L 53.636719 533.578125 Z M 187.035156 561.636719 C 185.734375 566.355469 189.277344 571 194.179688 571 C 197.273438 571 200.039062 569.078125 201.113281 566.183594 L 213.246094 533.578125 L 194.746094 533.578125 Z M 187.035156 561.636719 " fill-opacity="1" fill-rule="nonzero"/><path fill="#f79a91" d="M 679.757812 255.996094 C 676.242188 267.335938 673.558594 273.816406 673.558594 273.816406 L 646.90625 315.839844 L 584.324219 303.328125 L 547.5625 290.421875 C 547.5625 290.421875 524.089844 300.195312 501.40625 301.761719 C 478.726562 303.328125 469.332031 282.203125 468.554688 268.917969 C 467.777344 255.613281 469.332031 242.722656 469.332031 242.722656 L 498.273438 209.480469 L 596.445312 200.484375 L 670.367188 232.949219 C 670.378906 232.921875 683.289062 244.640625 679.757812 255.996094 Z M 552.832031 126.617188 L 555.300781 137.914062 L 549.652344 153.460938 C 549.652344 153.460938 577.5625 157.34375 579.328125 157.34375 C 581.089844 157.34375 605.46875 147.105469 605.46875 147.105469 L 604.804688 129.101562 L 596.980469 102.085938 C 596.980469 102.085938 606.175781 70.101562 606.175781 61.980469 C 606.175781 53.863281 589.210938 36.550781 575.441406 33.726562 C 561.671875 30.902344 531.632812 34.078125 524.992188 42.070312 C 518.339844 50.0625 517.15625 67.996094 521.039062 97.667969 C 524.921875 127.320312 552.832031 126.617188 552.832031 126.617188 Z M 520.175781 518.523438 L 521.941406 526.292969 C 521.941406 526.292969 541.730469 524.171875 549.496094 536.882812 L 573.519531 534.058594 L 569.636719 518.511719 L 520.175781 518.511719 Z M 433.980469 518.523438 L 435.746094 526.292969 C 435.746094 526.292969 455.535156 524.171875 463.300781 536.882812 L 487.324219 534.058594 L 483.441406 518.511719 L 433.980469 518.511719 Z M 263.089844 244.375 C 263.089844 244.375 278.554688 243.878906 285.671875 243.878906 C 292.789062 243.878906 296.234375 241.675781 298.199219 238.484375 C 300.160156 235.292969 309.496094 223.757812 310.964844 220.566406 C 312.433594 217.375 309.003906 215.410156 306.050781 217.613281 C 303.101562 219.816406 296.476562 225.464844 296.476562 225.464844 C 296.476562 225.464844 282.480469 221.539062 278.058594 220.550781 C 273.636719 219.5625 267.253906 219.320312 260.628906 221.777344 C 254.007812 224.234375 241.253906 232.425781 241.253906 232.425781 L 252.042969 251.730469 Z M 176.523438 51.304688 C 135.707031 43.976562 125.652344 65.539062 122.515625 80.609375 C 119.382812 95.675781 123.5625 104.898438 129.847656 112.421875 C 136.132812 119.964844 145.550781 128.746094 145.550781 128.746094 L 144.917969 139.015625 L 172.867188 168.230469 L 176.214844 144.195312 L 176.949219 137.347656 C 176.949219 137.347656 196.425781 137.769531 201.03125 125.839844 C 205.632812 113.890625 217.355469 58.621094 176.523438 51.304688 Z M 303.792969 532.238281 C 303.394531 523.042969 309.382812 493.050781 309.382812 493.050781 L 258.597656 493.855469 C 258.597656 493.855469 257 514.246094 254.601562 526.644531 C 252.199219 539.042969 247.398438 549.027344 247.398438 549.027344 L 276.589844 562.625 L 293.777344 550.636719 L 305.769531 558.234375 L 316.96875 551.441406 C 316.984375 551.425781 304.1875 541.429688 303.792969 532.238281 Z M 303.792969 532.238281 " fill-opacity="1" fill-rule="nonzero"/><g clip-path="url(#b66bfe1a47)"><path fill="#28407e" d="M 673.558594 273.800781 C 673.558594 273.800781 659.492188 293.019531 647.132812 297.484375 C 634.945312 301.890625 597.332031 299.585938 563.691406 282.050781 L 616.472656 246.789062 C 618.433594 246.773438 628.984375 246.265625 634.335938 237.992188 L 682.171875 263.578125 C 682.171875 263.578125 693.117188 229.699219 697.921875 209.167969 C 702.707031 188.636719 699.289062 161.253906 671.226562 146.539062 C 643.164062 131.824219 604.832031 129.085938 604.832031 129.085938 C 604.832031 129.085938 599.015625 145.171875 577.800781 146.539062 C 556.585938 147.910156 554.523438 133.195312 554.523438 133.195312 C 514.484375 135.933594 492.578125 153.726562 480.941406 180.078125 C 469.304688 206.429688 464.855469 246.816406 464.855469 246.816406 L 489.402344 240.09375 C 487.734375 243.511719 484.96875 249.753906 484.96875 253.382812 C 484.96875 255.613281 485.449219 257.109375 486.492188 258.097656 C 487.691406 259.242188 489.472656 259.582031 492 259.582031 C 492.679688 259.582031 493.425781 259.554688 494.21875 259.511719 C 500.007812 259.199219 509.332031 251.023438 510.617188 249.878906 L 556.09375 232.90625 C 560.289062 231.847656 579.042969 227.203125 595.949219 223.882812 C 615.113281 220.113281 628.460938 234.828125 628.460938 234.828125 L 632.726562 237.113281 C 627.472656 245.050781 616.359375 244.953125 616.246094 244.953125 C 616.0625 244.964844 615.863281 245.007812 615.707031 245.109375 L 559.878906 282.402344 L 521.898438 298.175781 C 521.898438 298.175781 561.714844 293.714844 605.992188 310.871094 C 650.269531 328.027344 655.761719 348.617188 655.761719 348.617188 C 655.761719 348.617188 670.183594 333.859375 681.507812 329.738281 Z M 509.769531 248.214844 C 509.65625 248.257812 509.554688 248.3125 509.472656 248.398438 C 509.386719 248.46875 503.128906 254.117188 497.832031 256.558594 C 497.832031 256.558594 497.832031 256.558594 497.820312 256.558594 C 497.539062 256.417969 497.496094 256.320312 497.453125 256.222656 C 497.339844 255.867188 497.382812 254.835938 498.921875 251.984375 C 501.125 247.902344 506.320312 242.691406 506.363281 242.648438 C 506.730469 242.285156 506.730469 241.703125 506.363281 241.351562 C 505.996094 240.984375 505.417969 240.984375 505.066406 241.351562 C 504.839844 241.578125 499.640625 246.800781 497.296875 251.109375 C 495.800781 253.875 495.320312 255.570312 495.6875 256.773438 C 495.742188 256.96875 495.871094 257.109375 495.96875 257.28125 C 495.292969 257.492188 494.640625 257.632812 494.0625 257.675781 C 493.425781 257.703125 492.835938 257.730469 492.269531 257.730469 C 492.253906 257.632812 492.210938 257.519531 492.15625 257.421875 C 489.839844 253.679688 496.039062 244.9375 498.625 241.875 C 498.949219 241.476562 498.90625 240.898438 498.511719 240.574219 C 498.117188 240.25 497.539062 240.292969 497.210938 240.6875 C 496.222656 241.859375 487.917969 251.941406 490.25 257.660156 C 489.105469 257.546875 488.242188 257.28125 487.707031 256.757812 C 487.058594 256.136719 486.746094 255.0625 486.746094 253.382812 C 486.746094 248.765625 492.128906 238.640625 492.183594 238.542969 C 492.199219 238.511719 492.199219 238.5 492.210938 238.46875 C 494.769531 235.421875 503.003906 226.792969 515.121094 225.945312 C 526.914062 225.125 545.5 230.222656 552.433594 232.285156 Z M 524.980469 42.042969 C 535.164062 22.328125 567.730469 17.894531 586.558594 25.4375 C 605.382812 32.960938 610.921875 53.339844 610.707031 65.964844 C 610.496094 78.589844 596.980469 102.074219 596.980469 102.074219 L 590.78125 90.113281 C 596.316406 88.558594 600.75 81.46875 599.421875 72.390625 C 598.097656 63.308594 585.90625 65.738281 585.90625 65.738281 C 585.90625 65.738281 584.578125 83.234375 581.925781 83.007812 C 579.269531 82.78125 579.269531 78.363281 575.5 67.730469 C 571.726562 57.097656 572.390625 43.144531 572.390625 43.144531 C 536.730469 52.675781 524.980469 42.042969 524.980469 42.042969 Z M 552.789062 72.261719 C 553.945312 72.261719 554.894531 73.207031 554.894531 74.367188 C 554.894531 75.523438 553.945312 76.46875 552.789062 76.46875 C 551.628906 76.46875 550.683594 75.523438 550.683594 74.367188 C 550.683594 73.195312 551.628906 72.261719 552.789062 72.261719 Z M 529.570312 74.367188 C 529.570312 75.523438 528.621094 76.46875 527.464844 76.46875 C 526.308594 76.46875 525.359375 75.523438 525.359375 74.367188 C 525.359375 73.207031 526.308594 72.261719 527.464844 72.261719 C 528.621094 72.261719 529.570312 73.195312 529.570312 74.367188 Z M 536.09375 75.171875 C 536.066406 75.257812 533.507812 83.601562 533.507812 86.695312 C 533.507812 87.144531 533.679688 87.34375 533.835938 87.457031 C 534.738281 88.148438 537.210938 87.808594 538.253906 87.542969 C 538.75 87.414062 539.257812 87.710938 539.386719 88.207031 C 539.511719 88.699219 539.214844 89.195312 538.722656 89.335938 C 538.480469 89.390625 537.167969 89.714844 535.726562 89.714844 C 534.640625 89.714844 533.507812 89.53125 532.703125 88.910156 C 532.027344 88.390625 531.660156 87.613281 531.660156 86.679688 C 531.660156 83.304688 534.214844 74.960938 534.328125 74.605469 C 534.46875 74.125 534.992188 73.84375 535.488281 74 C 535.96875 74.167969 536.25 74.691406 536.09375 75.171875 Z M 552.816406 98.1875 C 553.453125 97.300781 553.59375 96.507812 553.496094 96.367188 C 553.4375 96.296875 552.859375 96.085938 551.207031 96.550781 C 546.546875 97.878906 540.078125 97.890625 539.808594 97.890625 C 539.300781 97.890625 538.890625 97.484375 538.890625 96.972656 C 538.890625 96.464844 539.300781 96.058594 539.808594 96.058594 C 539.878906 96.058594 546.292969 96.042969 550.699219 94.785156 C 551.515625 94.558594 553.972656 93.855469 555.003906 95.308594 C 555.796875 96.425781 555.175781 98.089844 554.328125 99.261719 C 552.984375 101.140625 548.691406 103.570312 544.949219 104.007812 C 544.90625 104.007812 544.878906 104.007812 544.835938 104.007812 C 544.371094 104.007812 543.976562 103.667969 543.917969 103.1875 C 543.863281 102.679688 544.214844 102.226562 544.722656 102.171875 C 548.167969 101.777344 551.871094 99.503906 552.816406 98.1875 Z M 553.890625 63.578125 C 549.511719 62.96875 546.050781 65.355469 546.023438 65.386719 C 545.613281 65.683594 545.035156 65.582031 544.738281 65.160156 C 544.441406 64.75 544.539062 64.171875 544.964844 63.875 C 545.132812 63.761719 549.046875 61.050781 554.144531 61.742188 C 559.3125 62.449219 561.472656 65.738281 561.574219 65.878906 C 561.855469 66.304688 561.726562 66.882812 561.289062 67.148438 C 561.136719 67.25 560.964844 67.292969 560.796875 67.292969 C 560.5 67.292969 560.203125 67.136719 560.019531 66.867188 C 559.933594 66.769531 558.167969 64.15625 553.890625 63.578125 Z M 522.777344 63.675781 C 522.578125 63.210938 522.804688 62.675781 523.269531 62.476562 C 526.40625 61.164062 533.171875 60.089844 536.433594 65.46875 C 536.703125 65.90625 536.558594 66.472656 536.121094 66.742188 C 535.96875 66.824219 535.8125 66.867188 535.640625 66.867188 C 535.332031 66.867188 535.035156 66.710938 534.851562 66.429688 C 531.589844 61.050781 524.046875 64.140625 523.976562 64.183594 C 523.511719 64.367188 522.972656 64.140625 522.777344 63.675781 Z M 346.796875 374.429688 C 342.40625 394.214844 312.929688 494.039062 312.929688 494.039062 L 243.878906 494.039062 C 243.878906 494.039062 243.878906 478.449219 246.253906 444.910156 L 213.246094 533.5625 L 194.746094 533.5625 L 224.65625 424.632812 L 248.101562 424.632812 C 251.054688 399.917969 255.304688 388.058594 255.304688 388.058594 L 156.355469 388.058594 C 142.277344 346.285156 95.667969 328.691406 95.667969 328.691406 C 95.667969 316.816406 101.386719 304.5 101.386719 304.5 L 150.652344 304.5 C 150.652344 304.5 161.203125 312.863281 180.113281 311.535156 C 199.023438 310.222656 217.496094 293.5 217.496094 293.5 C 217.496094 293.5 308.539062 314.613281 323.933594 323.410156 C 339.328125 332.207031 351.191406 354.632812 346.796875 374.429688 Z M 554.269531 133.183594 L 552.832031 126.601562 C 566.261719 126.601562 572.617188 121.304688 575.441406 123.777344 C 577.207031 125.34375 564.1875 129.960938 554.269531 133.183594 Z M 540.585938 319.835938 C 540.175781 319.910156 498.894531 326.953125 488.640625 347.007812 C 478.359375 367.117188 486.195312 389.878906 486.28125 390.105469 C 486.449219 390.585938 486.195312 391.109375 485.714844 391.277344 C 485.617188 391.320312 485.503906 391.332031 485.40625 391.332031 C 485.023438 391.332031 484.671875 391.09375 484.53125 390.726562 C 484.445312 390.488281 476.339844 366.988281 486.988281 346.175781 C 497.355469 325.910156 536.164062 318.734375 540.019531 318.074219 L 545.964844 313.03125 C 546.363281 312.707031 546.941406 312.75 547.265625 313.144531 C 547.589844 313.539062 547.546875 314.117188 547.152344 314.441406 L 541.007812 319.640625 C 540.910156 319.738281 540.753906 319.808594 540.585938 319.835938 Z M 725.433594 533.578125 L 706.917969 533.578125 L 666.367188 424.644531 L 695.503906 424.644531 Z M 83.566406 424.644531 L 112.703125 424.644531 L 72.152344 533.578125 L 53.636719 533.578125 Z M 104.566406 64.707031 C 102.023438 55.683594 109.367188 38.753906 123.746094 39.035156 C 138.136719 39.316406 139.550781 47.777344 139.550781 47.777344 C 150.253906 41.292969 162.386719 41.578125 180.453125 48.355469 C 198.5 55.117188 199.914062 67.8125 199.914062 67.8125 L 179.886719 55.117188 C 179.886719 55.117188 168.039062 71.472656 160.988281 83.035156 C 153.941406 94.601562 142.09375 95.730469 142.09375 95.730469 L 136.726562 85.859375 C 136.726562 85.859375 126.851562 80.777344 124.3125 90.097656 C 121.769531 99.402344 127.699219 109.273438 138.703125 109.839844 C 139.832031 120.273438 145.550781 128.746094 145.550781 128.746094 C 145.550781 128.746094 123.179688 119.144531 118.109375 105.886719 C 113.027344 92.625 114.15625 75.992188 114.15625 75.992188 C 114.15625 75.992188 107.09375 73.730469 104.566406 64.707031 Z M 176.976562 94.25 C 176.976562 93.304688 177.738281 92.539062 178.6875 92.539062 C 179.632812 92.539062 180.394531 93.304688 180.394531 94.25 C 180.394531 95.195312 179.632812 95.957031 178.6875 95.957031 C 177.753906 95.972656 176.976562 95.195312 176.976562 94.25 Z M 197.683594 92.652344 C 196.734375 92.652344 195.972656 91.890625 195.972656 90.945312 C 195.972656 90 196.734375 89.234375 197.683594 89.234375 C 198.628906 89.234375 199.390625 90 199.390625 90.945312 C 199.390625 91.890625 198.628906 92.652344 197.683594 92.652344 Z M 195.054688 101.691406 C 195.152344 101.523438 195.183594 101.378906 195.125 101.195312 C 194.617188 99.347656 192.0625 95.109375 191.113281 93.640625 C 190.847656 93.21875 190.960938 92.640625 191.398438 92.371094 C 191.820312 92.089844 192.398438 92.214844 192.667969 92.652344 C 192.808594 92.878906 196.226562 98.230469 196.90625 100.714844 C 197.089844 101.410156 196.992188 102.085938 196.609375 102.695312 C 195.492188 104.445312 192.203125 105.066406 191.835938 105.121094 C 191.777344 105.121094 191.722656 105.121094 191.679688 105.121094 C 191.242188 105.121094 190.847656 104.8125 190.777344 104.359375 C 190.691406 103.851562 191.03125 103.386719 191.523438 103.285156 C 192.695312 103.089844 194.5625 102.453125 195.054688 101.691406 Z M 193.277344 110.460938 C 193.785156 110.390625 194.25 110.730469 194.335938 111.222656 C 194.40625 111.730469 194.066406 112.199219 193.574219 112.28125 C 193.277344 112.324219 186.296875 113.382812 180.675781 110.914062 C 179.660156 110.460938 179.308594 110.585938 179.308594 110.601562 C 179.351562 110.601562 179.378906 111.039062 179.886719 111.789062 C 181.128906 113.582031 184.308594 115.796875 189.136719 116.109375 C 189.644531 116.136719 190.027344 116.574219 190 117.082031 C 189.972656 117.578125 189.5625 117.945312 189.082031 117.945312 C 189.066406 117.945312 189.039062 117.945312 189.023438 117.945312 C 182.289062 117.519531 178.515625 113.820312 177.710938 111.589844 C 177.371094 110.628906 177.5 109.769531 178.078125 109.230469 C 178.574219 108.78125 179.546875 108.414062 181.425781 109.230469 C 186.511719 111.464844 193.207031 110.460938 193.277344 110.460938 Z M 185.324219 84.617188 C 185.707031 84.957031 185.746094 85.535156 185.421875 85.917969 C 185.238281 86.128906 184.984375 86.242188 184.730469 86.242188 C 184.519531 86.242188 184.308594 86.171875 184.125 86.015625 C 178.234375 80.917969 171.878906 85.578125 171.824219 85.621094 C 171.414062 85.933594 170.832031 85.847656 170.535156 85.4375 C 170.226562 85.027344 170.3125 84.449219 170.71875 84.152344 C 170.792969 84.082031 178.332031 78.558594 185.324219 84.617188 Z M 203.273438 81.738281 C 203.699219 82.035156 203.796875 82.597656 203.5 83.023438 C 203.203125 83.445312 202.625 83.546875 202.214844 83.25 C 200.621094 82.117188 199.066406 81.679688 197.597656 81.949219 C 195.335938 82.34375 193.96875 84.308594 193.953125 84.320312 C 193.769531 84.574219 193.488281 84.71875 193.191406 84.71875 C 193.007812 84.71875 192.824219 84.660156 192.667969 84.5625 C 192.246094 84.28125 192.144531 83.699219 192.429688 83.292969 C 192.5 83.191406 194.222656 80.691406 197.246094 80.140625 C 199.222656 79.773438 201.253906 80.3125 203.273438 81.738281 Z M 181.933594 197.039062 C 184.066406 197.039062 185.804688 195.300781 185.804688 193.167969 C 185.804688 191.035156 184.066406 189.300781 181.933594 189.300781 C 179.800781 189.300781 178.066406 191.035156 178.066406 193.167969 C 178.066406 195.300781 179.800781 197.039062 181.933594 197.039062 Z M 181.933594 191.136719 C 183.050781 191.136719 183.96875 192.039062 183.96875 193.167969 C 183.96875 194.285156 183.066406 195.203125 181.933594 195.203125 C 180.820312 195.203125 179.902344 194.300781 179.902344 193.167969 C 179.902344 192.054688 180.820312 191.136719 181.933594 191.136719 Z M 187.441406 235.40625 C 189.574219 235.40625 191.3125 233.667969 191.3125 231.535156 C 191.3125 229.40625 189.574219 227.667969 187.441406 227.667969 C 185.308594 227.667969 183.574219 229.40625 183.574219 231.535156 C 183.574219 233.667969 185.308594 235.40625 187.441406 235.40625 Z M 187.441406 229.503906 C 188.558594 229.503906 189.476562 230.40625 189.476562 231.535156 C 189.476562 232.652344 188.574219 233.570312 187.441406 233.570312 C 186.328125 233.570312 185.410156 232.667969 185.410156 231.535156 C 185.410156 230.40625 186.328125 229.503906 187.441406 229.503906 Z M 108.210938 244.132812 C 108.40625 244.558594 127.617188 286.597656 146.894531 301.621094 C 147.289062 301.933594 147.359375 302.511719 147.050781 302.921875 C 146.867188 303.144531 146.597656 303.273438 146.316406 303.273438 C 146.117188 303.273438 145.917969 303.214844 145.75 303.074219 C 126.117188 287.769531 107.320312 246.648438 106.53125 244.894531 C 106.316406 244.429688 106.53125 243.878906 106.996094 243.679688 C 107.460938 243.457031 108 243.667969 108.210938 244.132812 Z M 206.101562 187.097656 C 205.875 186.644531 206.058594 186.09375 206.507812 185.855469 C 206.976562 185.628906 207.511719 185.8125 207.753906 186.265625 C 207.90625 186.574219 222.625 216.566406 214.898438 245.628906 L 222.230469 241.734375 C 222.679688 241.492188 223.230469 241.660156 223.472656 242.113281 C 223.710938 242.566406 223.542969 243.117188 223.089844 243.355469 L 174.292969 269.324219 C 174.152344 269.394531 174.011719 269.4375 173.855469 269.4375 C 173.757812 269.4375 173.644531 269.425781 173.546875 269.382812 C 173.304688 269.296875 173.109375 269.113281 173.007812 268.875 L 142.714844 196.882812 C 142.515625 196.417969 142.742188 195.867188 143.207031 195.683594 C 143.675781 195.484375 144.210938 195.710938 144.410156 196.175781 L 174.308594 267.234375 L 212.695312 246.816406 C 212.695312 246.757812 212.695312 246.6875 212.710938 246.632812 C 221.167969 217.8125 206.253906 187.394531 206.101562 187.097656 Z M 237.113281 276.144531 C 237.453125 276.527344 237.425781 277.105469 237.042969 277.445312 L 220.519531 292.398438 C 220.351562 292.554688 220.125 292.640625 219.898438 292.640625 C 219.644531 292.640625 219.390625 292.542969 219.21875 292.34375 C 218.882812 291.960938 218.910156 291.382812 219.292969 291.042969 L 235.816406 276.089844 C 236.183594 275.75 236.777344 275.777344 237.113281 276.144531 Z M 166.046875 166.804688 C 166.484375 166.535156 167.046875 166.675781 167.316406 167.101562 C 167.585938 167.539062 167.445312 168.105469 167.019531 168.371094 C 166.949219 168.414062 162.289062 171.238281 157.007812 171.238281 C 154.167969 171.238281 151.160156 170.433594 148.574219 167.960938 C 141.472656 161.171875 138.421875 148.882812 138.292969 148.375 C 138.167969 147.882812 138.476562 147.386719 138.972656 147.261719 C 139.464844 147.132812 139.960938 147.445312 140.085938 147.9375 C 140.113281 148.066406 143.152344 160.210938 149.859375 166.636719 C 156.230469 172.734375 165.945312 166.859375 166.046875 166.804688 Z M 177.726562 166.394531 C 180.410156 167.15625 182.273438 166.988281 183.289062 165.902344 C 185.296875 163.753906 183.96875 158.273438 183.289062 156.339844 C 183.121094 155.859375 183.375 155.339844 183.855469 155.167969 C 184.335938 155 184.859375 155.253906 185.027344 155.734375 C 185.140625 156.058594 187.824219 163.769531 184.644531 167.15625 C 183.6875 168.1875 182.332031 168.695312 180.621094 168.695312 C 179.617188 168.695312 178.488281 168.527344 177.230469 168.160156 C 176.738281 168.019531 176.453125 167.511719 176.597656 167.015625 C 176.722656 166.550781 177.230469 166.269531 177.726562 166.394531 Z M 568.226562 499.023438 C 568.226562 499.53125 567.816406 499.941406 567.308594 499.941406 L 512.492188 499.941406 C 511.984375 499.941406 511.574219 499.53125 511.574219 499.023438 C 511.574219 498.515625 511.984375 498.105469 512.492188 498.105469 L 567.308594 498.105469 C 567.816406 498.105469 568.226562 498.515625 568.226562 499.023438 Z M 486.5625 499.023438 C 486.5625 499.53125 486.152344 499.941406 485.644531 499.941406 L 430.832031 499.941406 C 430.324219 499.941406 429.914062 499.53125 429.914062 499.023438 C 429.914062 498.515625 430.324219 498.105469 430.832031 498.105469 L 485.644531 498.105469 C 486.152344 498.105469 486.5625 498.515625 486.5625 499.023438 Z M 229.828125 89.589844 L 265.488281 77.386719 C 267.382812 76.738281 269.457031 76.9375 271.179688 77.925781 C 272.917969 78.914062 274.148438 80.59375 274.542969 82.558594 C 275.601562 87.640625 280.121094 91.324219 285.304688 91.324219 C 285.332031 91.324219 285.359375 91.324219 285.375 91.324219 L 432.867188 90.296875 C 435.847656 90.28125 438.628906 89.082031 440.691406 86.949219 C 442.765625 84.800781 443.855469 81.992188 443.769531 79.011719 L 442.003906 14.789062 C 441.835938 8.871094 437.074219 4.183594 431.171875 4.097656 L 281.265625 2.035156 C 278.269531 2.007812 275.402344 3.167969 273.285156 5.3125 C 271.167969 7.472656 270.035156 10.324219 270.136719 13.347656 L 271.152344 48.214844 C 271.394531 56.417969 267.210938 64.199219 260.25 68.535156 L 229.035156 87.9375 C 228.640625 88.191406 228.484375 88.683594 228.699219 89.109375 C 228.894531 89.53125 229.375 89.746094 229.828125 89.589844 Z M 261.222656 70.101562 C 268.75 65.425781 273.257812 57.011719 273.003906 48.15625 L 271.972656 13.292969 C 271.902344 10.777344 272.832031 8.40625 274.597656 6.613281 C 276.363281 4.820312 278.707031 3.800781 281.238281 3.886719 L 431.15625 5.933594 C 436.070312 6.003906 440.039062 9.902344 440.183594 14.832031 L 441.949219 79.054688 C 442.019531 81.539062 441.101562 83.882812 439.375 85.664062 C 437.652344 87.441406 435.335938 88.429688 432.867188 88.460938 L 285.375 89.492188 C 285.347656 89.492188 285.332031 89.492188 285.304688 89.492188 C 280.984375 89.492188 277.226562 86.425781 276.351562 82.203125 C 275.839844 79.734375 274.289062 77.601562 272.097656 76.34375 C 270.757812 75.582031 269.246094 75.183594 267.734375 75.183594 C 266.773438 75.183594 265.8125 75.339844 264.894531 75.652344 L 236.902344 85.226562 Z M 289.554688 24.265625 C 289.570312 23.753906 289.992188 23.375 290.5 23.359375 L 417.625 26.269531 C 418.136719 26.28125 418.542969 26.707031 418.53125 27.214844 C 418.515625 27.722656 418.105469 28.117188 417.613281 28.117188 C 417.597656 28.117188 417.597656 28.117188 417.585938 28.117188 L 290.460938 25.210938 C 289.949219 25.195312 289.542969 24.785156 289.554688 24.265625 Z M 413.304688 44.613281 C 413.304688 45.121094 412.894531 45.53125 412.386719 45.53125 C 412.386719 45.53125 412.386719 45.53125 412.371094 45.53125 L 294.527344 44.371094 C 294.019531 44.371094 293.609375 43.949219 293.609375 43.441406 C 293.609375 42.933594 294.03125 42.523438 294.527344 42.523438 C 294.527344 42.523438 294.527344 42.523438 294.539062 42.523438 L 412.386719 43.679688 C 412.894531 43.695312 413.304688 44.105469 413.304688 44.613281 Z M 410.394531 62.589844 C 410.394531 63.097656 409.984375 63.519531 409.476562 63.519531 L 295.699219 64.679688 C 295.699219 64.679688 295.699219 64.679688 295.683594 64.679688 C 295.175781 64.679688 294.765625 64.269531 294.765625 63.761719 C 294.765625 63.253906 295.175781 62.828125 295.683594 62.828125 L 409.464844 61.671875 C 409.929688 61.601562 410.394531 62.082031 410.394531 62.589844 Z M 176.949219 137.332031 L 176.214844 144.183594 L 175.820312 147.019531 C 168.617188 143.125 160.339844 138.207031 160.820312 136.5 C 161.679688 133.519531 166.808594 135.652344 176.949219 137.332031 Z M 324.355469 570.351562 C 324.199219 572.625 322.617188 574.601562 320.132812 575.644531 C 320.019531 575.6875 319.890625 575.714844 319.78125 575.714844 C 319.425781 575.714844 319.074219 575.503906 318.933594 575.152344 C 318.734375 574.683594 318.960938 574.132812 319.425781 573.9375 C 321.261719 573.160156 322.421875 571.777344 322.535156 570.207031 C 322.660156 568.429688 321.433594 566.664062 319.085938 565.253906 C 313.464844 561.878906 309.144531 559.746094 309.101562 559.730469 C 308.648438 559.503906 308.453125 558.953125 308.679688 558.503906 C 308.90625 558.050781 309.457031 557.867188 309.90625 558.078125 C 309.949219 558.105469 314.34375 560.253906 320.035156 563.683594 C 324.03125 566.101562 324.453125 568.894531 324.355469 570.351562 Z M 324.355469 570.351562 " fill-opacity="1" fill-rule="nonzero"/></g></svg>