<svg width="24" height="22" viewBox="0 0 24 22" fill="none" xmlns="http://www.w3.org/2000/svg">
<path d="M6.17728 4.62295L0.422062 2.46473L6.22594 0.405273L11.963 2.50424L6.17728 4.62295ZM6.55228 9.63412C7.78214 9.24444 9.02672 9.29277 10.1771 9.68812L12.4017 5.3856V3.14563L6.55228 5.28768V9.63412ZM16.6437 0.471602L16.6541 17.7764L24 14.6675L16.6437 0.471648V0.471602ZM10.8711 9.98582C12.3543 10.8082 13.4648 12.0079 13.6327 13.8113C13.5166 15.1814 12.9515 16.4421 12.0116 17.4051C11.0055 18.4358 9.64702 19.027 8.28455 19.027C6.91219 19.027 5.54648 18.5255 4.53755 17.6512C3.4995 16.7517 2.92411 15.5459 2.91408 14.2528C2.96048 12.4124 3.78722 10.9141 5.79914 9.93487V5.28543L0 3.1108V10.7986L3.14794 12.2363C2.53856 13.1831 2.18484 14.3101 2.18484 15.5198C2.18484 18.8751 4.90486 21.5952 8.26017 21.5952C11.0995 21.5952 13.4837 19.6473 14.1499 17.015L15.8006 17.7764L15.7901 0.471695L10.8711 9.98591V9.98582Z" fill="#A7A4AD"/>
</svg>
