<svg width="14" height="16" viewBox="0 0 14 16" fill="none" xmlns="http://www.w3.org/2000/svg">
<path d="M3.59985e-06 7.93118C-0.000227855 8.06168 0.0379572 8.18931 0.109718 8.29789C0.181478 8.40647 0.283583 8.49111 0.403087 8.54108C0.522591 8.59105 0.654113 8.6041 0.780979 8.57858C0.907844 8.55305 1.02434 8.49011 1.1157 8.39771L7.11877 2.33944C7.73136 1.72148 8.56221 1.37432 9.42855 1.37432C9.85751 1.37432 10.2823 1.45955 10.6786 1.62514C11.0749 1.79074 11.435 2.03346 11.7383 2.33944C12.0416 2.64542 12.2823 3.00867 12.4464 3.40845C12.6106 3.80824 12.6951 4.23672 12.6951 4.66944C12.6951 5.10216 12.6106 5.53065 12.4464 5.93043C12.2823 6.33021 12.0416 6.69347 11.7383 6.99945L4.8103 13.9881C4.5639 14.2282 4.23389 14.361 3.89135 14.358C3.54881 14.355 3.22114 14.2164 2.97891 13.9721C2.73669 13.7277 2.59929 13.3972 2.59632 13.0517C2.59334 12.7061 2.72502 12.3732 2.963 12.1247L9.89103 5.13597C9.95176 5.0747 9.99994 5.00197 10.0328 4.92193C10.0657 4.84188 10.0826 4.75608 10.0826 4.66944C10.0826 4.5828 10.0657 4.497 10.0328 4.41696C9.99994 4.33691 9.95176 4.26418 9.89103 4.20291C9.83029 4.14165 9.75819 4.09305 9.67884 4.05989C9.59949 4.02674 9.51444 4.00967 9.42855 4.00967C9.34266 4.00967 9.25761 4.02674 9.17826 4.05989C9.09891 4.09305 9.0268 4.14165 8.96607 4.20291L2.03804 11.1929C1.78849 11.4361 1.58943 11.7269 1.45249 12.0485C1.31556 12.3701 1.24348 12.7159 1.24046 13.0659C1.23745 13.4159 1.30356 13.7629 1.43494 14.0869C1.56631 14.4108 1.76033 14.7051 2.00566 14.9525C2.25099 15.2 2.54272 15.3957 2.86383 15.5283C3.18494 15.6608 3.529 15.7275 3.87594 15.7244C4.22287 15.7214 4.56574 15.6487 4.88452 15.5106C5.2033 15.3724 5.49161 15.1716 5.73264 14.9199L12.6607 7.93118C13.5182 7.06612 14 5.89283 14 4.66944C14 3.44605 13.5182 2.27277 12.6607 1.4077C11.8031 0.542631 10.64 0.0566406 9.42724 0.0566406C8.21447 0.0566406 7.05137 0.542631 6.19381 1.4077L0.19205 7.46466C0.131313 7.52588 0.0831885 7.59862 0.0504519 7.67869C0.0177153 7.75876 -0.00029273 7.84457 3.59985e-06 7.93118Z" fill="#A7A4AD"/>
</svg>
