<svg width="31" height="31" viewBox="0 0 31 31" fill="none" xmlns="http://www.w3.org/2000/svg">
<circle cx="15.5" cy="15.5" r="15.5" fill="black"/>
<path d="M13.5162 9.91992C13.8813 9.91992 14.2097 9.97036 14.5109 10.0732C14.8103 10.1751 15.0656 10.3432 15.2813 10.5757C15.4938 10.8081 15.6599 11.1167 15.7795 11.5044C15.8954 11.8872 15.9531 12.3659 15.9531 12.9316C15.9531 13.5449 15.8663 14.0572 15.6921 14.4657C15.5168 14.8752 15.2583 15.2105 14.9138 15.4696C15.3829 15.6862 15.7306 16.065 15.9611 16.6031C16.1929 17.1461 16.3063 17.7959 16.3063 18.5575C16.3063 19.1757 16.2326 19.7068 16.0844 20.1529C15.9417 20.5923 15.7346 20.9703 15.4808 21.2547C15.2179 21.5469 14.9242 21.7613 14.6138 21.8877C14.2883 22.024 13.9531 22.0925 13.6166 22.0914H9.91992V9.91992H13.5162ZM13.2987 14.8376C13.5962 14.8376 13.8428 14.7248 14.0374 14.4964C14.2308 14.2709 14.3244 13.899 14.3244 13.3896C14.3244 13.1067 14.2928 12.8733 14.2308 12.6903C14.1704 12.5143 14.0811 12.3679 13.9724 12.267C13.8586 12.1593 13.7331 12.0871 13.6024 12.0543C13.46 12.0119 13.3153 11.9917 13.1704 11.994H11.5994V14.8376H13.2987ZM13.3923 20.0193C13.5578 20.0193 13.7152 19.9966 13.8633 19.9432C14.0127 19.8917 14.1453 19.8087 14.2581 19.685C14.3709 19.5663 14.4638 19.4051 14.5308 19.1994C14.5983 18.9956 14.6312 18.7296 14.6312 18.4101C14.6312 17.783 14.5202 17.337 14.3008 17.067C14.0808 16.7999 13.7858 16.6674 13.4245 16.6674H11.5994V20.0203L13.3923 20.0193ZM18.7003 19.9788C18.9278 20.3329 19.2556 20.5109 19.682 20.5109C19.9875 20.5109 20.2515 20.3873 20.474 20.142C20.6934 19.8957 20.8273 19.6326 20.8787 19.3606H22.2142C21.9998 20.4209 21.6745 21.1785 21.2295 21.6345C20.7901 22.0924 20.2553 22.3199 19.6306 22.3199C19.1955 22.3199 18.8038 22.2082 18.4531 21.9866C18.1164 21.7773 17.8121 21.4541 17.5613 21.0391C17.3145 20.6144 17.1238 20.1149 17.0004 19.5703C16.8647 18.9681 16.7976 18.332 16.8021 17.6921C16.8021 17.0333 16.8709 16.4171 17.006 15.8484C17.1342 15.2987 17.3312 14.7963 17.5848 14.3717C17.8358 13.9563 18.1333 13.6289 18.4797 13.3886C18.844 13.1441 19.236 13.0222 19.6312 13.0306C20.0985 13.0306 20.5069 13.175 20.8576 13.4657C21.1978 13.7433 21.4927 14.1436 21.7191 14.6348C21.944 15.1224 22.1045 15.6813 22.2043 16.3074C22.3041 16.9324 22.3388 17.5852 22.3103 18.2687H18.3248C18.3254 18.965 18.4723 19.6247 18.7003 19.9788ZM20.443 15.3489C20.2627 15.0305 19.9578 14.8584 19.5847 14.8584C19.3424 14.8584 19.1422 14.9226 18.9811 15.0552C18.8337 15.1739 18.703 15.3392 18.5968 15.5408C18.5036 15.7239 18.4344 15.9352 18.3936 16.162C18.3578 16.3511 18.3348 16.5457 18.3248 16.7425H20.7926C20.7566 16.1254 20.624 15.6694 20.443 15.3489ZM18.0149 10.7369H21.1068V11.9386H18.0149V10.7369Z" fill="#C0C3C9"/>
</svg>
