<svg width="39" height="500" viewBox="0 0 39 500" fill="none" xmlns="http://www.w3.org/2000/svg">
<path d="M22.6377 495.974C22.8636 496.478 22.6381 497.07 22.1342 497.296C21.6302 497.522 21.0385 497.296 20.8126 496.792L22.6377 495.974ZM4.22534 106.691L5.19867 106.461L4.22534 106.691ZM21.7252 6.3291C22.5542 6.88838 22.5542 6.88824 22.5542 6.88828C22.5541 6.88852 22.5539 6.88873 22.5536 6.88921C22.5529 6.89017 22.5518 6.89182 22.5503 6.89416C22.5471 6.89882 22.5422 6.90623 22.5354 6.91635C22.522 6.93661 22.5013 6.96774 22.4738 7.00962C22.4188 7.09338 22.3362 7.22013 22.2284 7.38878C22.0129 7.7261 21.6963 8.23101 21.2969 8.89491C20.4979 10.2228 19.3674 12.1863 18.0496 14.7166C15.4135 19.7779 12.0301 27.1025 9.04992 36.1404C3.08803 54.2212 -1.24663 79.1168 5.19867 106.461L3.25201 106.92C-3.30278 79.1111 1.11247 53.8258 7.15052 35.5141C10.1703 26.3559 13.5994 18.9314 16.2758 13.7927C17.6142 11.223 18.7649 9.22367 19.5832 7.8638C19.9923 7.18382 20.3183 6.66361 20.5432 6.31177C20.6556 6.13584 20.7428 6.002 20.8023 5.91132C20.8321 5.86598 20.855 5.83143 20.8708 5.8078C20.8786 5.79599 20.8847 5.78691 20.889 5.78057C20.8911 5.7774 20.8928 5.77492 20.894 5.77313C20.8946 5.77224 20.8951 5.77141 20.8954 5.77096C20.8959 5.77031 20.8962 5.76982 21.7252 6.3291ZM5.19867 106.461C19.0151 165.079 61.3124 220.597 22.6525 315.927L20.7991 315.176C59.1399 220.632 17.2521 166.316 3.25201 106.92L5.19867 106.461ZM22.6525 315.927C3.48671 363.188 3.48273 408.207 8.27756 441.426C10.6748 458.034 14.2704 471.684 17.2648 481.178C18.7619 485.925 20.1084 489.631 21.079 492.147C21.5644 493.405 21.9557 494.366 22.2249 495.01C22.3594 495.332 22.4635 495.575 22.5335 495.736C22.5684 495.817 22.5949 495.878 22.6124 495.917C22.6212 495.937 22.6277 495.952 22.6319 495.961C22.6341 495.966 22.6356 495.97 22.6366 495.972C22.637 495.973 22.6373 495.974 22.6376 495.974C22.6377 495.974 22.6377 495.974 21.7251 496.383C20.8126 496.792 20.8123 496.792 20.8119 496.791C20.8115 496.79 20.8109 496.789 20.8102 496.787C20.8089 496.784 20.8069 496.78 20.8044 496.774C20.7993 496.762 20.7919 496.746 20.7823 496.724C20.7631 496.681 20.735 496.616 20.6983 496.532C20.6249 496.362 20.5175 496.111 20.3795 495.781C20.1035 495.121 19.7053 494.143 19.2131 492.867C18.2287 490.315 16.8681 486.569 15.3574 481.78C12.3363 472.201 8.71327 458.444 6.29808 441.712C1.46813 408.249 1.46446 362.852 20.7991 315.176L22.6525 315.927Z" fill="white"/>
<ellipse cx="6.5" cy="5.87703" rx="6.5" ry="5.87703" transform="matrix(-1 0 0 1 28.7249 0)" fill="#888888"/>
<ellipse cx="6.5" cy="5.87703" rx="6.5" ry="5.87703" transform="matrix(-1 0 0 1 28.7249 153.707)" fill="#888888"/>
<ellipse cx="6.5" cy="5.87703" rx="6.5" ry="5.87703" transform="matrix(-1 0 0 1 28.7249 309.223)" fill="#888888"/>
<ellipse cx="6.5" cy="5.87703" rx="6.5" ry="5.87703" transform="matrix(-1 0 0 1 28.7249 488.246)" fill="#888888"/>
</svg>
