<svg width="31" height="31" viewBox="0 0 31 31" fill="none" xmlns="http://www.w3.org/2000/svg">
<circle cx="15.5" cy="15.5" r="15.5" fill="black"/>
<path d="M15.5005 7.25586C10.9495 7.25586 7.25586 10.9495 7.25586 15.5005C7.25586 20.0516 10.9495 23.7452 15.5005 23.7452C20.0434 23.7452 23.7452 20.0516 23.7452 15.5005C23.7452 10.9495 20.0434 7.25586 15.5005 7.25586ZM20.9462 11.0567C21.9608 12.2928 22.5223 13.8387 22.5374 15.4379C22.3057 15.3934 19.9807 14.9193 17.6376 15.2145C17.584 15.0982 17.5386 14.9729 17.4859 14.8476C17.34 14.5038 17.185 14.164 17.0209 13.8285C19.6138 12.7732 20.7944 11.2529 20.9462 11.0567ZM15.5005 8.47195C17.2896 8.47195 18.9254 9.14307 20.1687 10.2429C20.0434 10.421 18.979 11.8432 16.4751 12.7823C15.3216 10.6634 14.0429 8.92788 13.8458 8.65993C14.3882 8.53313 14.9435 8.47004 15.5005 8.47195ZM12.5052 9.134C13.4488 10.4419 14.3204 11.8001 15.1163 13.2027C11.8251 14.0792 8.91881 14.0602 8.60634 14.0602C8.83292 12.9943 9.30269 11.9951 9.979 11.1406C10.6553 10.2861 11.5199 9.59937 12.5052 9.134ZM8.45381 15.5088V15.2944C8.75886 15.3027 12.1738 15.348 15.6885 14.2927C15.8946 14.686 16.0818 15.0883 16.2607 15.4906C16.1708 15.5179 16.0727 15.5442 15.9837 15.5714C12.3527 16.7422 10.421 19.9436 10.2602 20.2124C9.09752 18.9217 8.45343 17.246 8.45381 15.5088ZM15.5005 22.5473C13.9352 22.5499 12.4143 22.0274 11.1812 21.0632C11.3065 20.8035 12.7377 18.049 16.7076 16.663C16.7257 16.6548 16.7348 16.6548 16.7521 16.6449C17.4218 18.3725 17.9251 20.1601 18.2551 21.9833C17.3851 22.3577 16.4476 22.5496 15.5005 22.5473ZM19.4258 21.3394C19.3549 20.9107 18.979 18.8537 18.0572 16.3234C20.2668 15.9746 22.1985 16.5468 22.4393 16.6276C22.2889 17.5783 21.9436 18.4876 21.425 19.2985C20.9064 20.1093 20.2258 20.8042 19.4258 21.3394Z" fill="#C0C3C9"/>
</svg>
