<svg width="31" height="31" viewBox="0 0 31 31" fill="none" xmlns="http://www.w3.org/2000/svg">
<circle cx="15.5" cy="15.5" r="15.5" fill="black"/>
<path d="M16.9895 16.6132H16.8655V16.7372V23.6212H13.8157V16.7372V16.6132H13.6917H11.3423V13.5634H13.6917H13.8157V13.4394V11.1309C13.8157 9.90338 14.2038 8.96919 14.8525 8.34166C15.5019 7.71341 16.4255 7.37986 17.5197 7.37986C18.4742 7.37986 19.3821 7.44361 19.7512 7.48184V10.0175H18.6385C17.7989 10.0175 17.3335 10.2208 17.0928 10.5783C16.9752 10.7529 16.9196 10.9532 16.8924 11.1582C16.8655 11.3608 16.8655 11.5768 16.8655 11.7859V11.7904V13.4394V13.5634H16.9895H19.7164L18.9539 16.6132H16.9895Z" fill="#C0C3C9" stroke="black" stroke-width="0.248"/>
</svg>
