<svg width="541" height="45" viewBox="0 0 541 45" fill="none" xmlns="http://www.w3.org/2000/svg">
<g filter="url(#filter0_d_32_29)">
<path d="M299.58 1.70459L299.581 7.50915H275.457C274.96 7.50915 274.48 7.53097 274.057 7.63248C273.609 7.74018 273.17 7.9513 272.834 8.36407C272.516 8.75473 272.375 9.22418 272.302 9.67848C272.229 10.134 272.21 10.6742 272.21 11.2843C272.21 11.8945 272.23 12.4357 272.302 12.8929C272.375 13.3487 272.515 13.8185 272.829 14.2108C273.162 14.626 273.599 14.843 274.05 14.955C274.475 15.0603 274.958 15.0838 275.457 15.0838H294.61C296.806 15.0838 298.38 15.8225 299.433 17.1467C300.516 18.508 301.157 20.6249 301.157 23.573V25.8775C301.157 28.8389 300.516 30.9621 299.433 32.3262C298.38 33.653 296.806 34.3915 294.61 34.3915H267.195V28.587H293.034C293.529 28.587 294.011 28.5653 294.434 28.4619C294.885 28.3517 295.324 28.135 295.656 27.714C295.968 27.3189 296.103 26.8456 296.172 26.3893C296.242 25.9301 296.26 25.3832 296.26 24.7625V24.6861C296.26 24.0654 296.242 23.5185 296.172 23.0593C296.103 22.603 295.968 22.1297 295.656 21.7346C295.324 21.3136 294.885 21.0969 294.434 20.9866C294.011 20.8833 293.529 20.8616 293.034 20.8616H273.88C271.684 20.8616 270.104 20.1227 269.046 18.7972C267.959 17.4357 267.314 15.3191 267.314 12.3724V10.2186C267.314 7.25874 267.959 5.13579 269.046 3.77135C270.105 2.44339 271.684 1.70459 273.88 1.70459H299.58Z" stroke="white" stroke-width="2"/>
<path d="M322.49 7.50915H306.426V1.70459H345.452V7.50915H329.387H328.387V8.50915V34.3915H323.49V8.50915V7.50915H322.49Z" stroke="white" stroke-width="2"/>
<path d="M351.43 25.8775V1.70459H356.327V24.7625C356.327 25.383 356.344 25.9304 356.415 26.3901C356.485 26.8472 356.621 27.3215 356.935 27.717C357.27 28.1376 357.711 28.353 358.163 28.4624C358.588 28.5653 359.073 28.587 359.573 28.587H380.303C380.803 28.587 381.288 28.5653 381.712 28.4625C382.164 28.353 382.605 28.1376 382.94 27.7171C383.255 27.3216 383.391 26.8473 383.461 26.3901C383.531 25.9304 383.549 25.383 383.549 24.7625V1.70459H388.446V25.8775C388.446 28.8389 387.804 30.9621 386.722 32.3262C385.668 33.653 384.094 34.3915 381.899 34.3915H357.997C355.801 34.3915 354.221 33.6527 353.163 32.3247C352.075 30.9603 351.43 28.8374 351.43 25.8775Z" stroke="white" stroke-width="2"/>
<path d="M431.409 10.2186V25.8775C431.409 28.8389 430.768 30.9621 429.685 32.3262C428.632 33.653 427.058 34.3915 424.863 34.3915H397.191V28.587H423.266C423.767 28.587 424.251 28.5653 424.676 28.4624C425.128 28.353 425.569 28.1376 425.904 27.717C426.218 27.3215 426.354 26.8472 426.424 26.3901C426.495 25.9304 426.513 25.383 426.513 24.7625V11.3336C426.513 10.7131 426.495 10.1657 426.424 9.70603C426.354 9.2489 426.218 8.77461 425.904 8.37911C425.569 7.95853 425.128 7.74314 424.676 7.63365C424.251 7.53083 423.767 7.50915 423.266 7.50915H397.191V1.70459H424.862C427.058 1.70459 428.632 2.44315 429.685 3.76991C430.768 5.13406 431.409 7.25723 431.409 10.2186Z" stroke="white" stroke-width="2"/>
<path d="M445.733 1.70459V34.3915H440.836V1.70459H445.733Z" stroke="white" stroke-width="2"/>
<path d="M493.201 10.2186V25.8775C493.201 28.8389 492.56 30.9621 491.477 32.3262C490.424 33.653 488.85 34.3915 486.654 34.3915H461.727C459.52 34.3915 457.941 33.6521 456.886 32.3255C455.802 30.9616 455.16 28.8389 455.16 25.8775V10.2186C455.16 7.25717 455.802 5.13448 456.886 3.77061C457.941 2.44402 459.52 1.70459 461.727 1.70459H486.654C488.85 1.70459 490.424 2.44312 491.477 3.76988C492.56 5.13405 493.201 7.25723 493.201 10.2186ZM463.303 28.587H485.076C485.572 28.587 486.054 28.5653 486.477 28.462C486.927 28.3517 487.367 28.135 487.699 27.7141C488.011 27.3189 488.146 26.8456 488.215 26.3893C488.285 25.9301 488.303 25.3832 488.303 24.7625V11.3336C488.303 10.7129 488.285 10.166 488.215 9.7068C488.146 9.25046 488.011 8.77716 487.699 8.38204C487.367 7.96107 486.927 7.74437 486.477 7.63415C486.054 7.53081 485.572 7.50915 485.076 7.50915H463.303C462.803 7.50915 462.318 7.53083 461.894 7.63365C461.442 7.74314 461 7.95853 460.666 8.37911C460.351 8.77461 460.215 9.2489 460.145 9.70603C460.075 10.1657 460.057 10.7131 460.057 11.3336V24.7625C460.057 25.383 460.075 25.9304 460.145 26.3901C460.215 26.8472 460.351 27.3215 460.666 27.717C461 28.1376 461.442 28.353 461.894 28.4624C462.318 28.5653 462.803 28.587 463.303 28.587Z" stroke="white" stroke-width="2"/>
<path d="M534.423 1.70459L534.424 7.50915H510.3C509.804 7.50915 509.323 7.53097 508.901 7.63248C508.453 7.74018 508.013 7.95129 507.677 8.36407C507.359 8.75471 507.219 9.22417 507.146 9.67847C507.073 10.134 507.054 10.6742 507.054 11.2843C507.054 11.8945 507.073 12.4357 507.146 12.8929C507.218 13.3487 507.358 13.8185 507.673 14.2108C508.005 14.626 508.443 14.843 508.894 14.955C509.319 15.0603 509.801 15.0838 510.3 15.0838H529.454C531.649 15.0838 533.224 15.8225 534.277 17.1468C535.36 18.508 536.001 20.6248 536.001 23.573V25.8775C536.001 28.8389 535.359 30.9621 534.277 32.3262C533.223 33.653 531.649 34.3915 529.454 34.3915H502.039V28.587H527.877C528.373 28.587 528.855 28.5653 529.277 28.462C529.728 28.3517 530.168 28.135 530.5 27.7141C530.812 27.3189 530.947 26.8456 531.016 26.3893C531.086 25.9301 531.104 25.3832 531.104 24.7625V24.6861C531.104 24.0654 531.086 23.5185 531.016 23.0593C530.947 22.6029 530.812 22.1296 530.5 21.7345C530.168 21.3135 529.728 21.0968 529.277 20.9866C528.855 20.8833 528.373 20.8616 527.877 20.8616H508.724C506.528 20.8616 504.948 20.1227 503.889 18.7972C502.802 17.4357 502.157 15.3191 502.157 12.3724V10.2186C502.157 7.25874 502.803 5.13579 503.89 3.77135C504.948 2.44339 506.528 1.70459 508.724 1.70459H534.423Z" stroke="white" stroke-width="2"/>
<path d="M51.2087 2.02686L51.2096 35.7048H46.1807V11.1696V8.75767L44.4741 10.462L29.6084 25.3073H28.8861L5.25005 2.02686H13.0881L28.5583 17.2352L29.2598 17.9248L29.9609 17.2347L45.41 2.02686H51.2087Z" stroke="white" stroke-width="2"/>
<path d="M99.6049 10.8128V26.9188C99.6049 29.9702 98.9502 32.1628 97.841 33.5733C96.7624 34.9449 95.1533 35.7048 92.9147 35.7048H67.515C65.2648 35.7048 63.6509 34.944 62.5704 33.5726C61.4593 32.1624 60.8047 29.9703 60.8047 26.9188V10.8128C60.8047 7.76144 61.4593 5.56928 62.5704 4.15913C63.6509 2.78769 65.2648 2.02686 67.515 2.02686H92.9147C95.153 2.02686 96.7621 2.78673 97.8408 4.15842C98.95 5.56891 99.6049 7.76158 99.6049 10.8128ZM69.1213 29.6772H91.3075C91.8124 29.6772 92.3023 29.6549 92.7317 29.5489C93.19 29.4358 93.6334 29.2141 93.9675 28.7866C94.2807 28.386 94.4169 27.9057 94.4873 27.4396C94.5581 26.9703 94.5763 26.4101 94.5763 25.772V11.96C94.5763 11.322 94.5581 10.7618 94.4873 10.2925C94.4169 9.82639 94.2807 9.34611 93.9675 8.94548C93.6334 8.51803 93.19 8.29629 92.7317 8.18316C92.3023 8.07719 91.8124 8.05488 91.3075 8.05488H69.1213C68.6115 8.05488 68.1187 8.07721 67.6874 8.18265C67.2279 8.295 66.7822 8.51537 66.4457 8.94245C66.1297 9.34349 65.9924 9.8248 65.9215 10.2917C65.8502 10.7615 65.8321 11.3221 65.8321 11.96V25.772C65.8321 26.41 65.8502 26.9706 65.9215 27.4404C65.9924 27.9073 66.1297 28.3886 66.4457 28.7896C66.7822 29.2167 67.2279 29.4371 67.6874 29.5494C68.1187 29.6549 68.6115 29.6772 69.1213 29.6772Z" stroke="white" stroke-width="2"/>
<path d="M136.118 35.7037H107.582L107.583 29.6772H134.493C135.003 29.6772 135.496 29.6549 135.927 29.5494C136.386 29.4371 136.832 29.2167 137.168 28.7896C137.484 28.3886 137.622 27.9073 137.693 27.4404C137.764 26.9706 137.782 26.41 137.782 25.772C137.782 25.1401 137.764 24.5827 137.693 24.114C137.622 23.6479 137.484 23.1681 137.171 22.767C136.837 22.3401 136.394 22.1155 135.933 21.9997C135.5 21.891 135.005 21.8669 134.493 21.8669H107.843V15.8648H124.474H125.474V14.8648V11.96C125.474 11.3205 125.455 10.759 125.382 10.2879C125.309 9.81918 125.168 9.33905 124.851 8.93959C124.514 8.51513 124.07 8.29523 123.612 8.18282C123.181 8.07726 122.691 8.05488 122.185 8.05488H107.583V2.02686H123.791C126.03 2.02686 127.645 2.78706 128.729 4.15986C129.842 5.57058 130.501 7.76299 130.501 10.8128V14.8636V15.8636H131.501H136.118C138.357 15.8636 139.966 16.6237 141.045 17.9927C142.154 19.4001 142.808 21.5863 142.808 24.6241V26.9177C142.808 29.969 142.154 32.1616 141.044 33.5721C139.966 34.9438 138.357 35.7037 136.118 35.7037Z" stroke="white" stroke-width="2"/>
<path d="M154.114 2.02686V35.7048H149.086V2.02686H154.114Z" stroke="white" stroke-width="2"/>
<path d="M163.945 26.9188V2.02686H168.973V25.772C168.973 26.41 168.991 26.9706 169.062 27.4404C169.133 27.9073 169.27 28.3886 169.586 28.7896C169.923 29.2167 170.368 29.4371 170.828 29.5494C171.259 29.6549 171.752 29.6772 172.262 29.6772H193.385C193.894 29.6772 194.387 29.6549 194.819 29.5494C195.278 29.4371 195.724 29.2167 196.06 28.7896C196.376 28.3886 196.513 27.9073 196.584 27.4404C196.656 26.9706 196.674 26.41 196.674 25.772V2.02686H201.701V26.9188C201.701 29.9702 201.047 32.1628 199.938 33.5733C198.859 34.9449 197.25 35.7048 195.011 35.7048H170.656C168.417 35.7048 166.802 34.9446 165.718 33.5718C164.604 32.1611 163.945 29.9687 163.945 26.9188Z" stroke="white" stroke-width="2"/>
<path d="M243.967 2.02686L243.967 8.05449H219.367C218.861 8.05449 218.372 8.07696 217.943 8.18105C217.488 8.29157 217.044 8.50758 216.706 8.92679C216.387 9.32291 216.245 9.79926 216.171 10.263C216.097 10.7284 216.078 11.2815 216.078 11.9085C216.078 12.5358 216.097 13.0899 216.171 13.5571C216.244 14.0225 216.385 14.4993 216.701 14.8972C217.036 15.3189 217.477 15.5411 217.936 15.6561C218.368 15.7643 218.859 15.7885 219.367 15.7885H238.884C241.122 15.7885 242.732 16.5486 243.811 17.9176C244.919 19.325 245.574 21.5112 245.574 24.5489V26.9188C245.574 29.9702 244.919 32.1628 243.81 33.5733C242.731 34.9449 241.122 35.7048 238.884 35.7048H210.93V29.6772H237.277C237.782 29.6772 238.272 29.6549 238.702 29.5489C239.16 29.4358 239.603 29.2141 239.938 28.7866C240.251 28.386 240.387 27.9057 240.457 27.4396C240.528 26.9703 240.546 26.4101 240.546 25.772V25.6957C240.546 25.0577 240.528 24.4975 240.457 24.0282C240.387 23.5621 240.251 23.0818 239.938 22.6811C239.603 22.2537 239.16 22.032 238.702 21.9189C238.272 21.8129 237.782 21.7906 237.277 21.7906H217.761C215.521 21.7906 213.906 21.0303 212.822 19.66C211.709 18.2523 211.05 16.0664 211.05 13.0302V10.8128C211.05 7.76302 211.709 5.5706 212.823 4.15987C213.907 2.78705 215.522 2.02686 217.761 2.02686H243.967Z" stroke="white" stroke-width="2"/>
</g>
<defs>
<filter id="filter0_d_32_29" x="0" y="0.70459" width="541.001" height="44.0005" filterUnits="userSpaceOnUse" color-interpolation-filters="sRGB">
<feFlood flood-opacity="0" result="BackgroundImageFix"/>
<feColorMatrix in="SourceAlpha" type="matrix" values="0 0 0 0 0 0 0 0 0 0 0 0 0 0 0 0 0 0 127 0" result="hardAlpha"/>
<feOffset dy="4"/>
<feGaussianBlur stdDeviation="2"/>
<feComposite in2="hardAlpha" operator="out"/>
<feColorMatrix type="matrix" values="0 0 0 0 0 0 0 0 0 0 0 0 0 0 0 0 0 0 0.25 0"/>
<feBlend mode="normal" in2="BackgroundImageFix" result="effect1_dropShadow_32_29"/>
<feBlend mode="normal" in="SourceGraphic" in2="effect1_dropShadow_32_29" result="shape"/>
</filter>
</defs>
</svg>
