<svg width="31" height="31" viewBox="0 0 31 31" fill="none" xmlns="http://www.w3.org/2000/svg">
<circle cx="15.5" cy="15.5" r="15.5" fill="black"/>
<path d="M12.6358 8.67993H18.3646C20.547 8.67993 22.3202 10.4531 22.3202 12.6355V18.3643C22.3202 19.4134 21.9034 20.4195 21.1616 21.1614C20.4198 21.9032 19.4137 22.3199 18.3646 22.3199H12.6358C10.4534 22.3199 8.68018 20.5467 8.68018 18.3643V12.6355C8.68018 11.5864 9.09693 10.5803 9.83874 9.8385C10.5806 9.09668 11.5867 8.67993 12.6358 8.67993ZM12.4994 10.0439C11.8482 10.0439 11.2237 10.3026 10.7633 10.763C10.3028 11.2235 10.0442 11.848 10.0442 12.4991V18.5007C10.0442 19.8579 11.1422 20.9559 12.4994 20.9559H18.501C19.1521 20.9559 19.7766 20.6973 20.2371 20.2368C20.6975 19.7764 20.9562 19.1519 20.9562 18.5007V12.4991C20.9562 11.142 19.8582 10.0439 18.501 10.0439H12.4994ZM19.0807 11.0669C19.3068 11.0669 19.5236 11.1567 19.6835 11.3166C19.8434 11.4765 19.9332 11.6933 19.9332 11.9194C19.9332 12.1455 19.8434 12.3624 19.6835 12.5222C19.5236 12.6821 19.3068 12.7719 19.0807 12.7719C18.8546 12.7719 18.6377 12.6821 18.4779 12.5222C18.318 12.3624 18.2282 12.1455 18.2282 11.9194C18.2282 11.6933 18.318 11.4765 18.4779 11.3166C18.6377 11.1567 18.8546 11.0669 19.0807 11.0669ZM15.5002 12.0899C16.4046 12.0899 17.2719 12.4492 17.9114 13.0887C18.5509 13.7282 18.9102 14.5955 18.9102 15.4999C18.9102 16.4043 18.5509 17.2717 17.9114 17.9112C17.2719 18.5507 16.4046 18.9099 15.5002 18.9099C14.5958 18.9099 13.7284 18.5507 13.0889 17.9112C12.4494 17.2717 12.0902 16.4043 12.0902 15.4999C12.0902 14.5955 12.4494 13.7282 13.0889 13.0887C13.7284 12.4492 14.5958 12.0899 15.5002 12.0899ZM15.5002 13.4539C14.9575 13.4539 14.4371 13.6695 14.0534 14.0532C13.6697 14.4369 13.4542 14.9573 13.4542 15.4999C13.4542 16.0426 13.6697 16.563 14.0534 16.9467C14.4371 17.3304 14.9575 17.5459 15.5002 17.5459C16.0428 17.5459 16.5632 17.3304 16.9469 16.9467C17.3306 16.563 17.5462 16.0426 17.5462 15.4999C17.5462 14.9573 17.3306 14.4369 16.9469 14.0532C16.5632 13.6695 16.0428 13.4539 15.5002 13.4539Z" fill="#C0C3C9"/>
</svg>
