<svg width="31" height="31" viewBox="0 0 31 31" fill="none" xmlns="http://www.w3.org/2000/svg">
<circle cx="15.5" cy="15.5" r="15.5" fill="black"/>
<path d="M23.4352 15.82V22.7741H20.638V17.0658C20.638 16.0922 20.3632 15.3451 19.9145 14.8422C19.4649 14.3381 18.8593 14.1019 18.2529 14.1247C17.0273 14.171 15.8913 15.2517 15.8913 17.0658V22.7741H13.1027V11.9255H15.9189L15.8914 13.1474L16.4766 13.2968C17.1178 12.0577 18.8506 11.3431 20.4569 11.632C21.247 11.7741 21.9856 12.1575 22.5279 12.8244C23.0698 13.4907 23.4352 14.464 23.4352 15.82ZM10.4064 8.42755C10.4062 8.83675 10.2523 9.2258 9.98372 9.50991C9.71569 9.79342 9.35619 9.94902 8.98542 9.94883C8.61464 9.94863 8.25528 9.79265 7.98751 9.50884C7.71917 9.22444 7.56567 8.83522 7.56586 8.42601C7.56605 8.0168 7.71993 7.62775 7.98852 7.34364C8.25655 7.06013 8.61605 6.90453 8.98682 6.90473C9.35759 6.90492 9.71696 7.0609 9.98473 7.34471C10.2531 7.62912 10.4066 8.01834 10.4064 8.42755ZM7.61777 22.7741V11.9255H10.4583V22.7741H7.61777Z" fill="#C0C3C9" stroke="black" stroke-width="0.62"/>
</svg>
