<svg width="23" height="24" viewBox="0 0 23 24" fill="none" xmlns="http://www.w3.org/2000/svg">
<g clip-path="url(#clip0_1_333)">
<path fill-rule="evenodd" clip-rule="evenodd" d="M2.07381 18.8037C2.06325 18.8038 2.05269 18.8034 2.04217 18.8024L0.313728 18.6417C0.258855 18.6385 0.205641 18.622 0.158836 18.5935C0.112031 18.5651 0.0730915 18.5257 0.045493 18.4789C0.0178944 18.432 0.00249577 18.3791 0.000671671 18.3249C-0.00115243 18.2708 0.0106547 18.217 0.0350392 18.1684L0.758883 16.6107C0.777073 16.5715 0.80291 16.5362 0.83492 16.5069C0.86693 16.4776 0.904486 16.4548 0.945444 16.4397C0.986402 16.4247 1.02996 16.4178 1.07363 16.4194C1.1173 16.4209 1.16023 16.431 1.19996 16.4489C1.23969 16.4669 1.27546 16.4923 1.3052 16.5239C1.33495 16.5554 1.35811 16.5925 1.37334 16.6329C1.38857 16.6732 1.39559 16.7162 1.39399 16.7592C1.39239 16.8023 1.38221 16.8446 1.36402 16.8838L1.07059 17.5156L3.60925 16.0704C3.68569 16.0269 3.77654 16.0151 3.86181 16.0376C3.94708 16.0601 4.01979 16.1151 4.06394 16.1905C4.10809 16.2659 4.12007 16.3554 4.09723 16.4395C4.0744 16.5236 4.01863 16.5952 3.94219 16.6388L1.40303 18.0839L2.10516 18.1492C2.19048 18.1568 2.26951 18.1967 2.32578 18.2604C2.38205 18.3241 2.41123 18.4067 2.40722 18.4911C2.40322 18.5755 2.36635 18.6551 2.30429 18.7133C2.24224 18.7715 2.15978 18.8039 2.07411 18.8037H2.07381ZM11.1722 24C8.82052 24 6.90733 22.1138 6.90733 19.7953C6.90632 18.9605 7.15887 18.1445 7.63245 17.4525L5.13526 16.0309C5.08465 16.0021 5.04262 15.9607 5.0134 15.9108C4.98418 15.861 4.96879 15.8044 4.96879 15.7468V9.06331C4.96881 9.00569 4.98419 8.94909 5.01341 8.8992C5.04263 8.8493 5.08466 8.80787 5.13526 8.77905L11.0064 5.43737C11.057 5.40857 11.1144 5.39341 11.1729 5.39341C11.2313 5.39341 11.2887 5.40857 11.3393 5.43737L17.2032 8.77518C17.2282 8.78851 17.2513 8.80499 17.272 8.8242L17.2759 8.82798L17.2797 8.83166L17.2827 8.83447L17.2836 8.83553L17.2873 8.83941L17.2883 8.84038L17.2909 8.84328L17.2939 8.84648L17.2945 8.84735L17.2981 8.85133L17.2993 8.85278L17.3015 8.8554L17.3045 8.85927L17.3093 8.86547L17.3111 8.8677L17.3142 8.87206C17.3205 8.88058 17.3263 8.8895 17.3317 8.8986L17.3327 8.90045L17.3367 8.90781L17.3393 8.91246L17.3406 8.91508L17.3416 8.9173L17.3439 8.92205L17.346 8.92641L17.3475 8.92961L17.3483 8.93125L17.3503 8.9361L17.3509 8.93707L17.3524 8.94104L17.3539 8.94472V8.94608L17.3557 8.95102L17.3593 8.96071L17.3609 8.96584L17.3615 8.96739L17.3625 8.97098C17.3681 8.98997 17.3719 9.00943 17.3739 9.02911V9.03037V9.03453V9.03996V9.04538V9.04616V9.05081V9.0541V15.7453C17.3739 15.8029 17.3585 15.8595 17.3293 15.9094C17.3001 15.9593 17.258 16.0007 17.2074 16.0295L14.7102 17.4507C15.1839 18.1428 15.4364 18.9589 15.4353 19.7938C15.4353 22.1124 13.5223 23.9985 11.1705 23.9985L11.1722 24ZM11.1722 16.2466C9.18716 16.2466 7.573 17.8385 7.573 19.7952C7.573 21.7519 9.18843 23.3438 11.1725 23.3438C13.1565 23.3438 14.7719 21.752 14.7719 19.7952C14.7719 17.931 13.3066 16.3979 11.4515 16.2572H11.4474C11.3876 16.2527 11.3273 16.2496 11.2667 16.2483H11.2629C11.2334 16.2476 11.2028 16.2472 11.1725 16.2472L11.1722 16.2466ZM9.24356 21.8398C9.48405 21.8399 9.71905 21.769 9.91823 21.6361C10.1174 21.5032 10.2716 21.3146 10.361 21.0944C10.4503 20.8743 10.4707 20.6328 10.4195 20.4012C10.3683 20.1695 10.2478 19.9583 10.0736 19.7948C10.2477 19.6313 10.368 19.4202 10.4192 19.1886C10.4703 18.957 10.4499 18.7157 10.3606 18.4956C10.2712 18.2756 10.1171 18.087 9.91795 17.9542C9.71885 17.8214 9.48395 17.7505 9.24356 17.7506H8.86287C8.7746 17.7506 8.68994 17.7852 8.62752 17.8467C8.5651 17.9082 8.53004 17.9917 8.53004 18.0787C8.53004 18.1658 8.5651 18.2492 8.62752 18.3108C8.68994 18.3723 8.7746 18.4069 8.86287 18.4069H9.24356C9.38493 18.4088 9.51986 18.4654 9.61915 18.5647C9.71844 18.6639 9.77411 18.7977 9.77411 18.9371C9.77411 19.0765 9.71844 19.2102 9.61915 19.3095C9.51986 19.4087 9.38493 19.4654 9.24356 19.4673H8.86287C8.81917 19.4673 8.77591 19.4757 8.73554 19.4922C8.69517 19.5087 8.65849 19.5329 8.62759 19.5633C8.59669 19.5938 8.57218 19.63 8.55546 19.6698C8.53874 19.7096 8.53013 19.7522 8.53013 19.7953C8.53013 19.8384 8.53874 19.881 8.55546 19.9208C8.57218 19.9606 8.59669 19.9968 8.62759 20.0273C8.65849 20.0577 8.69517 20.0819 8.73554 20.0984C8.77591 20.1149 8.81917 20.1233 8.86287 20.1233H9.24356C9.38493 20.1252 9.51986 20.1819 9.61915 20.2811C9.71844 20.3804 9.77411 20.5142 9.77411 20.6535C9.77411 20.7929 9.71844 20.9267 9.61915 21.0259C9.51986 21.1252 9.38493 21.1818 9.24356 21.1837H8.86287C8.81867 21.183 8.77477 21.1909 8.73372 21.2071C8.69267 21.2232 8.65529 21.2473 8.62376 21.2778C8.59224 21.3084 8.5672 21.3448 8.55011 21.385C8.53302 21.4252 8.52422 21.4683 8.52422 21.5119C8.52422 21.5555 8.53302 21.5986 8.55011 21.6388C8.5672 21.679 8.59224 21.7155 8.62376 21.746C8.65529 21.7766 8.69267 21.8006 8.73372 21.8168C8.77477 21.8329 8.81867 21.8409 8.86287 21.8401L9.24356 21.8398ZM12.4809 21.8398C13.2167 21.8398 13.8152 21.2497 13.8149 20.5242V19.066C13.8149 18.3408 13.2167 17.7507 12.4809 17.7507H11.4794C11.4356 17.7507 11.3924 17.7591 11.352 17.7756C11.3116 17.7921 11.2748 17.8162 11.2439 17.8467C11.213 17.8772 11.1885 17.9133 11.1717 17.9531C11.155 17.993 11.1463 18.0356 11.1463 18.0787V21.5115C11.1463 21.5986 11.1814 21.6821 11.2439 21.7437C11.3063 21.8052 11.391 21.8398 11.4794 21.8398H12.4809ZM11.8127 21.1836H12.4815C12.6586 21.1833 12.8284 21.1138 12.9536 20.9903C13.0789 20.8668 13.1494 20.6995 13.1497 20.5248V19.0665C13.1494 18.8919 13.0789 18.7245 12.9537 18.601C12.8284 18.4775 12.6586 18.408 12.4815 18.4077H11.8122V21.1844L11.8127 21.1836ZM11.1725 4.57521C11.1287 4.57526 11.0854 4.56681 11.045 4.55034C11.0046 4.53387 10.9678 4.50971 10.9369 4.47923C10.906 4.44875 10.8814 4.41256 10.8647 4.37273C10.8479 4.33289 10.8393 4.29019 10.8393 4.24707V1.35638L10.4313 1.92295C10.3796 1.9923 10.3023 2.03884 10.2161 2.05252C10.1299 2.0662 10.0417 2.04592 9.97046 1.99607C9.89927 1.94622 9.8508 1.87078 9.83551 1.78602C9.82021 1.70127 9.83931 1.61397 9.88869 1.54297L10.8974 0.143404C10.9271 0.100458 10.9667 0.0650745 11.013 0.0401645C11.0592 0.0152545 11.1108 0.00153016 11.1635 0.000120751C11.2162 -0.00128866 11.2685 0.00965713 11.3161 0.0320575C11.3636 0.0544578 11.4051 0.0876725 11.4371 0.128969L11.4381 0.130228L11.4393 0.131778L11.4404 0.133328L11.4441 0.138172L12.4562 1.54297C12.4821 1.57808 12.5007 1.61791 12.5109 1.66015C12.5211 1.70238 12.5226 1.74619 12.5155 1.78903C12.5084 1.83187 12.4927 1.87289 12.4694 1.90971C12.4461 1.94654 12.4156 1.97843 12.3797 2.00356C12.3438 2.02868 12.3032 2.04653 12.2602 2.05607C12.2172 2.06561 12.1728 2.06665 12.1294 2.05914C12.0861 2.05162 12.0446 2.0357 12.0076 2.01229C11.9705 1.98887 11.9385 1.95844 11.9134 1.92275L11.5053 1.35638V4.24707C11.5053 4.3341 11.4702 4.41756 11.4078 4.4791C11.3454 4.54064 11.2607 4.57521 11.1725 4.57521ZM11.5053 15.6032C11.5387 15.6057 11.572 15.6085 11.6053 15.612H11.6081H11.61C11.6441 15.6154 11.6782 15.6195 11.712 15.6236L11.7191 15.6244C11.7528 15.6288 11.7864 15.6333 11.8199 15.6384H11.8227C12.7715 15.7813 13.6433 16.2369 14.2957 16.931L16.7104 15.5564V9.66243L11.5053 12.9436V15.6036V15.6032ZM16.4026 9.07794L11.1725 6.10044L5.94214 9.07794L11.1725 12.3746L16.4026 9.07794ZM5.63466 9.66253V15.5572L8.04931 16.9315C8.72625 16.2115 9.63832 15.749 10.6261 15.6248L10.6331 15.624C10.667 15.6198 10.7011 15.6158 10.7351 15.6124H10.737H10.7399C10.7731 15.6089 10.8063 15.6061 10.8397 15.6036V12.9436L5.63466 9.66253ZM20.9422 18.0841L18.403 16.6388C18.3281 16.5945 18.2739 16.523 18.2519 16.4397C18.23 16.3563 18.2422 16.2678 18.2858 16.1932C18.3295 16.1187 18.4011 16.064 18.4853 16.041C18.5695 16.0181 18.6594 16.0286 18.7358 16.0704L21.2754 17.5157L20.9819 16.8842C20.9628 16.8449 20.9519 16.8022 20.9497 16.7587C20.9475 16.7152 20.9541 16.6717 20.9691 16.6308C20.9841 16.5898 21.0073 16.5522 21.0372 16.5201C21.0671 16.4881 21.1032 16.4622 21.1434 16.444C21.1835 16.4259 21.2269 16.4158 21.2711 16.4143C21.3153 16.4129 21.3593 16.4201 21.4006 16.4356C21.4419 16.4511 21.4796 16.4745 21.5116 16.5046C21.5437 16.5346 21.5693 16.5706 21.587 16.6105L22.3153 18.1774C22.334 18.2177 22.3443 18.2613 22.3454 18.3056C22.3466 18.3499 22.3386 18.394 22.322 18.4352C22.3054 18.4764 22.2805 18.5139 22.2488 18.5454C22.2171 18.5768 22.1793 18.6016 22.1376 18.6183L22.1357 18.619L22.1325 18.6201L22.1313 18.6207L22.1275 18.6221H22.1263L22.1225 18.6234H22.1217L22.1175 18.625L22.1072 18.628L22.1029 18.6293H22.102L22.0981 18.6305H22.097L22.0932 18.6314H22.0917L22.0864 18.6326L22.0836 18.6334L22.0812 18.634L22.0788 18.6346H22.076H22.0739L22.0708 18.6351H22.0688L22.0654 18.6357H22.0638H22.0602H22.0588L22.0549 18.6363H22.054L22.0495 18.6369H22.0489H22.0443L22.0393 18.6375H22.0379L20.3039 18.7986C20.2929 18.7995 20.2823 18.7998 20.2721 18.7998C20.1865 18.8 20.104 18.7676 20.042 18.7093C19.98 18.6511 19.9432 18.5715 19.9392 18.4871C19.9352 18.4028 19.9644 18.3201 20.0207 18.2565C20.0769 18.1928 20.156 18.153 20.2413 18.1453L20.9422 18.0841Z" fill="white"/>
</g>
<defs>
<clipPath id="clip0_1_333">
<rect width="22.3448" height="24" fill="white"/>
</clipPath>
</defs>
</svg>
