<svg width="26" height="24" viewBox="0 0 26 24" fill="none" xmlns="http://www.w3.org/2000/svg">
<path d="M2.1 2.4V13.9H0.5V2.4C0.5 1.38107 1.39471 0.5 2.6 0.5H15.1V1.9H2.6H2.1V2.4ZM7.3 7.2V18.7H5.7V7.2C5.7 6.18107 6.59471 5.3 7.8 5.3H20.3V6.7H7.8H7.3V7.2ZM15.862 11.5742L15.1 11.1052V12V21.6V22.4948L15.862 22.0258L23.662 17.2258L24.354 16.8L23.662 16.3742L15.862 11.5742ZM13 10.1H23.4C24.6053 10.1 25.5 10.9811 25.5 12V21.6C25.5 22.6189 24.6053 23.5 23.4 23.5H13C11.7947 23.5 10.9 22.6189 10.9 21.6V12C10.9 10.9811 11.7947 10.1 13 10.1Z" fill="#A7A4AD" stroke="#151515"/>
</svg>
