<svg xmlns="http://www.w3.org/2000/svg" xmlns:xlink="http://www.w3.org/1999/xlink" width="1024" zoomAndPan="magnify" viewBox="0 0 768 576" height="768" preserveAspectRatio="xMidYMid meet" version="1.0"><defs><filter x="0%" y="0%" width="100%" height="100%" id="2888314822"><feColorMatrix values="0 0 0 0 1 0 0 0 0 1 0 0 0 0 1 0 0 0 1 0" color-interpolation-filters="sRGB"/></filter><clipPath id="85cb26dfe6"><path d="M 272 519 L 497 519 L 497 558.371094 L 272 558.371094 Z M 272 519 " clip-rule="nonzero"/></clipPath><clipPath id="684027e857"><path d="M 115 17.621094 L 654 17.621094 L 654 455 L 115 455 Z M 115 17.621094 " clip-rule="nonzero"/></clipPath><mask id="ec5869ea88"><g filter="url(#2888314822)"><rect x="-76.8" width="921.6" fill="#000000" y="-57.6" height="691.2" fill-opacity="0.3"/></g></mask><clipPath id="15d8c9c728"><rect x="0" width="373" y="0" height="306"/></clipPath></defs><rect x="-76.8" width="921.6" fill="#000" y="-57.6" height="691.2" fill-opacity="1"/><rect x="-76.8" width="921.6" fill="#000" y="-57.6" height="691.2" fill-opacity="1"/><path fill="#3d4a75" d="M 309.578125 448.226562 L 459.269531 448.226562 L 459.269531 527 L 309.578125 527 Z M 309.578125 448.226562 " fill-opacity="1" fill-rule="nonzero"/><g clip-path="url(#85cb26dfe6)"><path fill="#4f5d99" d="M 496.289062 558.382812 L 496.289062 545.132812 C 496.289062 531.015625 484.847656 519.574219 470.734375 519.574219 L 298.105469 519.574219 C 283.992188 519.574219 272.550781 531.015625 272.550781 545.132812 L 272.550781 558.382812 Z M 496.289062 558.382812 " fill-opacity="1" fill-rule="nonzero"/></g><g clip-path="url(#684027e857)"><path fill="#4f5d99" d="M 653.605469 74.0625 L 653.605469 397.910156 C 653.605469 429.085938 628.324219 454.363281 597.152344 454.363281 L 171.6875 454.363281 C 140.511719 454.363281 115.234375 429.085938 115.234375 397.910156 L 115.234375 74.0625 C 115.234375 42.886719 140.511719 17.609375 171.6875 17.609375 L 597.152344 17.609375 C 628.324219 17.609375 653.605469 42.886719 653.605469 74.0625 Z M 653.605469 74.0625 " fill-opacity="1" fill-rule="nonzero"/></g><path fill="#e9e9ff" d="M 613.898438 79.582031 L 613.898438 340.957031 C 613.898438 351.347656 605.472656 359.773438 595.082031 359.773438 L 173.757812 359.773438 C 163.367188 359.773438 154.941406 351.347656 154.941406 340.957031 L 154.941406 79.582031 C 154.941406 69.191406 163.367188 60.765625 173.757812 60.765625 L 595.082031 60.765625 C 605.472656 60.765625 613.898438 69.191406 613.898438 79.582031 Z M 613.898438 79.582031 " fill-opacity="1" fill-rule="nonzero"/><path fill="#3d4a75" d="M 402.953125 407.066406 C 402.953125 417.25 394.601562 425.601562 384.417969 425.601562 C 374.167969 425.601562 365.882812 417.25 365.882812 407.066406 C 365.882812 396.816406 374.167969 388.535156 384.417969 388.535156 C 394.601562 388.535156 402.953125 396.816406 402.953125 407.066406 Z M 402.953125 407.066406 " fill-opacity="1" fill-rule="nonzero"/><path fill="#fdc72e" d="M 384.417969 168.390625 L 384.417969 327.964844 L 256.390625 285.59375 L 256.390625 126.019531 Z M 384.417969 168.390625 " fill-opacity="1" fill-rule="nonzero"/><path fill="#f9ac00" d="M 384.417969 168.390625 L 384.417969 327.964844 L 512.449219 285.59375 L 512.449219 126.019531 Z M 384.417969 168.390625 " fill-opacity="1" fill-rule="nonzero"/><path fill="#fdc72e" d="M 484.375 135.3125 L 484.375 294.882812 L 489.332031 293.25 L 489.332031 133.675781 Z M 484.375 135.3125 " fill-opacity="1" fill-rule="nonzero"/><path fill="#fdc72e" d="M 458.777344 143.785156 L 458.777344 303.359375 L 463.734375 301.722656 L 463.734375 142.148438 Z M 458.777344 143.785156 " fill-opacity="1" fill-rule="nonzero"/><path fill="#fdc72e" d="M 433.160156 152.261719 L 433.160156 311.832031 L 438.113281 310.199219 L 438.113281 150.625 Z M 433.160156 152.261719 " fill-opacity="1" fill-rule="nonzero"/><path fill="#fdc72e" d="M 407.5625 160.734375 L 407.5625 320.308594 L 412.519531 318.671875 L 412.519531 159.097656 Z M 407.5625 160.734375 " fill-opacity="1" fill-rule="nonzero"/><path fill="#fdc72e" d="M 384.417969 195.324219 L 384.417969 201.570312 L 512.449219 159.199219 L 512.449219 152.953125 Z M 384.417969 195.324219 " fill-opacity="1" fill-rule="nonzero"/><path fill="#fdc72e" d="M 384.417969 228.480469 L 384.417969 234.722656 L 512.449219 192.351562 L 512.449219 186.109375 Z M 384.417969 228.480469 " fill-opacity="1" fill-rule="nonzero"/><path fill="#fdc72e" d="M 384.417969 261.632812 L 384.417969 267.875 L 512.449219 225.503906 L 512.449219 219.261719 Z M 384.417969 261.632812 " fill-opacity="1" fill-rule="nonzero"/><path fill="#fdc72e" d="M 384.417969 294.785156 L 384.417969 301.027344 L 512.449219 258.660156 L 512.449219 252.414062 Z M 384.417969 294.785156 " fill-opacity="1" fill-rule="nonzero"/><path fill="#fcbc1d" d="M 512.449219 126.019531 L 384.417969 168.390625 L 256.390625 126.019531 L 384.417969 83.648438 Z M 512.449219 126.019531 " fill-opacity="1" fill-rule="nonzero"/><path fill="#f9ac00" d="M 284.464844 135.3125 L 284.464844 294.882812 L 279.507812 293.25 L 279.507812 133.675781 Z M 284.464844 135.3125 " fill-opacity="1" fill-rule="nonzero"/><path fill="#f9ac00" d="M 310.058594 143.785156 L 310.058594 303.359375 L 305.105469 301.722656 L 305.105469 142.148438 Z M 310.058594 143.785156 " fill-opacity="1" fill-rule="nonzero"/><path fill="#f9ac00" d="M 335.679688 152.261719 L 335.679688 311.832031 L 330.722656 310.199219 L 330.722656 150.625 Z M 335.679688 152.261719 " fill-opacity="1" fill-rule="nonzero"/><path fill="#f9ac00" d="M 361.277344 160.734375 L 361.277344 320.308594 L 356.320312 318.671875 L 356.320312 159.097656 Z M 361.277344 160.734375 " fill-opacity="1" fill-rule="nonzero"/><path fill="#f9ac00" d="M 384.417969 195.324219 L 384.417969 201.570312 L 256.390625 159.199219 L 256.390625 152.953125 Z M 384.417969 195.324219 " fill-opacity="1" fill-rule="nonzero"/><path fill="#f9ac00" d="M 384.417969 228.480469 L 384.417969 234.722656 L 256.390625 192.351562 L 256.390625 186.109375 Z M 384.417969 228.480469 " fill-opacity="1" fill-rule="nonzero"/><path fill="#f9ac00" d="M 384.417969 261.632812 L 384.417969 267.875 L 256.390625 225.503906 L 256.390625 219.261719 Z M 384.417969 261.632812 " fill-opacity="1" fill-rule="nonzero"/><path fill="#f9ac00" d="M 384.417969 294.785156 L 384.417969 301.027344 L 256.390625 258.660156 L 256.390625 252.414062 Z M 384.417969 294.785156 " fill-opacity="1" fill-rule="nonzero"/><path fill="#f9ac00" d="M 284.441406 135.277344 L 279.507812 133.675781 L 407.539062 91.304688 L 412.46875 92.90625 Z M 284.441406 135.277344 " fill-opacity="1" fill-rule="nonzero"/><path fill="#f9ac00" d="M 310.035156 143.742188 L 305.105469 142.140625 L 433.132812 99.769531 L 438.066406 101.371094 Z M 310.035156 143.742188 " fill-opacity="1" fill-rule="nonzero"/><path fill="#f9ac00" d="M 335.632812 152.207031 L 330.699219 150.609375 L 458.730469 108.238281 L 463.664062 109.835938 Z M 335.632812 152.207031 " fill-opacity="1" fill-rule="nonzero"/><path fill="#f9ac00" d="M 361.230469 160.671875 L 356.296875 159.074219 L 484.324219 116.703125 L 489.257812 118.300781 Z M 361.230469 160.671875 " fill-opacity="1" fill-rule="nonzero"/><path fill="#f9ac00" d="M 361.277344 91.308594 L 484.375 135.3125 L 489.332031 133.675781 L 365.6875 89.847656 Z M 361.277344 91.308594 " fill-opacity="1" fill-rule="nonzero"/><path fill="#f9ac00" d="M 335.679688 99.722656 L 458.777344 143.726562 L 463.734375 142.089844 L 340.089844 98.261719 Z M 335.679688 99.722656 " fill-opacity="1" fill-rule="nonzero"/><path fill="#f9ac00" d="M 310.082031 108.136719 L 433.183594 152.140625 L 438.136719 150.503906 L 314.496094 106.675781 Z M 310.082031 108.136719 " fill-opacity="1" fill-rule="nonzero"/><path fill="#f9ac00" d="M 284.488281 116.550781 L 407.585938 160.554688 L 412.542969 158.917969 L 288.898438 115.089844 Z M 284.488281 116.550781 " fill-opacity="1" fill-rule="nonzero"/><path fill="#ed524e" d="M 512.277344 177.894531 L 512.277344 187.453125 C 538.191406 194.597656 550.496094 202.277344 550.496094 208.390625 C 550.496094 216.472656 528.421875 227.601562 480.8125 236.421875 C 467.878906 238.828125 453.011719 241.039062 436.203125 242.980469 L 437.265625 252.167969 C 450.332031 250.644531 465.941406 248.523438 481.550781 245.65625 C 520.617188 238.5 559.734375 226.773438 559.734375 208.390625 C 559.734375 195 539.09375 185.105469 512.277344 177.894531 Z M 512.277344 177.894531 " fill-opacity="1" fill-rule="nonzero"/><path fill="#ed524e" d="M 454.667969 228.84375 L 433.507812 244.570312 C 430.652344 246.691406 431.164062 251.105469 434.429688 252.515625 L 458.628906 262.980469 C 461.894531 264.394531 465.460938 261.742188 465.050781 258.210938 L 462.011719 232.019531 C 461.601562 228.488281 457.523438 226.722656 454.667969 228.84375 Z M 454.667969 228.84375 " fill-opacity="1" fill-rule="nonzero"/><path fill="#ed524e" d="M 256.5625 177.894531 L 256.5625 187.453125 C 230.648438 194.597656 218.34375 202.277344 218.34375 208.390625 C 218.34375 216.472656 240.417969 227.601562 288.027344 236.421875 C 300.957031 238.828125 315.824219 241.039062 332.636719 242.980469 L 331.574219 252.167969 C 318.503906 250.644531 302.894531 248.523438 287.289062 245.65625 C 248.21875 238.5 209.105469 226.773438 209.105469 208.390625 C 209.105469 195 229.742188 185.105469 256.5625 177.894531 Z M 256.5625 177.894531 " fill-opacity="1" fill-rule="nonzero"/><path fill="#ed524e" d="M 314.171875 228.84375 L 335.332031 244.570312 C 338.183594 246.691406 337.671875 251.105469 334.410156 252.515625 L 310.207031 262.980469 C 306.945312 264.394531 303.378906 261.742188 303.789062 258.210938 L 306.828125 232.019531 C 307.238281 228.488281 311.316406 226.722656 314.171875 228.84375 Z M 314.171875 228.84375 " fill-opacity="1" fill-rule="nonzero"/><path fill="#fdc72e" d="M 263.199219 81.402344 L 263.199219 89.671875 C 263.199219 90.335938 262.730469 90.804688 262.066406 90.804688 L 178.148438 90.804688 C 177.480469 90.804688 177.015625 90.335938 177.015625 89.671875 L 177.015625 81.402344 C 177.015625 80.738281 177.480469 80.269531 178.148438 80.269531 L 262.066406 80.269531 C 262.730469 80.269531 263.199219 80.738281 263.199219 81.402344 Z M 263.199219 81.402344 " fill-opacity="1" fill-rule="nonzero"/><path fill="#70c1f9" d="M 239.859375 104.472656 L 239.859375 112.746094 C 239.859375 113.410156 239.390625 113.878906 238.726562 113.878906 L 178.148438 113.878906 C 177.480469 113.878906 177.015625 113.410156 177.015625 112.746094 L 177.015625 104.472656 C 177.015625 103.808594 177.480469 103.339844 178.148438 103.339844 L 238.726562 103.339844 C 239.390625 103.339844 239.859375 103.808594 239.859375 104.472656 Z M 239.859375 104.472656 " fill-opacity="1" fill-rule="nonzero"/><g mask="url(#ec5869ea88)"><g transform="matrix(1, 0, 0, 1, 198, 59)"><g clip-path="url(#15d8c9c728)"><path fill="#000" d="M 275.980469 300.777344 L 104.882812 300.777344 L 4.339844 1.761719 L 175.351562 1.761719 Z M 275.980469 300.777344 " fill-opacity="1" fill-rule="nonzero"/><path fill="#000" d="M 368.5 300.777344 L 319.917969 300.777344 L 219.285156 1.761719 L 267.953125 1.761719 Z M 368.5 300.777344 " fill-opacity="1" fill-rule="nonzero"/></g></g></g></svg>