<svg xmlns="http://www.w3.org/2000/svg" xmlns:xlink="http://www.w3.org/1999/xlink" width="1024" zoomAndPan="magnify" viewBox="0 0 768 576" height="768" preserveAspectRatio="xMidYMid meet" version="1.0"><defs><clipPath id="c1b1e484d8"><path d="M 464 0 L 661.917969 0 L 661.917969 576 L 464 576 Z M 464 0 " clip-rule="nonzero"/></clipPath><clipPath id="ff993e387d"><path d="M 617 198 L 661.917969 198 L 661.917969 217 L 617 217 Z M 617 198 " clip-rule="nonzero"/></clipPath><clipPath id="4cb2900132"><path d="M 617 360 L 661.917969 360 L 661.917969 379 L 617 379 Z M 617 360 " clip-rule="nonzero"/></clipPath></defs><rect x="-76.8" width="921.6" fill="#000" y="-57.6" height="691.2" fill-opacity="1"/><rect x="-76.8" width="921.6" fill="#000" y="-57.6" height="691.2" fill-opacity="1"/><path fill="#ffffff" d="M 437.234375 10.210938 C 437.234375 9.773438 436.863281 9.429688 436.457031 9.523438 L 95.527344 81.386719 L 95.621094 432.101562 L 437.328125 432.101562 L 437.234375 10.210938 " fill-opacity="1" fill-rule="nonzero"/><path fill="#000000" d="M 446.210938 10.210938 L 446.304688 10.210938 Z M 104.597656 423.125 L 428.324219 423.125 L 428.230469 20.429688 L 104.535156 88.710938 Z M 446.335938 441.105469 L 86.648438 441.105469 L 86.523438 74.09375 L 438.792969 -0.167969 L 442.625 2.667969 C 444.902344 4.507812 446.210938 7.25 446.210938 10.210938 L 446.335938 441.105469 " fill-opacity="1" fill-rule="nonzero"/><path fill="#28407e" d="M 95.621094 432.101562 L 95.652344 540.113281 L 436.488281 566.945312 C 436.957031 566.976562 437.359375 566.539062 437.359375 566.039062 L 437.328125 432.101562 L 95.621094 432.101562 " fill-opacity="1" fill-rule="nonzero"/><path fill="#000000" d="M 104.628906 531.792969 L 428.355469 557.285156 L 428.355469 441.105469 L 104.628906 441.105469 Z M 436.550781 575.917969 C 436.300781 575.917969 436.050781 575.917969 435.832031 575.886719 L 86.648438 548.402344 L 86.617188 423.125 L 446.304688 423.125 L 446.367188 569.964844 L 443.1875 573.332031 C 441.378906 574.984375 438.980469 575.917969 436.550781 575.917969 " fill-opacity="1" fill-rule="nonzero"/><path fill="#28407e" d="M 653.105469 558.03125 L 474.195312 566.976562 C 473.695312 567.007812 473.261719 566.601562 473.261719 566.101562 L 473.261719 10.179688 C 473.261719 9.773438 473.632812 9.429688 474.039062 9.460938 L 653.105469 27.378906 L 653.105469 558.03125 " fill-opacity="1" fill-rule="nonzero"/><g clip-path="url(#c1b1e484d8)"><path fill="#000000" d="M 482.265625 19.339844 L 482.265625 557.59375 L 644.097656 549.492188 L 644.097656 35.515625 Z M 473.757812 558 C 473.757812 558 473.726562 558 473.726562 558 Z M 653.105469 558.03125 L 653.199219 558.03125 Z M 470.796875 576.167969 L 467.339844 573.269531 C 465.375 571.398438 464.253906 568.78125 464.253906 566.101562 L 464.253906 6.1875 L 467.464844 2.980469 C 469.519531 1.140625 472.292969 0.238281 474.972656 0.515625 L 662.109375 19.246094 L 662.109375 566.601562 L 470.796875 576.167969 " fill-opacity="1" fill-rule="nonzero"/></g><path fill="#bbe5e1" d="M 563.167969 396.136719 C 559.488281 396.136719 555.875 396.574219 552.382812 397.414062 C 527.765625 403.242188 509.222656 428.640625 509.222656 459.085938 C 509.222656 489.535156 527.765625 514.933594 552.382812 520.757812 C 555.875 521.601562 559.488281 522.039062 563.167969 522.039062 C 592.992188 522.039062 617.140625 493.835938 617.140625 459.085938 C 617.140625 424.308594 592.992188 396.136719 563.167969 396.136719 " fill-opacity="1" fill-rule="nonzero"/><path fill="#000000" d="M 563.167969 405.144531 C 560.269531 405.144531 557.339844 405.484375 554.472656 406.140625 C 533.46875 411.125 518.230469 433.378906 518.230469 459.085938 C 518.230469 484.765625 533.46875 507.046875 554.472656 512.035156 C 557.339844 512.6875 560.269531 513.03125 563.167969 513.03125 C 587.972656 513.03125 608.136719 488.847656 608.136719 459.085938 C 608.136719 429.328125 587.972656 405.144531 563.167969 405.144531 Z M 563.167969 531.011719 C 558.867188 531.011719 554.535156 530.515625 550.328125 529.515625 C 521.285156 522.628906 500.21875 493.023438 500.21875 459.085938 C 500.21875 425.148438 521.285156 395.515625 550.328125 388.65625 C 554.535156 387.660156 558.867188 387.132812 563.167969 387.132812 C 597.882812 387.132812 626.117188 419.417969 626.117188 459.085938 C 626.117188 498.757812 597.882812 531.011719 563.167969 531.011719 " fill-opacity="1" fill-rule="nonzero"/><path fill="#bbe5e1" d="M 552.382812 179.050781 C 555.875 179.894531 559.488281 180.332031 563.167969 180.332031 C 592.992188 180.332031 617.140625 152.128906 617.140625 117.378906 C 617.140625 82.601562 592.992188 54.429688 563.167969 54.429688 C 559.488281 54.429688 555.875 54.867188 552.382812 55.707031 C 527.765625 61.535156 509.222656 86.933594 509.222656 117.378906 C 509.222656 147.828125 527.765625 173.226562 552.382812 179.050781 " fill-opacity="1" fill-rule="nonzero"/><path fill="#000000" d="M 554.472656 170.296875 C 557.339844 170.980469 560.269531 171.324219 563.167969 171.324219 C 587.972656 171.324219 608.136719 147.140625 608.136719 117.378906 C 608.136719 87.617188 587.972656 63.4375 563.167969 63.4375 C 560.269531 63.4375 557.339844 63.777344 554.472656 64.433594 C 533.46875 69.417969 518.230469 91.671875 518.230469 117.378906 C 518.230469 143.089844 533.46875 165.339844 554.472656 170.296875 Z M 563.167969 189.304688 C 558.867188 189.304688 554.535156 188.808594 550.328125 187.808594 C 521.285156 180.953125 500.21875 151.316406 500.21875 117.378906 C 500.21875 83.441406 521.285156 53.808594 550.328125 46.949219 C 554.535156 45.953125 558.867188 45.425781 563.167969 45.425781 C 597.882812 45.425781 626.117188 77.710938 626.117188 117.378906 C 626.117188 157.050781 597.882812 189.304688 563.167969 189.304688 " fill-opacity="1" fill-rule="nonzero"/><path fill="#ffffff" d="M 552.382812 179.050781 C 568.808594 173.226562 581.179688 147.828125 581.179688 117.378906 C 581.179688 86.933594 568.808594 61.535156 552.382812 55.707031 C 527.765625 61.535156 509.222656 86.933594 509.222656 117.378906 C 509.222656 147.828125 527.765625 173.226562 552.382812 179.050781 " fill-opacity="1" fill-rule="nonzero"/><path fill="#000000" d="M 551.667969 65.210938 C 532.128906 71.414062 518.230469 92.824219 518.230469 117.378906 C 518.230469 141.9375 532.128906 163.347656 551.667969 169.546875 C 562.015625 163.84375 572.171875 144.648438 572.171875 117.378906 C 572.171875 90.113281 562.015625 70.914062 551.667969 65.210938 Z M 552.882812 188.433594 L 550.328125 187.808594 C 521.285156 180.953125 500.21875 151.316406 500.21875 117.378906 C 500.21875 83.441406 521.285156 53.808594 550.328125 46.949219 L 552.882812 46.328125 L 555.40625 47.230469 C 575.882812 54.492188 590.15625 83.351562 590.15625 117.378906 C 590.15625 151.410156 575.882812 180.269531 555.40625 187.527344 L 552.882812 188.433594 " fill-opacity="1" fill-rule="nonzero"/><path fill="#bbe5e1" d="M 563.167969 225.300781 C 559.488281 225.300781 555.875 225.734375 552.382812 226.546875 C 527.765625 232.375 509.222656 257.769531 509.222656 288.21875 C 509.222656 318.664062 527.765625 344.09375 552.382812 349.921875 C 555.875 350.730469 559.488281 351.167969 563.167969 351.167969 C 592.992188 351.167969 617.140625 322.996094 617.140625 288.21875 C 617.140625 253.472656 592.992188 225.300781 563.167969 225.300781 " fill-opacity="1" fill-rule="nonzero"/><path fill="#000000" d="M 563.167969 234.273438 C 560.269531 234.273438 557.339844 234.617188 554.472656 235.300781 C 533.46875 240.289062 518.230469 262.539062 518.230469 288.21875 C 518.230469 313.929688 533.46875 336.179688 554.472656 341.164062 C 557.339844 341.851562 560.269531 342.191406 563.167969 342.191406 C 587.972656 342.191406 608.136719 317.980469 608.136719 288.21875 C 608.136719 258.488281 587.972656 234.273438 563.167969 234.273438 Z M 563.167969 360.175781 C 558.867188 360.175781 554.535156 359.675781 550.328125 358.648438 C 521.285156 351.792969 500.21875 322.15625 500.21875 288.21875 C 500.21875 254.28125 521.285156 224.675781 550.328125 217.789062 C 554.535156 216.792969 558.867188 216.292969 563.167969 216.292969 C 597.882812 216.292969 626.117188 248.578125 626.117188 288.21875 C 626.117188 327.890625 597.882812 360.175781 563.167969 360.175781 " fill-opacity="1" fill-rule="nonzero"/><path fill="#ffffff" d="M 581.179688 288.21875 C 581.179688 257.769531 568.808594 232.375 552.382812 226.546875 C 527.765625 232.375 509.222656 257.769531 509.222656 288.21875 C 509.222656 318.664062 527.765625 344.09375 552.382812 349.921875 C 568.808594 344.09375 581.179688 318.664062 581.179688 288.21875 " fill-opacity="1" fill-rule="nonzero"/><path fill="#000000" d="M 551.667969 236.082031 C 532.128906 242.285156 518.230469 263.691406 518.230469 288.21875 C 518.230469 312.773438 532.128906 334.183594 551.667969 340.386719 C 562.015625 334.714844 572.171875 315.515625 572.171875 288.21875 C 572.171875 260.949219 562.015625 241.753906 551.667969 236.082031 Z M 552.882812 359.269531 L 550.328125 358.648438 C 521.285156 351.792969 500.21875 322.15625 500.21875 288.21875 C 500.21875 254.28125 521.285156 224.675781 550.328125 217.789062 L 552.882812 217.195312 L 555.40625 218.070312 C 575.882812 225.363281 590.15625 254.1875 590.15625 288.21875 C 590.15625 322.28125 575.882812 351.105469 555.40625 358.398438 L 552.882812 359.269531 " fill-opacity="1" fill-rule="nonzero"/><path fill="#ffffff" d="M 581.179688 459.085938 C 581.179688 428.640625 568.808594 403.242188 552.382812 397.414062 C 527.765625 403.242188 509.222656 428.640625 509.222656 459.085938 C 509.222656 489.535156 527.765625 514.933594 552.382812 520.757812 C 568.808594 514.933594 581.179688 489.535156 581.179688 459.085938 " fill-opacity="1" fill-rule="nonzero"/><path fill="#000000" d="M 551.667969 406.917969 C 532.128906 413.121094 518.230469 434.53125 518.230469 459.085938 C 518.230469 483.644531 532.128906 505.054688 551.667969 511.253906 C 562.015625 505.550781 572.171875 486.355469 572.171875 459.085938 C 572.171875 431.820312 562.015625 412.621094 551.667969 406.917969 Z M 552.882812 530.109375 L 550.328125 529.515625 C 521.285156 522.628906 500.21875 493.023438 500.21875 459.085938 C 500.21875 425.148438 521.285156 395.515625 550.328125 388.65625 L 552.882812 388.035156 L 555.40625 388.9375 C 575.882812 396.199219 590.15625 425.058594 590.15625 459.085938 C 590.15625 493.117188 575.882812 521.976562 555.40625 529.234375 L 552.882812 530.109375 " fill-opacity="1" fill-rule="nonzero"/><g clip-path="url(#ff993e387d)"><path fill="#000000" d="M 662.109375 216.292969 L 617.140625 216.292969 L 617.140625 198.3125 L 662.109375 198.3125 L 662.109375 216.292969 " fill-opacity="1" fill-rule="nonzero"/></g><path fill="#000000" d="M 518.230469 216.292969 L 464.253906 216.292969 L 464.253906 198.3125 L 518.230469 198.3125 L 518.230469 216.292969 " fill-opacity="1" fill-rule="nonzero"/><g clip-path="url(#4cb2900132)"><path fill="#000000" d="M 662.109375 378.15625 L 617.140625 378.15625 L 617.140625 360.175781 L 662.109375 360.175781 L 662.109375 378.15625 " fill-opacity="1" fill-rule="nonzero"/></g><path fill="#000000" d="M 518.230469 378.15625 L 464.253906 378.15625 L 464.253906 360.175781 L 518.230469 360.175781 L 518.230469 378.15625 " fill-opacity="1" fill-rule="nonzero"/><path fill="#ffffff" d="M 437.296875 566.976562 L 473.261719 566.976562 L 473.261719 9.460938 L 437.296875 9.460938 L 437.296875 566.976562 " fill-opacity="1" fill-rule="nonzero"/><path fill="#000000" d="M 446.273438 558 L 464.253906 558 L 464.253906 18.46875 L 446.273438 18.46875 Z M 482.265625 575.980469 L 428.292969 575.980469 L 428.292969 0.484375 L 482.265625 0.484375 L 482.265625 575.980469 " fill-opacity="1" fill-rule="nonzero"/><path fill="#000000" d="M 225.417969 518.046875 L 158.011719 514.089844 L 159.070312 496.140625 L 226.476562 500.097656 L 225.417969 518.046875 " fill-opacity="1" fill-rule="nonzero"/><path fill="#d4d4d4" d="M 437.296875 342.191406 L 356.367188 342.191406 L 356.367188 306.199219 L 437.296875 306.199219 L 437.296875 342.191406 " fill-opacity="1" fill-rule="nonzero"/><path fill="#000000" d="M 365.339844 333.1875 L 428.292969 333.1875 L 428.292969 315.207031 L 365.339844 315.207031 Z M 446.273438 351.167969 L 347.359375 351.167969 L 347.359375 297.222656 L 446.273438 297.222656 L 446.273438 351.167969 " fill-opacity="1" fill-rule="nonzero"/><path fill="#000000" d="M 122.546875 403.960938 L 122.546875 385.976562 L 140.558594 385.976562 L 140.558594 403.960938 C 122.546875 403.960938 140.558594 403.960938 122.546875 403.960938 Z M 158.542969 403.960938 L 158.542969 385.976562 L 176.523438 385.976562 L 176.523438 403.960938 C 158.542969 403.960938 176.523438 403.960938 158.542969 403.960938 " fill-opacity="1" fill-rule="nonzero"/><path fill="#000000" d="M 140.558594 385.976562 L 140.558594 367.996094 L 158.542969 367.996094 L 158.542969 385.976562 C 140.558594 385.976562 158.542969 385.976562 140.558594 385.976562 Z M 176.523438 385.976562 L 176.523438 367.996094 L 194.503906 367.996094 L 194.503906 385.976562 C 176.523438 385.976562 194.503906 385.976562 176.523438 385.976562 " fill-opacity="1" fill-rule="nonzero"/><path fill="#000000" d="M 140.558594 350.109375 L 140.558594 332.035156 L 158.542969 332.035156 L 158.542969 350.109375 C 140.558594 350.109375 158.542969 350.109375 140.558594 350.109375 " fill-opacity="1" fill-rule="nonzero"/><path fill="#000000" d="M 140.558594 314.019531 L 140.558594 296.039062 L 158.542969 296.039062 L 158.542969 314.019531 C 140.558594 314.019531 158.542969 314.019531 140.558594 314.019531 " fill-opacity="1" fill-rule="nonzero"/><path fill="#000000" d="M 122.546875 367.996094 L 122.546875 350.015625 L 140.558594 350.015625 L 140.558594 367.996094 C 122.546875 367.996094 140.558594 367.996094 122.546875 367.996094 Z M 158.542969 367.996094 L 158.542969 350.015625 L 176.523438 350.015625 L 176.523438 367.996094 C 158.542969 367.996094 176.523438 367.996094 158.542969 367.996094 " fill-opacity="1" fill-rule="nonzero"/><path fill="#000000" d="M 122.546875 332.035156 L 122.546875 314.019531 L 140.558594 314.019531 L 140.558594 332.035156 C 122.546875 332.035156 140.558594 332.035156 122.546875 332.035156 Z M 158.542969 332.035156 L 158.542969 314.019531 L 176.523438 314.019531 L 176.523438 332.035156 C 158.542969 332.035156 176.523438 332.035156 158.542969 332.035156 " fill-opacity="1" fill-rule="nonzero"/><path fill="#000000" d="M 122.546875 296.039062 L 122.546875 278.058594 L 140.558594 278.058594 L 140.558594 296.039062 C 122.546875 296.039062 140.558594 296.039062 122.546875 296.039062 Z M 158.542969 296.039062 L 158.542969 278.058594 L 176.523438 278.058594 L 176.523438 296.039062 C 158.542969 296.039062 176.523438 296.039062 158.542969 296.039062 " fill-opacity="1" fill-rule="nonzero"/><path fill="#000000" d="M 221.054688 126.511719 L 93.785156 97.15625 L 97.835938 79.609375 L 221.925781 108.25 L 441.253906 79.175781 L 443.625 97 L 221.054688 126.511719 " fill-opacity="1" fill-rule="nonzero"/><path fill="#000000" d="M 230.464844 441.105469 L 212.484375 441.105469 L 212.484375 108.375 L 230.464844 108.375 L 230.464844 441.105469 " fill-opacity="1" fill-rule="nonzero"/><path fill="#28407e" d="M 356.367188 342.191406 L 203.480469 342.191406 L 203.480469 306.199219 L 356.367188 306.199219 L 356.367188 342.191406 " fill-opacity="1" fill-rule="nonzero"/><path fill="#000000" d="M 212.484375 333.1875 L 347.359375 333.1875 L 347.359375 315.207031 L 212.484375 315.207031 Z M 365.339844 351.167969 L 194.503906 351.167969 L 194.503906 297.222656 L 365.339844 297.222656 L 365.339844 351.167969 " fill-opacity="1" fill-rule="nonzero"/><path fill="#bbe5e1" d="M 437.296875 432.101562 L 212.484375 432.101562 L 212.484375 396.136719 L 437.296875 396.136719 L 437.296875 432.101562 " fill-opacity="1" fill-rule="nonzero"/><path fill="#000000" d="M 221.492188 423.125 L 428.292969 423.125 L 428.292969 405.144531 L 221.492188 405.144531 Z M 446.273438 441.105469 L 203.480469 441.105469 L 203.480469 387.132812 L 446.273438 387.132812 L 446.273438 441.105469 " fill-opacity="1" fill-rule="nonzero"/><path fill="#d4d4d4" d="M 185.496094 171.324219 C 185.496094 191.207031 173.4375 207.316406 158.542969 207.316406 C 143.613281 207.316406 131.554688 191.207031 131.554688 171.324219 C 131.554688 151.472656 143.613281 135.363281 158.542969 135.363281 C 173.4375 135.363281 185.496094 151.472656 185.496094 171.324219 " fill-opacity="1" fill-rule="nonzero"/><path fill="#000000" d="M 158.542969 144.367188 C 148.785156 144.367188 140.558594 156.707031 140.558594 171.324219 C 140.558594 185.972656 148.785156 198.3125 158.542969 198.3125 C 168.265625 198.3125 176.523438 185.972656 176.523438 171.324219 C 176.523438 156.707031 168.265625 144.367188 158.542969 144.367188 Z M 158.542969 216.292969 C 138.691406 216.292969 122.546875 196.128906 122.546875 171.324219 C 122.546875 146.550781 138.691406 126.355469 158.542969 126.355469 C 178.359375 126.355469 194.503906 146.550781 194.503906 171.324219 C 194.503906 196.128906 178.359375 216.292969 158.542969 216.292969 " fill-opacity="1" fill-rule="nonzero"/><path fill="#000000" d="M 194.503906 252.253906 L 122.546875 252.253906 L 122.546875 234.273438 L 194.503906 234.273438 L 194.503906 252.253906 " fill-opacity="1" fill-rule="nonzero"/><path fill="#d4d4d4" d="M 365.339844 207.316406 C 365.339844 242.066406 341.191406 270.238281 311.398438 270.238281 C 281.605469 270.238281 257.453125 242.066406 257.453125 207.316406 C 257.453125 172.539062 281.605469 144.367188 311.398438 144.367188 C 341.191406 144.367188 365.339844 172.539062 365.339844 207.316406 " fill-opacity="1" fill-rule="nonzero"/><path fill="#000000" d="M 311.398438 153.34375 C 286.621094 153.34375 266.429688 177.558594 266.429688 207.316406 C 266.429688 237.046875 286.621094 261.261719 311.398438 261.261719 C 336.171875 261.261719 356.367188 237.046875 356.367188 207.316406 C 356.367188 177.558594 336.171875 153.34375 311.398438 153.34375 Z M 311.398438 279.242188 C 276.679688 279.242188 248.449219 246.957031 248.449219 207.316406 C 248.449219 167.648438 276.679688 135.363281 311.398438 135.363281 C 346.113281 135.363281 374.347656 167.648438 374.347656 207.316406 C 374.347656 246.957031 346.113281 279.242188 311.398438 279.242188 " fill-opacity="1" fill-rule="nonzero"/><path fill="#000000" d="M 353.78125 255.246094 L 335.796875 255.246094 L 335.796875 240.164062 C 335.796875 228.945312 329.066406 219.347656 320.15625 217.882812 L 299.710938 214.453125 C 281.917969 211.492188 269.015625 194.664062 269.015625 174.441406 L 269.015625 159.355469 L 286.996094 159.355469 L 286.996094 174.441406 C 286.996094 185.660156 293.726562 195.257812 302.640625 196.722656 L 323.085938 200.117188 C 340.878906 203.078125 353.78125 219.9375 353.78125 240.164062 L 353.78125 255.246094 " fill-opacity="1" fill-rule="nonzero"/><path fill="#000000" d="M 283.226562 255.246094 L 269.015625 255.246094 L 269.015625 237.265625 L 283.226562 237.265625 C 292.046875 237.265625 299.679688 229.039062 301.019531 218.132812 L 303.917969 194.292969 C 306.378906 174.378906 321.679688 159.355469 339.570312 159.355469 L 353.78125 159.355469 L 353.78125 177.339844 L 339.570312 177.339844 C 330.75 177.339844 323.113281 185.566406 321.773438 196.472656 L 318.875 220.3125 C 316.414062 240.226562 301.113281 255.246094 283.226562 255.246094 " fill-opacity="1" fill-rule="nonzero"/><path fill="#28407e" d="M 293.417969 207.316406 C 293.417969 197.375 301.457031 189.304688 311.398438 189.304688 C 321.339844 189.304688 329.378906 197.375 329.378906 207.316406 C 329.378906 217.226562 321.339844 225.300781 311.398438 225.300781 C 301.457031 225.300781 293.417969 217.226562 293.417969 207.316406 " fill-opacity="1" fill-rule="nonzero"/><path fill="#000000" d="M 311.398438 198.3125 C 306.441406 198.3125 302.390625 202.332031 302.390625 207.316406 C 302.390625 212.273438 306.441406 216.292969 311.398438 216.292969 C 316.351562 216.292969 320.402344 212.273438 320.402344 207.316406 C 320.402344 202.332031 316.351562 198.3125 311.398438 198.3125 Z M 311.398438 234.273438 C 296.53125 234.273438 284.410156 222.183594 284.410156 207.316406 C 284.410156 192.421875 296.53125 180.332031 311.398438 180.332031 C 326.261719 180.332031 338.386719 192.421875 338.386719 207.316406 C 338.386719 222.183594 326.261719 234.273438 311.398438 234.273438 " fill-opacity="1" fill-rule="nonzero"/><path fill="#000000" d="M 410.308594 405.144531 L 392.328125 405.144531 L 392.328125 333.1875 L 410.308594 333.1875 L 410.308594 405.144531 " fill-opacity="1" fill-rule="nonzero"/><path fill="#000000" d="M 374.347656 405.144531 L 356.367188 405.144531 L 356.367188 333.1875 L 374.347656 333.1875 L 374.347656 405.144531 " fill-opacity="1" fill-rule="nonzero"/><path fill="#000000" d="M 338.386719 405.144531 L 320.402344 405.144531 L 320.402344 333.1875 L 338.386719 333.1875 L 338.386719 405.144531 " fill-opacity="1" fill-rule="nonzero"/><path fill="#000000" d="M 302.390625 405.144531 L 284.410156 405.144531 L 284.410156 333.1875 L 302.390625 333.1875 L 302.390625 405.144531 " fill-opacity="1" fill-rule="nonzero"/><path fill="#000000" d="M 266.429688 405.144531 L 248.449219 405.144531 L 248.449219 333.1875 L 266.429688 333.1875 L 266.429688 405.144531 " fill-opacity="1" fill-rule="nonzero"/><path fill="#28407e" d="M 401.335938 306.199219 L 437.296875 306.199219 L 437.296875 126.355469 L 401.335938 135.363281 L 401.335938 306.199219 " fill-opacity="1" fill-rule="nonzero"/><path fill="#000000" d="M 410.308594 297.222656 L 428.292969 297.222656 L 428.292969 137.886719 L 410.308594 142.375 Z M 446.273438 315.207031 L 392.328125 315.207031 L 392.328125 128.351562 L 446.273438 114.855469 L 446.273438 315.207031 " fill-opacity="1" fill-rule="nonzero"/><path fill="#000000" d="M 410.308594 279.242188 L 374.347656 279.242188 L 374.347656 261.261719 L 410.308594 261.261719 L 410.308594 279.242188 " fill-opacity="1" fill-rule="nonzero"/><path fill="#000000" d="M 248.449219 162.347656 L 212.484375 162.347656 L 212.484375 144.367188 L 248.449219 144.367188 L 248.449219 162.347656 " fill-opacity="1" fill-rule="nonzero"/><path fill="#000000" d="M 248.449219 279.242188 L 212.484375 279.242188 L 212.484375 261.261719 L 248.449219 261.261719 L 248.449219 279.242188 " fill-opacity="1" fill-rule="nonzero"/><path fill="#000000" d="M 410.308594 153.34375 L 374.347656 153.34375 L 374.347656 135.363281 L 410.308594 135.363281 L 410.308594 153.34375 " fill-opacity="1" fill-rule="nonzero"/><path fill="#000000" d="M 366.621094 71.726562 L 364.25 53.898438 L 436.019531 44.332031 L 438.390625 62.160156 L 366.621094 71.726562 " fill-opacity="1" fill-rule="nonzero"/><path fill="#000000" d="M 410.308594 540.019531 L 392.328125 540.019531 L 392.328125 423.125 L 410.308594 423.125 L 410.308594 540.019531 " fill-opacity="1" fill-rule="nonzero"/><path fill="#000000" d="M 140.558594 513.03125 L 122.546875 513.03125 L 122.546875 423.125 L 140.558594 423.125 L 140.558594 513.03125 " fill-opacity="1" fill-rule="nonzero"/></svg>